<svg xmlns:rdf="http://www.w3.org/1999/02/22-rdf-syntax-ns#" xmlns="http://www.w3.org/2000/svg" height="64" width="70" version="1.1" xmlns:cc="http://creativecommons.org/ns#" xmlns:xlink="http://www.w3.org/1999/xlink" xmlns:dc="http://purl.org/dc/elements/1.1/">
<defs>
<linearGradient id="linearGradient3808" y2="17.146" gradientUnits="userSpaceOnUse" x2="50.125" gradientTransform="matrix(1.2709529,0,0,1.2709529,0,-13.848858)" y1="17.146" x1="5.75">
<stop stop-color="#179fb1" offset="0"></stop>
<stop stop-color="#0f5da9" offset="1"></stop>
</linearGradient>
</defs>
<metadata>
<rdf:rdf>
<cc:work rdf:about="">
<dc:format>image/svg+xml</dc:format>
<dc:type rdf:resource="http://purl.org/dc/dcmitype/StillImage"></dc:type>
<dc:title></dc:title>
</cc:work>
</rdf:rdf>
</metadata>
<g transform="translate(0,14)">
<rect style="enable-background:accumulate;color:#000000;" fill-rule="nonzero" ry="4.3651" height="63.551" width="69.89" y="-13.772" x="0" fill="#0a2a3b"></rect>
</g>
<g transform="translate(0,14)">
<path style="baseline-shift:baseline;block-progression:tb;color:#000000;direction:ltr;text-indent:0;text-align:start;enable-background:accumulate;text-transform:none;" fill="url(#linearGradient3808)" d="m44.285-11.069c-3.2493,0.1323-8.6972,0.76833-14.537,3.2171-8.652,3.6289-20.308,12.664-22.44,30.366l4.659-0.625c2.046-9.769,11.055-14.428,17.424-14.569,7.373-0.1623,14.797,3.7446,17.912,10.049l1.5093-0.75463c-3.452-6.987-10.507-11.361-19.501-10.962-3.437,0.1527-6.906,1.1687-10.008,3.1377,4.805-3.6266,10.821-5.0686,16.165-4.6469,5.3868,0.42515,10.583,2.5916,14.378,6.3945,3.7943,3.8029,6.2302,9.2587,6.1165,16.443h1.6681c0.12-7.576-2.488-13.521-6.593-17.635-4.105-4.1141-9.67-6.3827-15.411-6.8313-1.4352-0.11215-2.8871-0.12153-4.3292,0-3.755,0.3165-7.422,1.3817-10.684,3.2171,4.169-3.0016,9.192-4.6397,14.378-4.9647,11.253-0.7052,22.87,5.3621,27.127,19.184l1.5887-0.47661c-4.468-14.506-16.911-21.122-28.835-20.375-4.442,0.27837-8.803,1.5047-12.67,3.6937,3.791-2.785,8.088-4.3457,12.511-5.0441,10.457-1.6513,21.56,2.4798,27.603,9.413l1.232-1.1121c-4.862-5.5773-12.559-9.3575-20.772-10.168-2.7379-0.27004-5.5392-0.19781-8.3009,0.2383-3.3779,0.53342-6.7079,1.6029-9.8102,3.2965,4.3138-3.0238,8.8944-4.3661,12.988-4.9647,11.185-1.6357,19.104,2.5419,19.104,2.5419l0.75463-1.549s-4.8738-2.3555-11.955-2.9391c-2.3604-0.19451-5.6331-0.1763-8.3009,0.15887-2.876,0.36132-5.8637,1.12-8.7775,2.4228,0.76827-0.44362,1.5357-0.869,2.3433-1.271,6.9123-3.4403,16.443-3.1774,16.443-3.1774l0.11915-1.6681s-1.1484-0.1191-3.0979-0.03972z"></path>
<path fill="#FFF" d="m14.06,27.1c-5.5122,0-6.6328,1.271-6.6328,1.271v3.932s4.1526-1.1915,5.9179-1.1915,3.0582,0.60012,3.0582,1.5887c0,0.98857-1.8181,1.324-5.9179,2.5419-2.4728,0.73456-4.4483,1.8705-4.4483,5.4413,0,3.5707,1.952,5.1632,5.3221,5.1632,4.1926,0,5.5207-2.4228,5.5207-2.4228s-0.12359,2.105,0.31774,2.105h4.0512v-13.226c0-3.3701-1.6766-5.203-7.1888-5.203zm2.2639,9.6116,0,2.8994c0,0.93619-1.1632,2.5646-3.0355,2.5646-1.8724,0-2.3774-0.86811-2.3774-2.1447,0-1.3617,1.6919-2.1174,2.7745-2.2866,1.927-0.30109,2.6384-1.0326,2.6384-1.0326z"></path>
<path style="enable-background:accumulate;color:#000000;" d="m23.816,45.543,4.979,0,0-16.979s-1.5146,1.051-2.6243,1.1348c-1.4594,0.11019-2.3547,0.68087-2.3547,1.078,0,0.31206,0.000004,14.766,0,14.766z" fill-rule="nonzero" fill="#FFF"></path>
<path style="enable-background:accumulate;color:#000000;" d="m23.852,27.312v-3.1093c0-1.0431,1.324-2.327,3.2498-2.327s2.1665,1.0431,2.1665,2.0461-0.41575,2.0124-2.006,2.3069c-1.6249,0.3009-3.4102,1.0833-3.4102,1.0833z" fill-rule="nonzero" fill="#FFF"></path>
<path style="enable-background:accumulate;color:#000000;" d="m39.894,27.02c-4.1725,0-8.8758,2.3109-8.8758,9.4924,0,7.1816,3.805,9.4936,8.6195,9.4936s7.2494-1.6693,7.2494-1.6693v-4.0114s-4.1812,1.5835-6.6492,1.6268c-2.2869,0.04012-3.4574-0.49979-3.4975-1.9843-0.04012-1.4845,2.6673-1.3567,4.8283-1.9847,2.347-0.68205,5.424-1.2969,5.424-5.349,0-4.0522-2.9261-5.6141-7.0986-5.6141zm-0.09546,4.1342c2.2066,0,2.0216,1.1024,2.0216,1.9048,0,0.80241-0.35211,1.4005-2.639,1.8819-2.2869,0.48144-3.0971,1.0347-3.0971,1.0347,0-3.651,1.6283-4.8214,3.7146-4.8214z" fill-rule="nonzero" fill="#FFF"></path>
</g>
</svg>