<?xml version="1.0" encoding="utf-8"?>
<!-- Generator: Adobe Illustrator 16.2.1, SVG Export Plug-In . SVG Version: 6.00 Build 0)  -->
<!DOCTYPE svg PUBLIC "-//W3C//DTD SVG 1.1//EN" "http://www.w3.org/Graphics/SVG/1.1/DTD/svg11.dtd">
<svg version="1.1" id="Layer_1" xmlns="http://www.w3.org/2000/svg" xmlns:xlink="http://www.w3.org/1999/xlink" x="0px" y="0px"
	 width="215px" height="285px" viewBox="0 0 215 285" enable-background="new 0 0 215 285" xml:space="preserve">
<g transform="matrix( 1, 0, 0, 1, 0,0) ">
	<g>
		<g id="Layer5_0_FILL">
			<path fill="#EAB42F" d="M108.449,277.8l81.75-23.55l18.65-205.7H7.051l18.648,205.7L108.449,277.8z"/>
		</g>
	</g>
</g>
<g transform="matrix( 1, 0, 0, 1, 0,0) ">
	<g>
		<g id="Layer4_0_FILL">
			<path fill="#EFEFEF" d="M52.551,179l3.898,40.55l51.65,14.75V207.15L80,198l-1.949-19.3L52.551,179 M108.1,116.25V91.4H44
				l3.301,24.85H108.1z"/>
			<path fill="#EAB42F" d="M108.449,277.8l81.75-23.55l18.65-205.7H7.051l18.648,205.7L108.449,277.8 M108.1,91.4V64.9
				c-0.232-0.134,13.6,0,41.5,0.399c13.934,0.167,27.9,0.351,41.9,0.55L174.85,241.15l-66.75,18.3V234.3l-51.65-14.75L52.551,179
				l25.5-0.3L80,198l28.1,9.15v-90.9H47.301L44,91.4H108.1z"/>
			<path fill="#F3CF33" d="M108.1,64.9v26.5h63.451L160.1,219.25l-52,15.05v25.15l66.75-18.3L191.5,65.85
				c-14-0.199-27.967-0.383-41.9-0.55C121.699,64.9,107.867,64.767,108.1,64.9 M143.75,116.25H108.1v90.9L135.9,199.3L143.75,116.25
				z"/>
			<path fill="#FEFFFF" d="M108.1,116.25h35.65l-7.85,83.05L108.1,207.15V234.3l52-15.05L171.551,91.4H108.1V116.25z"/>
		</g>
	</g>
</g>
<g transform="matrix( 1, 0, 0, 1, 0,0) ">
	<g>
		<g id="Layer3_0_FILL">
			<path d="M42.6,8.45h-6.799l-7.5,20.05H34.6l1-3.3h7l1.051,3.3H50.1L42.6,8.45 M41.35,20.85h-4.4l2.201-7.199L41.35,20.85
				 M55,8.45h-6.449L56.1,28.5h6.701L70.25,8.45h-6.301L59.5,22.9L55,8.45 M16.949,22.9c-0.166-0.434-0.25-1.101-0.25-2l-5.898,0.8
				c0.1,1.566,0.449,2.884,1.049,3.95c0.6,1.033,1.467,1.816,2.6,2.35c1.102,0.566,2.668,0.85,4.701,0.85
				c1.9,0,3.467-0.416,4.699-1.25c1.234-0.833,2.051-1.85,2.451-3.05c0.398-1.2,0.6-2.933,0.6-5.2V8.45h-6.201V20.8
				c0,1.233-0.166,2.101-0.5,2.601c-0.332,0.533-0.832,0.8-1.5,0.8c-0.467,0-0.816-0.101-1.049-0.3
				C17.316,23.633,17.084,23.3,16.949,22.9 M131.199,14.35c-0.699-2.1-1.783-3.666-3.25-4.699C126.518,8.617,124.533,8.1,122,8.1
				c-3.232,0-5.717,0.9-7.449,2.7c-1.768,1.767-2.65,4.317-2.65,7.65c0,2.466,0.5,4.5,1.5,6.1c1,1.601,2.184,2.717,3.549,3.351
				c1.4,0.633,3.184,0.949,5.352,0.949c1.799,0,3.283-0.266,4.449-0.8c1.133-0.5,2.1-1.267,2.9-2.3c0.799-1.033,1.367-2.3,1.699-3.8
				l-5.4-1.65c-0.266,1.267-0.699,2.233-1.299,2.9c-0.633,0.667-1.533,1-2.701,1c-1.232,0-2.182-0.417-2.85-1.25
				c-0.666-0.833-1-2.351-1-4.55c0-1.801,0.283-3.117,0.85-3.95c0.734-1.134,1.801-1.7,3.201-1.7c0.633,0,1.199,0.133,1.699,0.4
				c0.5,0.232,0.918,0.6,1.25,1.1c0.234,0.267,0.434,0.7,0.6,1.3L131.199,14.35 M82.949,8.45H76.15l-7.5,20.05h6.299l1-3.3h7
				L84,28.5h6.449L82.949,8.45 M81.699,20.85h-4.398L79.5,13.65L81.699,20.85 M93,11.05c-0.633,0.934-0.949,1.917-0.949,2.95
				c0,1.566,0.582,2.85,1.75,3.85c1.166,1,3.115,1.816,5.85,2.45c1.633,0.366,2.684,0.75,3.15,1.15
				c0.467,0.399,0.699,0.866,0.699,1.399s-0.232,1.018-0.699,1.45c-0.5,0.4-1.184,0.601-2.051,0.601c-1.199,0-2.117-0.4-2.75-1.2
				c-0.4-0.5-0.666-1.233-0.801-2.2l-5.898,0.35c0.199,2.033,0.949,3.7,2.25,5c1.299,1.334,3.666,2,7.1,2
				c1.934,0,3.533-0.283,4.799-0.85c1.268-0.566,2.268-1.383,3-2.45c0.701-1.1,1.051-2.283,1.051-3.55c0-1.1-0.268-2.1-0.801-3
				c-0.533-0.867-1.383-1.6-2.549-2.2c-1.168-0.6-3.1-1.2-5.801-1.8c-1.1-0.2-1.799-0.434-2.1-0.7s-0.449-0.566-0.449-0.899
				c0-0.434,0.182-0.801,0.549-1.101s0.918-0.45,1.65-0.45c0.867,0,1.551,0.2,2.051,0.601c0.5,0.433,0.816,1.1,0.949,2l5.85-0.351
				c-0.266-2.1-1.066-3.616-2.4-4.55c-1.332-0.966-3.283-1.45-5.85-1.45c-2.1,0-3.75,0.268-4.949,0.801
				C94.449,9.434,93.566,10.15,93,11.05 M152.5,14c0-1.267-0.301-2.334-0.9-3.2c-0.633-0.899-1.449-1.517-2.449-1.85
				s-2.467-0.5-4.4-0.5h-10.301V28.5h6.201v-8.15h0.549c0.568,0,1.068,0.167,1.5,0.5c0.334,0.234,0.717,0.75,1.15,1.551l3.301,6.1h7
				l-3-5.8l-0.85-1.25l-1-1.05c-0.334-0.268-0.867-0.518-1.602-0.75c0.9-0.2,1.617-0.467,2.15-0.801
				c0.834-0.5,1.484-1.149,1.951-1.949C152.268,16.1,152.5,15.133,152.5,14 M140.65,12.5h2.699c1.133,0,1.918,0.166,2.35,0.5
				c0.4,0.367,0.602,0.867,0.602,1.5c0,0.434-0.135,0.834-0.4,1.2c-0.268,0.333-0.6,0.533-1,0.6l-1.65,0.3h-2.6V12.5 M162.551,8.45
				h-6.201V28.5h6.201V8.45 M183.949,14.6c0-1.967-0.566-3.482-1.699-4.55c-1.1-1.066-2.783-1.6-5.051-1.6H166.9V28.5h6.25v-7.45
				h3.4c2.5,0,4.35-0.566,5.549-1.7C183.334,18.217,183.949,16.633,183.949,14.6 M177.25,13.2c0.434,0.433,0.65,0.966,0.65,1.6
				s-0.234,1.167-0.701,1.601c-0.5,0.399-1.35,0.6-2.549,0.6h-1.5v-4.45h1.75C176.066,12.55,176.85,12.767,177.25,13.2 M185.75,8.45
				v4.95h6.301v15.1h6.199V13.4h6.301V8.45H185.75z"/>
		</g>
	</g>
</g>
</svg>

