<?xml version="1.0" encoding="UTF-8" standalone="no"?>
<!-- Generator: Adobe Illustrator 16.0.0, SVG Export Plug-In . SVG Version: 6.00 Build 0)  -->

<svg
   xmlns:dc="http://purl.org/dc/elements/1.1/"
   xmlns:cc="http://creativecommons.org/ns#"
   xmlns:rdf="http://www.w3.org/1999/02/22-rdf-syntax-ns#"
   xmlns:svg="http://www.w3.org/2000/svg"
   xmlns="http://www.w3.org/2000/svg"
   xmlns:sodipodi="http://sodipodi.sourceforge.net/DTD/sodipodi-0.dtd"
   xmlns:inkscape="http://www.inkscape.org/namespaces/inkscape"
   version="1.1"
   id="Layer_1"
   x="0px"
   y="0px"
   width="168px"
   height="40px"
   viewBox="0 0 168 40"
   enable-background="new 0 0 168 40"
   xml:space="preserve"
   inkscape:version="0.91 r13725"
   sodipodi:docname="polymer-logo-edited.svg"><metadata
     id="metadata89"><rdf:RDF><cc:Work
         rdf:about=""><dc:format>image/svg+xml</dc:format><dc:type
           rdf:resource="http://purl.org/dc/dcmitype/StillImage" /></cc:Work></rdf:RDF></metadata><defs
     id="defs87" /><sodipodi:namedview
     pagecolor="#ffffff"
     bordercolor="#666666"
     borderopacity="1"
     objecttolerance="10"
     gridtolerance="10"
     guidetolerance="10"
     inkscape:pageopacity="0"
     inkscape:pageshadow="2"
     inkscape:window-width="1050"
     inkscape:window-height="799"
     id="namedview85"
     showgrid="false"
     inkscape:zoom="2.8957706"
     inkscape:cx="79.553349"
     inkscape:cy="14.068809"
     inkscape:window-x="418"
     inkscape:window-y="65"
     inkscape:window-maximized="0"
     inkscape:current-layer="Layer_1" /><g
     id="g3"
     transform="scale(1,-1.0023256)"><g
       id="g5"><path
         d="m 69.833,-19.172 c 0,-2.573 -0.573,-4.64 -1.72,-6.202 -1.146,-1.562 -2.747,-2.342 -4.802,-2.342 -1.058,0 -1.981,0.161 -2.771,0.482 -0.79,0.321 -1.474,0.81 -2.054,1.463 l 0,-8.108 -2.879,0 0,23.314 2.489,0 0.233,-1.93 c 0.581,0.736 1.276,1.294 2.086,1.673 0.81,0.378 1.759,0.568 2.848,0.568 2.106,0 3.728,-0.768 4.864,-2.303 1.136,-1.536 1.704,-3.632 1.704,-6.288 l 0,-0.327 z m -2.88,0.327 c 0,1.806 -0.379,3.281 -1.136,4.428 -0.758,1.146 -1.894,1.72 -3.408,1.72 -0.943,0 -1.735,-0.205 -2.373,-0.615 -0.639,-0.41 -1.155,-0.979 -1.549,-1.705 l 0,-8.046 c 0.404,-0.737 0.923,-1.305 1.557,-1.705 0.633,-0.399 1.432,-0.599 2.396,-0.599 1.494,0 2.619,0.576 3.377,1.727 0.757,1.152 1.136,2.641 1.136,4.467 l 0,0.328 z"
         id="path7"
         inkscape:connector-curvature="0"
         style="fill:#666666" /><path
         d="m 72.329,-18.829 c 0,2.521 0.688,4.581 2.062,6.179 1.375,1.597 3.234,2.396 5.58,2.396 2.365,0 4.238,-0.796 5.619,-2.389 1.379,-1.592 2.069,-3.655 2.069,-6.187 l 0,-0.343 c 0,-2.532 -0.688,-4.588 -2.062,-6.17 -1.375,-1.583 -3.239,-2.374 -5.595,-2.374 -2.356,0 -4.224,0.791 -5.604,2.374 -1.38,1.582 -2.07,3.639 -2.07,6.17 l 0,0.344 z m 2.896,-0.343 c 0,-1.805 0.407,-3.289 1.222,-4.451 0.815,-1.162 2,-1.743 3.557,-1.743 1.536,0 2.715,0.581 3.54,1.743 0.825,1.162 1.238,2.646 1.238,4.451 l 0,0.343 c 0,1.785 -0.416,3.266 -1.246,4.443 -0.83,1.177 -2.018,1.767 -3.563,1.767 -1.536,0 -2.711,-0.589 -3.525,-1.767 -0.814,-1.178 -1.222,-2.659 -1.222,-4.443 l 0,-0.343 z"
         id="path9"
         inkscape:connector-curvature="0"
         style="fill:#666666" /><path
         d="m 93.539,-27.405 -2.88,0 0,24.28 2.88,0 0,-24.28 z"
         id="path11"
         inkscape:connector-curvature="0"
         style="fill:#666666" /><path
         d="m 102.787,-21.755 0.28,-1.074 3.968,12.264 3.223,0 -6.771,-19.439 c -0.426,-1.142 -1.022,-2.127 -1.789,-2.958 -0.769,-0.83 -1.838,-1.245 -3.207,-1.245 -0.198,0 -0.421,0.023 -0.669,0.07 -0.25,0.046 -0.565,0.106 -0.95,0.179 l 0.016,2.335 c 0.072,-0.01 0.197,-0.023 0.374,-0.039 0.176,-0.016 0.306,-0.023 0.389,-0.023 0.976,0 1.699,0.205 2.171,0.615 0.473,0.41 0.896,1.149 1.269,2.218 l 0.685,2.039 -5.867,16.249 3.206,0 3.672,-11.191 z"
         id="path13"
         inkscape:connector-curvature="0"
         style="fill:#666666" /><path
         d="m 115.106,-10.565 0.172,-1.93 c 0.591,0.726 1.302,1.282 2.132,1.666 0.829,0.384 1.801,0.576 2.91,0.576 1.121,0 2.089,-0.241 2.903,-0.724 0.814,-0.482 1.45,-1.222 1.906,-2.218 0.592,0.924 1.333,1.645 2.226,2.164 0.893,0.519 1.94,0.778 3.145,0.778 1.753,0 3.131,-0.578 4.132,-1.735 1.002,-1.157 1.502,-2.929 1.502,-5.316 l 0,-10.101 -2.879,0 0,10.132 c 0,1.681 -0.307,2.864 -0.919,3.549 -0.612,0.685 -1.505,1.027 -2.677,1.027 -1.142,0 -2.046,-0.376 -2.717,-1.128 -0.669,-0.752 -1.06,-1.699 -1.175,-2.84 l 0,-10.739 -2.896,0 0,10.163 c 0,1.598 -0.308,2.755 -0.925,3.471 -0.618,0.716 -1.508,1.074 -2.669,1.074 -1.008,0 -1.821,-0.21 -2.444,-0.63 -0.623,-0.42 -1.1,-1.015 -1.432,-1.782 l 0,-12.295 -2.88,0 0,16.84 2.585,0 z"
         id="path15"
         inkscape:connector-curvature="0"
         style="fill:#666666" /><path
         d="m 146.476,-27.716 c -2.365,0 -4.243,0.747 -5.634,2.241 -1.391,1.494 -2.085,3.46 -2.085,5.899 l 0,0.654 c 0,2.667 0.716,4.778 2.147,6.334 1.431,1.556 3.17,2.334 5.214,2.334 2.345,0 4.085,-0.747 5.222,-2.241 1.136,-1.494 1.704,-3.502 1.704,-6.023 l 0,-1.292 -11.408,0 c 0.031,-1.629 0.492,-2.962 1.386,-4 0.893,-1.038 2.096,-1.556 3.611,-1.556 0.975,0 1.814,0.191 2.521,0.576 0.706,0.384 1.344,0.95 1.915,1.696 l 1.758,-1.37 c -0.644,-0.976 -1.473,-1.762 -2.489,-2.358 -1.019,-0.595 -2.306,-0.894 -3.862,-0.894 z m -0.358,15.097 c -1.193,0 -2.177,-0.415 -2.949,-1.245 -0.772,-0.831 -1.253,-2.024 -1.439,-3.58 l 8.436,0 0,0.218 c -0.094,1.317 -0.451,2.415 -1.074,3.292 -0.623,0.876 -1.614,1.315 -2.974,1.315 z"
         id="path17"
         inkscape:connector-curvature="0"
         style="fill:#666666" /><path
         d="m 164.25,-13.148 c -0.259,0.032 -0.492,0.057 -0.7,0.078 -0.208,0.021 -0.446,0.031 -0.716,0.031 -0.976,0 -1.779,-0.21 -2.412,-0.63 -0.634,-0.42 -1.11,-1.015 -1.433,-1.782 l 0,-11.953 -2.879,0 0,16.84 2.661,0 0.156,-1.898 c 0.478,0.705 1.051,1.25 1.719,1.634 0.67,0.384 1.445,0.576 2.328,0.576 0.197,0 0.43,-0.026 0.7,-0.078 0.27,-0.052 0.461,-0.099 0.575,-0.14 l 0,-2.678 z"
         id="path19"
         inkscape:connector-curvature="0"
         style="fill:#666666" /></g></g><g
     id="g21"
     transform="scale(1,-1.0023256)"><g
       id="g23"><polygon
         points="8.123,-26.875 12.092,-33.75 16.062,-26.875 12.092,-20 "
         id="polygon25"
         style="fill:#303f9f" /><polygon
         points="31.938,-13.125 35.908,-20 39.877,-13.125 35.908,-6.25 "
         id="polygon27"
         style="fill:#3f51b5" /><polygon
         points="27.969,-33.75 35.908,-33.75 43.847,-20 39.877,-13.125 "
         id="polygon29"
         style="fill:#7986cb" /><polygon
         points="12.092,-33.75 20.031,-33.75 35.908,-6.25 27.969,-6.25 "
         id="polygon31"
         style="fill:#ff4081" /><polygon
         points="4.153,-20 8.123,-26.875 20.031,-6.25 12.092,-6.25 "
         id="polygon33"
         style="fill:#536dfe" /><polygon
         points="31.938,-13.125 35.908,-6.25 27.969,-6.25 "
         id="polygon35"
         style="fill:#ffffff;fill-opacity:0.2" /><polygon
         points="27.969,-6.25 31.938,-13.125 24,-13.125 "
         id="polygon37"
         style="fill:#ffffff;fill-opacity:0.1" /><polygon
         points="27.969,-20 31.938,-13.125 24,-13.125 "
         id="polygon39"
         style="fill:#ffffff;fill-opacity:0" /><polygon
         points="24,-13.125 27.969,-20 20.031,-20 "
         id="polygon41"
         style="fill-opacity:0.1" /><polygon
         points="24,-26.875 27.969,-20 20.031,-20 "
         id="polygon43"
         style="fill-opacity:0.2" /><polygon
         points="20.031,-20 24,-26.875 16.062,-26.875 "
         id="polygon45"
         style="fill-opacity:0.3" /><polygon
         points="20.031,-33.75 24,-26.875 16.062,-26.875 "
         id="polygon47"
         style="fill-opacity:0.4" /><polygon
         points="16.062,-26.875 20.031,-33.75 12.092,-33.75 "
         id="polygon49"
         style="fill-opacity:0.5" /><polygon
         points="16.062,-13.125 20.031,-6.25 12.092,-6.25 "
         id="polygon51"
         style="fill:#ffffff;fill-opacity:0.2" /><polygon
         points="12.092,-6.25 16.062,-13.125 8.123,-13.125 "
         id="polygon53"
         style="fill:#ffffff;fill-opacity:0.1" /><polygon
         points="12.092,-20 16.062,-13.125 8.123,-13.125 "
         id="polygon55"
         style="fill:#ffffff;fill-opacity:0" /><polygon
         points="8.123,-13.125 12.092,-20 4.153,-20 "
         id="polygon57"
         style="fill-opacity:0.1" /><polygon
         points="8.123,-26.875 12.092,-20 4.153,-20 "
         id="polygon59"
         style="fill-opacity:0.2" /><polygon
         points="12.092,-20 8.123,-26.875 16.062,-26.875 "
         id="polygon61"
         style="fill:#ffffff;fill-opacity:0" /><polygon
         points="12.092,-33.75 8.123,-26.875 16.062,-26.875 "
         id="polygon63"
         style="fill-opacity:0.2" /><polygon
         points="35.908,-6.25 31.938,-13.125 39.877,-13.125 "
         id="polygon65"
         style="fill-opacity:0.2" /><polygon
         points="35.908,-20 31.938,-13.125 39.877,-13.125 "
         id="polygon67"
         style="fill:#ffffff;fill-opacity:0" /><g
         id="g69"><polygon
           points="39.877,-13.125 43.847,-20 35.908,-20 "
           id="polygon71"
           style="fill:#ffffff;fill-opacity:0.2" /><polygon
           points="39.877,-26.875 43.847,-20 35.908,-20 "
           id="polygon73"
           style="fill:#ffffff;fill-opacity:0.1" /><polygon
           points="35.908,-20 39.877,-26.875 31.938,-26.875 "
           id="polygon75"
           style="fill:#ffffff;fill-opacity:0" /><polygon
           points="35.908,-33.75 39.877,-26.875 31.938,-26.875 "
           id="polygon77"
           style="fill-opacity:0.1" /><polygon
           points="31.938,-26.875 35.908,-33.75 27.969,-33.75 "
           id="polygon79"
           style="fill-opacity:0.2" /></g></g><polygon
       points="4,-40 4,0 44,0 44,-40 "
       id="polygon81"
       style="fill:none" /></g><polygon
     points="0,-40 0,0 168,0 168,-40 "
     id="polygon83"
     transform="scale(1,-1.0023256)"
     style="fill:none" /></svg>