<?xml version="1.0" encoding="UTF-8" standalone="no"?>
<!-- Created with Inkscape (http://www.inkscape.org/) -->

<svg
   xmlns:dc="http://purl.org/dc/elements/1.1/"
   xmlns:cc="http://creativecommons.org/ns#"
   xmlns:rdf="http://www.w3.org/1999/02/22-rdf-syntax-ns#"
   xmlns:svg="http://www.w3.org/2000/svg"
   xmlns="http://www.w3.org/2000/svg"
   xmlns:sodipodi="http://sodipodi.sourceforge.net/DTD/sodipodi-0.dtd"
   xmlns:inkscape="http://www.inkscape.org/namespaces/inkscape"
   width="235"
   height="40"
   viewBox="0 0 235 39.999998"
   id="svg12056"
   version="1.1"
   inkscape:version="0.91 r13725"
   sodipodi:docname="aie-logo.svg">
  <defs
     id="defs12058">
    <linearGradient
       x1="5.75"
       y1="17.146"
       gradientTransform="matrix(1.2709529,0,0,1.2709529,0,-13.848858)"
       x2="50.125"
       gradientUnits="userSpaceOnUse"
       y2="17.146"
       id="linearGradient3808">
      <stop
         id="stop5198"
         offset="0"
         stop-color="#179fb1" />
      <stop
         id="stop5200"
         offset="1"
         stop-color="#0f5da9" />
    </linearGradient>
  </defs>
  <sodipodi:namedview
     id="base"
     pagecolor="#8e8e8e"
     bordercolor="#666666"
     borderopacity="1.0"
     inkscape:pageopacity="0"
     inkscape:pageshadow="2"
     inkscape:zoom="5.6"
     inkscape:cx="124.17793"
     inkscape:cy="19.58629"
     inkscape:document-units="px"
     inkscape:current-layer="layer1"
     showgrid="false"
     fit-margin-top="0"
     fit-margin-left="0"
     fit-margin-right="0"
     fit-margin-bottom="0"
     units="px"
     inkscape:window-width="1920"
     inkscape:window-height="997"
     inkscape:window-x="1920"
     inkscape:window-y="0"
     inkscape:window-maximized="1" />
  <metadata
     id="metadata12061">
    <rdf:RDF>
      <cc:Work
         rdf:about="">
        <dc:format>image/svg+xml</dc:format>
        <dc:type
           rdf:resource="http://purl.org/dc/dcmitype/StillImage" />
        <dc:title></dc:title>
      </cc:Work>
    </rdf:RDF>
  </metadata>
  <g
     inkscape:groupmode="layer"
     id="layer5"
     inkscape:label="Background"
     style="display:none">
    <g
       id="g5225"
       transform="matrix(0.60231544,0,0,0.60231544,0.44643,0.69206191)"
       style="display:inline;opacity:1">
      <g
         id="g5204"
         transform="translate(0,14)">
        <rect
           id="rect5206"
           x="-0.74118739"
           y="-15.106137"
           width="390.56479"
           height="66.562263"
           style="color:#000000;fill:#0a2a3b;fill-rule:nonzero;enable-background:accumulate" />
      </g>
    </g>
  </g>
  <g
     inkscape:label="Logo"
     inkscape:groupmode="layer"
     id="layer1"
     transform="translate(-231.49022,-652.69388)"
     style="display:inline">
    <g
       style="display:inline;opacity:1"
       id="g5208"
       transform="matrix(0.60231544,0,0,0.60231544,231.93665,661.81836)">
      <path
         id="path5210"
         d="m 44.285,-11.069 c -3.2493,0.1323 -8.6972,0.76833 -14.537,3.2171 C 21.096,-4.223 9.44,4.8121 7.308,22.5141 l 4.659,-0.625 c 2.046,-9.769 11.055,-14.428 17.424,-14.569 7.373,-0.1623 14.797,3.7446 17.912,10.049 l 1.5093,-0.75463 c -3.452,-6.987 -10.507,-11.361 -19.501,-10.962 -3.437,0.1527 -6.906,1.1687 -10.008,3.1377 4.805,-3.6266 10.821,-5.0686 16.165,-4.6469 5.3868,0.42515 10.583,2.5916 14.378,6.3945 3.7943,3.8029 6.2302,9.2587 6.1165,16.443 l 1.6681,0 c 0.12,-7.576 -2.488,-13.521 -6.593,-17.635 -4.105,-4.1141 -9.67,-6.3827 -15.411,-6.8313 -1.4352,-0.11215 -2.8871,-0.12153 -4.3292,0 -3.755,0.3165 -7.422,1.3817 -10.684,3.2171 4.169,-3.0016 9.192,-4.6397 14.378,-4.9647 11.253,-0.7052 22.87,5.3621 27.127,19.184 l 1.5887,-0.47661 c -4.468,-14.506 -16.911,-21.122 -28.835,-20.375 -4.442,0.27837 -8.803,1.5047 -12.67,3.6937 3.791,-2.785 8.088,-4.3457 12.511,-5.0441 10.457,-1.6513 21.56,2.4798 27.603,9.413 l 1.232,-1.1121 c -4.862,-5.5773 -12.559,-9.3575 -20.772,-10.168 -2.7379,-0.27004 -5.5392,-0.19781 -8.3009,0.2383 -3.3779,0.53342 -6.7079,1.6029 -9.8102,3.2965 4.3138,-3.0238 8.8944,-4.3661 12.988,-4.9647 11.185,-1.6357 19.104,2.5419 19.104,2.5419 l 0.75463,-1.549 c 0,0 -4.8738,-2.3555 -11.955,-2.9391 -2.3604,-0.19451 -5.6331,-0.1763 -8.3009,0.15887 -2.876,0.36132 -5.8637,1.12 -8.7775,2.4228 0.76827,-0.44362 1.5357,-0.869 2.3433,-1.271 6.9123,-3.4403 16.443,-3.1774 16.443,-3.1774 l 0.11915,-1.6681 c 0,0 -1.1484,-0.1191 -3.0979,-0.03972 z"
         style="color:#000000;text-indent:0;text-align:start;text-transform:none;direction:ltr;block-progression:tb;baseline-shift:baseline;fill:url(#linearGradient3808);enable-background:accumulate"
         inkscape:connector-curvature="0" />
      <path
         id="path5212"
         d="m 14.06,27.1 c -5.5122,0 -6.6328,1.271 -6.6328,1.271 l 0,3.932 c 0,0 4.1526,-1.1915 5.9179,-1.1915 1.7653,0 3.0582,0.60012 3.0582,1.5887 0,0.98857 -1.8181,1.324 -5.9179,2.5419 -2.4728,0.73456 -4.4483,1.8705 -4.4483,5.4413 0,3.5707 1.952,5.1632 5.3221,5.1632 4.1926,0 5.5207,-2.4228 5.5207,-2.4228 0,0 -0.12359,2.105 0.31774,2.105 l 4.0512,0 0,-13.226 c 0,-3.3701 -1.6766,-5.203 -7.1888,-5.203 z m 2.2639,9.6116 0,2.8994 c 0,0.93619 -1.1632,2.5646 -3.0355,2.5646 -1.8724,0 -2.3774,-0.86811 -2.3774,-2.1447 0,-1.3617 1.6919,-2.1174 2.7745,-2.2866 1.927,-0.30109 2.6384,-1.0326 2.6384,-1.0326 z"
         inkscape:connector-curvature="0"
         style="fill:#ffffff" />
      <path
         id="path5214"
         d="m 23.816,45.543 4.979,0 0,-16.979 c 0,0 -1.5146,1.051 -2.6243,1.1348 -1.4594,0.11019 -2.3547,0.68087 -2.3547,1.078 0,0.31206 4e-6,14.766 0,14.766 z"
         style="color:#000000;fill:#ffffff;fill-rule:nonzero;enable-background:accumulate"
         inkscape:connector-curvature="0" />
      <path
         id="path5216"
         d="m 23.852,27.312 0,-3.1093 c 0,-1.0431 1.324,-2.327 3.2498,-2.327 1.9258,0 2.1665,1.0431 2.1665,2.0461 0,1.003 -0.41575,2.0124 -2.006,2.3069 -1.6249,0.3009 -3.4102,1.0833 -3.4102,1.0833 z"
         style="color:#000000;fill:#ffffff;fill-rule:nonzero;enable-background:accumulate"
         inkscape:connector-curvature="0" />
      <path
         id="path5218"
         d="m 39.894,27.02 c -4.1725,0 -8.8758,2.3109 -8.8758,9.4924 0,7.1816 3.805,9.4936 8.6195,9.4936 4.8145,0 7.2494,-1.6693 7.2494,-1.6693 l 0,-4.0114 c 0,0 -4.1812,1.5835 -6.6492,1.6268 -2.2869,0.04012 -3.4574,-0.49979 -3.4975,-1.9843 -0.04012,-1.4845 2.6673,-1.3567 4.8283,-1.9847 2.347,-0.68205 5.424,-1.2969 5.424,-5.349 0,-4.0522 -2.9261,-5.6141 -7.0986,-5.6141 z m -0.09546,4.1342 c 2.2066,0 2.0216,1.1024 2.0216,1.9048 0,0.80241 -0.35211,1.4005 -2.639,1.8819 -2.2869,0.48144 -3.0971,1.0347 -3.0971,1.0347 0,-3.651 1.6283,-4.8214 3.7146,-4.8214 z"
         style="color:#000000;fill:#ffffff;fill-rule:nonzero;enable-background:accumulate"
         inkscape:connector-curvature="0" />
    </g>
  </g>
  <g
     inkscape:groupmode="layer"
     id="layer3"
     inkscape:label="Text (original)"
     style="display:none">
    <text
       xml:space="preserve"
       style="font-style:normal;font-variant:normal;font-weight:normal;font-stretch:normal;font-size:17.5px;line-height:100%;font-family:Nunito;-inkscape-font-specification:Nunito;letter-spacing:0px;word-spacing:0px;display:inline;opacity:1;fill:#ffffff;fill-opacity:1;stroke:none;stroke-width:1px;stroke-linecap:butt;stroke-linejoin:miter;stroke-opacity:1"
       x="45.744385"
       y="17.174423"
       id="text4145"
       sodipodi:linespacing="100%"><tspan
         sodipodi:role="line"
         id="tspan4147"
         x="45.744385"
         y="17.174423">academy of interactive</tspan><tspan
         sodipodi:role="line"
         x="45.744385"
         y="34.674423"
         id="tspan4149">entertainment</tspan></text>
  </g>
  <g
     style="display:inline"
     inkscape:label="Text (as path)"
     id="g4162"
     inkscape:groupmode="layer">
    <g
       style="font-style:normal;font-variant:normal;font-weight:normal;font-stretch:normal;font-size:17.5px;line-height:100%;font-family:Nunito;-inkscape-font-specification:Nunito;letter-spacing:0px;word-spacing:0px;display:inline;opacity:1;fill:#ffffff;fill-opacity:1;stroke:none;stroke-width:1px;stroke-linecap:butt;stroke-linejoin:miter;stroke-opacity:1"
       id="text4164"
       transform="translate(4.2857143,0)">
      <path
         d="m 51.947998,11.483505 q 0,-0.435791 -0.128174,-0.726318 -0.119629,-0.290527 -0.341797,-0.469971 -0.222168,-0.179443 -0.53833,-0.256347 -0.307617,-0.076905 -0.683593,-0.076905 -0.427247,0 -0.777588,0.05127 -0.350342,0.04272 -0.657959,0.128174 -0.299073,0.08545 -0.563965,0.196533 -0.264893,0.102539 -0.52124,0.222168 -0.128174,0.05127 -0.256348,0.05127 -0.119629,0 -0.230713,-0.04272 -0.102539,-0.05127 -0.187988,-0.128174 -0.0769,-0.08545 -0.128174,-0.187988 -0.04273,-0.111084 -0.04273,-0.222168 0,-0.093994 0.02564,-0.1623539 0.03418,-0.076904 0.09399,-0.1708984 0.410156,-0.6152344 1.273194,-0.8886719 0.863037,-0.2819824 2.08496,-0.2819824 0.743409,0 1.375733,0.1708984 0.640869,0.1708984 1.102295,0.546875 0.461426,0.3674316 0.717773,0.9655762 0.264893,0.5896 0.264893,1.435547 l 0,4.656982 q -0.0085,0.222168 -0.09399,0.384522 -0.07691,0.162353 -0.213623,0.273437 -0.128174,0.111084 -0.299073,0.170899 -0.162353,0.05127 -0.333252,0.05127 -0.162353,0 -0.324707,-0.05127 -0.153808,-0.05127 -0.281982,-0.153809 -0.119629,-0.102539 -0.196533,-0.256348 -0.0769,-0.153808 -0.08545,-0.358886 l 0,-0.640869 q -0.179444,0.307617 -0.478516,0.623779 -0.290527,0.307617 -0.675049,0.52124 -0.375976,0.205078 -0.803223,0.316162 -0.427246,0.102539 -0.863037,0.102539 -0.615234,0 -1.153564,-0.170898 -0.529785,-0.170899 -0.922852,-0.495606 -0.384521,-0.324707 -0.606689,-0.803222 -0.222168,-0.478516 -0.222168,-0.982666 0,-0.786133 0.333252,-1.333008 0.341797,-0.55542 0.965576,-0.897217 0.632324,-0.350342 1.520996,-0.50415 0.888672,-0.153809 1.990967,-0.153809 0.170898,0 0.418701,0.0085 0.256348,0 0.444336,0.0085 l 0,-0.469971 z m -0.0085,1.589356 q -0.06836,0 -0.170898,0.0085 -0.09399,0 -0.205078,0 -0.10254,0 -0.213623,0 -0.10254,0 -0.187989,0 -0.53833,0 -1.07666,0.05981 -0.53833,0.05981 -0.974121,0.239258 -0.427246,0.170898 -0.700684,0.495605 -0.264892,0.316162 -0.264892,0.828858 0,0.256347 0.128174,0.529785 0.128173,0.273437 0.341797,0.452881 0.222167,0.179443 0.52124,0.273437 0.299072,0.08545 0.640869,0.09399 0.452881,-0.0085 0.837402,-0.162353 0.393067,-0.153809 0.683594,-0.452881 0.290527,-0.307617 0.452881,-0.700684 0.170898,-0.393066 0.187988,-0.982666 l 0,-0.683593 z"
         id="path4171"
         inkscape:connector-curvature="0" />
      <path
         d="m 55.673584,12.893417 q 0,-0.854492 0.307617,-1.674804 0.316162,-0.820313 0.880127,-1.4184574 0.57251,-0.6066894 1.358643,-0.9399414 0.786133,-0.3417968 1.734619,-0.3417968 0.461426,0 0.939941,0.085449 0.487061,0.076904 0.880127,0.2392578 0.401612,0.1623535 0.657959,0.4016113 0.256348,0.2392578 0.256348,0.546875 0,0.2648925 -0.170899,0.4785155 -0.170898,0.205078 -0.46997,0.205078 -0.08545,0 -0.187989,-0.02563 -0.444336,-0.179444 -0.871582,-0.281983 -0.427246,-0.111084 -0.828857,-0.111084 -0.53833,0 -0.991211,0.205078 -0.444336,0.205079 -0.769043,0.581055 -0.316162,0.375977 -0.495605,0.922852 -0.170899,0.546875 -0.170899,1.11084 0,0.45288 0.136719,0.982666 0.136719,0.529785 0.427246,0.939941 0.299072,0.410156 0.743408,0.666504 0.452881,0.247803 1.085205,0.247803 0.410157,0 0.897217,-0.111084 0.495606,-0.119629 0.974121,-0.333252 0.102539,-0.02563 0.196533,-0.02563 0.290528,0 0.461426,0.205078 0.170899,0.205078 0.170899,0.469971 0,0.307617 -0.281983,0.55542 -0.273437,0.247802 -0.709228,0.427246 -0.427246,0.179443 -0.957032,0.273437 -0.52124,0.102539 -1.0083,0.102539 -0.948487,0 -1.726075,-0.333252 -0.777587,-0.341797 -1.324462,-0.931396 -0.546875,-0.598145 -0.845948,-1.418457 -0.299072,-0.828858 -0.299072,-1.70044 z"
         id="path4173"
         inkscape:connector-curvature="0" />
      <path
         d="m 69.721436,11.483505 q 0,-0.435791 -0.128174,-0.726318 -0.119629,-0.290527 -0.341797,-0.469971 -0.222168,-0.179443 -0.53833,-0.256347 -0.307617,-0.076905 -0.683594,-0.076905 -0.427246,0 -0.777588,0.05127 -0.350342,0.04272 -0.657959,0.128174 -0.299072,0.08545 -0.563965,0.196533 -0.264892,0.102539 -0.52124,0.222168 -0.128174,0.05127 -0.256348,0.05127 -0.119629,0 -0.230712,-0.04272 -0.10254,-0.05127 -0.187989,-0.128174 -0.0769,-0.08545 -0.128174,-0.187988 -0.04272,-0.111084 -0.04272,-0.222168 0,-0.093994 0.02564,-0.1623539 0.03418,-0.076904 0.09399,-0.1708984 0.410156,-0.6152344 1.273193,-0.8886719 0.863037,-0.2819824 2.084961,-0.2819824 0.743408,0 1.375732,0.1708984 0.64087,0.1708984 1.102295,0.546875 0.461426,0.3674316 0.717774,0.9655762 0.264892,0.5896 0.264892,1.435547 l 0,4.656982 q -0.0085,0.222168 -0.09399,0.384522 -0.0769,0.162353 -0.213623,0.273437 -0.128174,0.111084 -0.299072,0.170899 -0.162354,0.05127 -0.333252,0.05127 -0.162354,0 -0.324707,-0.05127 -0.153809,-0.05127 -0.281983,-0.153809 -0.119628,-0.102539 -0.196533,-0.256348 -0.0769,-0.153808 -0.08545,-0.358886 l 0,-0.640869 q -0.179443,0.307617 -0.478516,0.623779 -0.290527,0.307617 -0.675048,0.52124 -0.375977,0.205078 -0.803223,0.316162 -0.427246,0.102539 -0.863037,0.102539 -0.615235,0 -1.153565,-0.170898 -0.529785,-0.170899 -0.922851,-0.495606 -0.384522,-0.324707 -0.60669,-0.803222 -0.222168,-0.478516 -0.222168,-0.982666 0,-0.786133 0.333252,-1.333008 0.341797,-0.55542 0.965577,-0.897217 0.632324,-0.350342 1.520996,-0.50415 0.888672,-0.153809 1.990966,-0.153809 0.170899,0 0.418702,0.0085 0.256347,0 0.444336,0.0085 l 0,-0.469971 z m -0.0085,1.589356 q -0.06836,0 -0.170899,0.0085 -0.09399,0 -0.205078,0 -0.102539,0 -0.213623,0 -0.102539,0 -0.187988,0 -0.53833,0 -1.07666,0.05981 -0.538331,0.05981 -0.974122,0.239258 -0.427246,0.170898 -0.700683,0.495605 -0.264893,0.316162 -0.264893,0.828858 0,0.256347 0.128174,0.529785 0.128174,0.273437 0.341797,0.452881 0.222168,0.179443 0.52124,0.273437 0.299073,0.08545 0.640869,0.09399 0.452881,-0.0085 0.837403,-0.162353 0.393066,-0.153809 0.683593,-0.452881 0.290528,-0.307617 0.452881,-0.700684 0.170899,-0.393066 0.187989,-0.982666 l 0,-0.683593 z"
         id="path4175"
         inkscape:connector-curvature="0" />
      <path
         d="m 82.000488,16.217392 q 0,0.239258 -0.08545,0.418701 -0.08545,0.179443 -0.222168,0.299072 -0.136719,0.119629 -0.316162,0.179444 -0.170898,0.05981 -0.358887,0.05981 -0.179443,0 -0.358886,-0.05127 -0.179444,-0.05982 -0.324707,-0.170899 -0.136719,-0.119629 -0.230713,-0.290527 -0.09399,-0.170899 -0.111084,-0.393067 l 0,-0.08545 q 0,-0.09399 -0.0085,-0.205078 0,-0.119629 -0.0085,-0.205078 l 0,-0.09399 q -0.563965,0.794678 -1.315918,1.204834 -0.751953,0.410156 -1.66626,0.410156 -0.880127,0 -1.538086,-0.375976 -0.657959,-0.375977 -1.102295,-0.999756 -0.435791,-0.632325 -0.657959,-1.444092 -0.222168,-0.820313 -0.222168,-1.623535 0,-0.837403 0.230713,-1.64917 0.230713,-0.811768 0.675049,-1.4013674 0.452881,-0.5981445 1.119385,-0.9399414 0.666504,-0.3417968 1.538086,-0.3417968 0.435791,0 0.871582,0.1110839 0.435791,0.1025391 0.820312,0.3161622 0.393067,0.2050781 0.717774,0.5212402 0.324707,0.3076172 0.546875,0.6152343 l 0,-4.2468261 q 0,-0.2392578 0.08545,-0.4101563 0.08545,-0.1794433 0.222168,-0.2905273 0.145263,-0.1196289 0.324707,-0.1794434 0.179443,-0.059814 0.367431,-0.059814 0.187989,0 0.367432,0.059814 0.187988,0.059814 0.324707,0.1794434 0.145264,0.111084 0.230713,0.2905273 0.08545,0.1794434 0.08545,0.4101563 l 0,10.3820801 z M 77.710937,9.8514252 q -0.623779,0 -1.04248,0.2563478 -0.410156,0.256347 -0.666504,0.683594 -0.247803,0.427246 -0.358887,0.982666 -0.102539,0.546875 -0.102539,1.051025 0,0.487061 0.08545,1.05957 0.08545,0.563965 0.316162,1.033936 0.230713,0.461426 0.632324,0.760498 0.401611,0.299072 1.033935,0.299072 0.692139,0 1.14502,-0.239258 0.452881,-0.247802 0.717773,-0.675048 0.273438,-0.435792 0.384522,-0.991211 0.111084,-0.55542 0.111084,-1.290284 0,-0.657959 -0.119629,-1.145019 -0.111084,-0.495606 -0.375977,-0.905762 -0.264892,-0.410156 -0.700683,-0.640869 -0.427246,-0.2392578 -1.059571,-0.2392578 z"
         id="path4177"
         inkscape:connector-curvature="0" />
      <path
         d="m 92.237305,12.61998 q 0,0.230713 -0.153809,0.410156 -0.145264,0.170899 -0.452881,0.170899 l -5.819092,0 q 0.07691,1.239013 0.760498,1.922607 0.692139,0.683594 1.820069,0.683594 0.692139,0 1.307373,-0.196533 0.615234,-0.196534 1.256103,-0.521241 0.153809,-0.0769 0.290528,-0.0769 0.230713,0 0.367431,0.170898 0.145264,0.170899 0.145264,0.393067 0,0.09399 -0.03418,0.205078 -0.02563,0.102539 -0.09399,0.196533 -0.273437,0.350342 -0.675049,0.598145 -0.393066,0.247802 -0.854492,0.401611 -0.461426,0.153809 -0.957031,0.222168 -0.487061,0.0769 -0.948486,0.0769 -0.931397,0 -1.73462,-0.307617 -0.803222,-0.307617 -1.401367,-0.888672 -0.589599,-0.589599 -0.931396,-1.444092 -0.333252,-0.863037 -0.333252,-1.777343 0,-0.777588 0.316162,-1.580811 0.316162,-0.803223 0.863037,-1.4013671 0.55542,-0.5981445 1.324463,-0.9741211 0.777588,-0.3845214 1.802978,-0.3845214 1.051026,0 1.811524,0.3332519 0.769043,0.333252 1.273193,0.8886719 0.512696,0.5554198 0.769043,1.3330078 0.264893,0.769043 0.281983,1.546631 z m -1.777344,-0.444336 q -0.03418,-0.410156 -0.196533,-0.871582 -0.162354,-0.461426 -0.461426,-0.786133 -0.290527,-0.333252 -0.717773,-0.495605 -0.418702,-0.1708988 -0.965577,-0.1708988 -0.495605,0 -0.905761,0.1794438 -0.401612,0.179443 -0.700684,0.52124 -0.290527,0.341797 -0.469971,0.794677 -0.179443,0.452881 -0.213623,0.828858 l 4.631348,0 z"
         id="path4179"
         inkscape:connector-curvature="0" />
      <path
         d="m 105.84082,11.765488 q 0,-0.487061 -0.13672,-0.845948 -0.13672,-0.358886 -0.36743,-0.598144 -0.23071,-0.239258 -0.53833,-0.3503419 -0.29907,-0.1196289 -0.62378,-0.1196289 -0.41016,0 -0.80322,0.1281738 -0.38452,0.128174 -0.69214,0.410156 -0.30762,0.281983 -0.49561,0.726319 -0.17944,0.444336 -0.17944,1.085205 l 0,4.007568 q 0,0.239258 -0.0854,0.418701 -0.0854,0.179444 -0.23071,0.307617 -0.13672,0.119629 -0.32471,0.179444 -0.17944,0.05981 -0.36743,0.05981 -0.18799,0 -0.36743,-0.05981 -0.1709,-0.05982 -0.31616,-0.179444 -0.13672,-0.128173 -0.22217,-0.307617 -0.0855,-0.179443 -0.0855,-0.418701 l 0,-4.443359 q 0,-0.487061 -0.145265,-0.845948 -0.136719,-0.358886 -0.367432,-0.598144 -0.230713,-0.239258 -0.53833,-0.3503419 -0.299072,-0.1196289 -0.623779,-0.1196289 -0.444336,0 -0.837402,0.1452636 -0.393067,0.1452642 -0.683594,0.4443362 -0.290527,0.290527 -0.461426,0.675049 -0.170898,0.384521 -0.170898,0.982666 l 0,4.118652 q 0,0.239258 -0.09399,0.418701 -0.08545,0.179443 -0.230713,0.299072 -0.136719,0.119629 -0.324707,0.179444 -0.179444,0.05981 -0.367432,0.05981 -0.187988,0 -0.367432,-0.05981 -0.170898,-0.05982 -0.316162,-0.179444 -0.136719,-0.119629 -0.222168,-0.299072 -0.08545,-0.179443 -0.08545,-0.418701 l 0,-6.6564942 q 0,-0.2307129 0.08545,-0.4101562 0.08545,-0.1794434 0.222168,-0.2905274 0.145264,-0.1196289 0.324707,-0.1794433 0.187989,-0.059814 0.375977,-0.059814 0.179443,0 0.350342,0.059814 0.170898,0.05127 0.307617,0.1623535 0.145263,0.1025391 0.230713,0.2734375 0.08545,0.1623535 0.102539,0.3845215 0,0.00854 0,0.111084 0.0085,0.102539 0.0085,0.2221679 0,0.1196289 0,0.2392577 0,0.111084 0,0.119629 0.162353,-0.3161621 0.461425,-0.649414 0.299073,-0.333252 0.675049,-0.5554199 0.384522,-0.2307129 0.820313,-0.3503418 0.444336,-0.1196289 0.897217,-0.1196289 0.461425,0 0.897216,0.1196289 0.435797,0.1110839 0.794677,0.3503418 0.36743,0.2392578 0.64942,0.6066894 0.28198,0.3674317 0.44433,0.8801265 0.29053,-0.5468745 0.64087,-0.9143062 0.35889,-0.3759765 0.75195,-0.6066894 0.39307,-0.2307129 0.81177,-0.333252 0.42725,-0.102539 0.85449,-0.102539 0.59815,0 1.13648,0.1965332 0.53833,0.1879882 0.94849,0.5895996 0.41015,0.3930664 0.64941,1.0083008 0.23926,0.615234 0.23926,1.469727 l 0,4.434814 q 0,0.239258 -0.094,0.418701 -0.0854,0.179443 -0.23071,0.299072 -0.13672,0.119629 -0.32471,0.179444 -0.17944,0.05981 -0.36743,0.05981 -0.18799,0 -0.36743,-0.05981 -0.1709,-0.05982 -0.31616,-0.179444 -0.13672,-0.119629 -0.22217,-0.299072 -0.0855,-0.179443 -0.0855,-0.418701 l 0,-4.451904 z"
         id="path4181"
         inkscape:connector-curvature="0" />
      <path
         d="m 112.40332,17.080429 -3.13599,-7.2290038 q -0.0427,-0.093994 -0.0598,-0.1794434 -0.0171,-0.093994 -0.0171,-0.1794433 0,-0.1879883 0.0854,-0.3503418 0.0854,-0.1623536 0.22217,-0.2734375 0.14526,-0.119629 0.31616,-0.1794434 0.17944,-0.068359 0.36743,-0.068359 0.26489,0 0.49561,0.1452637 0.23071,0.1367187 0.35888,0.4614258 l 2.31568,5.8874507 2.34985,-5.8959956 q 0.10254,-0.3161622 0.32471,-0.4528809 0.22217,-0.1452637 0.46997,-0.1452637 0.17944,0 0.34179,0.068359 0.1709,0.059814 0.30762,0.1794434 0.13672,0.1110839 0.21363,0.2734375 0.0854,0.1623535 0.0854,0.3588867 0,0.076904 -0.0171,0.1708984 -0.009,0.085449 -0.0427,0.1708984 L 113.2749,20.019882 q -0.12817,0.341797 -0.36743,0.487061 -0.23926,0.153808 -0.51269,0.153808 -0.17945,0 -0.35889,-0.06836 -0.1709,-0.05981 -0.30762,-0.179443 -0.13672,-0.119629 -0.22217,-0.281983 -0.0855,-0.162353 -0.0855,-0.367431 0.009,-0.06836 0.0171,-0.153809 0.009,-0.08545 0.0427,-0.170898 l 0.92285,-2.358399 z"
         id="path4183"
         inkscape:connector-curvature="0" />
      <path
         d="m 123.80225,12.910507 q 0,-0.786133 0.27343,-1.5979 0.27344,-0.820313 0.82886,-1.4355471 0.55542,-0.6237793 1.39282,-0.9912109 0.84595,-0.3674316 1.98243,-0.3674316 1.13647,0 1.97387,0.3674316 0.84595,0.3674316 1.40137,0.9912109 0.56396,0.6152341 0.8374,1.4355471 0.27344,0.811767 0.27344,1.5979 0,0.777588 -0.27344,1.589356 -0.27344,0.803222 -0.8374,1.427002 -0.55542,0.615234 -1.40137,0.982666 -0.8374,0.367431 -1.97387,0.367431 -1.13648,0 -1.98243,-0.367431 -0.8374,-0.367432 -1.39282,-0.982666 -0.55542,-0.62378 -0.82886,-1.427002 -0.27343,-0.811768 -0.27343,-1.589356 z m 2.11059,0 q 0,0.504151 0.12818,1.07666 0.13671,0.563965 0.4187,1.008301 0.29052,0.435791 0.73486,0.700684 0.45288,0.264892 1.08521,0.264892 0.63232,0 1.07666,-0.264892 0.45288,-0.264893 0.73486,-0.700684 0.29053,-0.444336 0.4187,-1.008301 0.13672,-0.572509 0.13672,-1.07666 0,-0.50415 -0.13672,-1.068115 -0.12817,-0.57251 -0.4187,-1.016846 -0.28198,-0.444336 -0.73486,-0.709228 -0.44434,-0.2648928 -1.07666,-0.2648928 -0.63233,0 -1.08521,0.2648928 -0.44434,0.264892 -0.73486,0.709228 -0.28199,0.444336 -0.4187,1.016846 -0.12818,0.563965 -0.12818,1.068115 z"
         id="path4185"
         inkscape:connector-curvature="0" />
      <path
         d="m 137.34595,9.8941498 0,6.2976072 q 0,0.247803 -0.0854,0.435791 -0.0855,0.179444 -0.23071,0.307617 -0.13672,0.119629 -0.32471,0.179444 -0.17945,0.05981 -0.36743,0.05981 -0.18799,0 -0.36744,-0.05981 -0.17944,-0.05982 -0.3247,-0.179444 -0.13672,-0.128173 -0.22217,-0.307617 -0.0855,-0.187988 -0.0855,-0.435791 l 0,-6.2976072 -0.91431,0 q -0.35888,0 -0.53833,-0.1965332 -0.17089,-0.1965332 -0.17089,-0.444336 0,-0.2392578 0.17089,-0.435791 0.17945,-0.1965332 0.53833,-0.1965332 l 0.91431,0 0,-0.7519531 q 0,-0.871582 0.16235,-1.4697266 0.1709,-0.6066894 0.48706,-0.9741211 0.32471,-0.3759765 0.78614,-0.53833 0.46997,-0.1708985 1.07666,-0.1708985 0.35888,0 0.72632,0.05127 0.36743,0.051269 0.71777,0.1452636 0.23926,0.068359 0.35034,0.2478028 0.11109,0.1794433 0.11109,0.3930664 0,0.1281738 -0.0427,0.2478027 -0.0342,0.1196289 -0.11108,0.213623 -0.0684,0.093994 -0.17945,0.1538086 -0.11108,0.05127 -0.25634,0.05127 -0.22217,0 -0.38453,-0.025635 -0.16235,-0.03418 -0.33325,-0.03418 -0.35888,0 -0.58105,0.1025391 -0.21363,0.093994 -0.33325,0.3417969 -0.11109,0.2478027 -0.15381,0.6835937 -0.0342,0.4272461 -0.0342,1.09375 l 0,0.2392578 1.21338,0 q 0.35888,0 0.52978,0.1965332 0.17944,0.1965332 0.17944,0.435791 0,0.2478028 -0.17944,0.444336 -0.1709,0.1965332 -0.52978,0.1965332 l -1.21338,0 z"
         id="path4187"
         inkscape:connector-curvature="0" />
      <path
         d="m 148.26636,5.7840424 q 0,0.4187011 -0.33325,0.6921386 -0.33326,0.2648926 -0.8545,0.2648926 -0.25634,0 -0.47851,-0.068359 -0.21363,-0.076904 -0.37598,-0.2050781 -0.15381,-0.1281738 -0.2478,-0.2990723 -0.0854,-0.1794433 -0.0854,-0.3845214 0,-0.2050782 0.0854,-0.3759766 0.094,-0.1794434 0.2478,-0.3076172 0.16235,-0.1281738 0.38452,-0.1965332 0.22217,-0.076904 0.47852,-0.076904 0.25635,0 0.46997,0.076904 0.22217,0.068359 0.37598,0.1965332 0.1538,0.1281738 0.23925,0.3076172 0.094,0.1708984 0.094,0.3759766 z m -2.1875,3.828125 q 0,-0.2478028 0.0855,-0.4272461 0.0855,-0.1879883 0.22216,-0.3076172 0.14527,-0.1281739 0.32471,-0.1879883 0.18799,-0.068359 0.37598,-0.068359 0.18799,0 0.36743,0.068359 0.17944,0.059814 0.31616,0.1879883 0.14527,0.1196289 0.23071,0.3076172 0.0854,0.1794433 0.0854,0.4272461 l 0,6.5710446 q 0,0.247803 -0.094,0.435791 -0.0855,0.179444 -0.23071,0.307617 -0.13672,0.119629 -0.32471,0.187989 -0.17944,0.05981 -0.36743,0.05981 -0.18799,0 -0.36743,-0.05981 -0.17945,-0.05982 -0.31617,-0.179444 -0.13671,-0.128173 -0.22216,-0.316162 -0.0855,-0.187988 -0.0855,-0.435791 l 0,-6.5710446 z"
         id="path4189"
         inkscape:connector-curvature="0" />
      <path
         d="m 150.44531,9.5608978 q 0,-0.2307129 0.0854,-0.4101562 0.0855,-0.1794434 0.22217,-0.2905274 0.14526,-0.1196289 0.32471,-0.1794433 0.18798,-0.059814 0.37597,-0.059814 0.18799,0 0.35889,0.059814 0.17944,0.05127 0.31616,0.1708984 0.14527,0.111084 0.23071,0.2819824 0.0854,0.1623535 0.094,0.3930664 l 0,0.6665039 q 0.15381,-0.3161621 0.44434,-0.649414 0.29907,-0.333252 0.68359,-0.5554199 0.38452,-0.2307129 0.82886,-0.3503418 0.44433,-0.1196289 0.90576,-0.1196289 0.59814,0 1.13647,0.1879882 0.54688,0.1879883 0.95703,0.5895996 0.4187,0.3930665 0.65796,1.0168458 0.24781,0.615234 0.24781,1.469727 l 0,4.426269 q 0,0.239258 -0.0855,0.418701 -0.0854,0.179444 -0.23072,0.307617 -0.13672,0.119629 -0.3247,0.179444 -0.17945,0.05981 -0.36744,0.05981 -0.18798,0 -0.36743,-0.05981 -0.1709,-0.05982 -0.31616,-0.179444 -0.13672,-0.128173 -0.22217,-0.307617 -0.0854,-0.179443 -0.0854,-0.418701 l 0,-4.443359 q 0,-0.487061 -0.13671,-0.845948 -0.13672,-0.358886 -0.36744,-0.598144 -0.23071,-0.239258 -0.53833,-0.3503419 -0.30761,-0.1196289 -0.64941,-0.1196289 -0.45288,0 -0.84595,0.1452636 -0.39306,0.1452642 -0.69214,0.4443362 -0.29052,0.290527 -0.46142,0.675049 -0.1709,0.384521 -0.1709,0.982666 l 0,4.110107 q 0,0.239258 -0.0855,0.418701 -0.0855,0.179444 -0.23071,0.307617 -0.13672,0.119629 -0.32471,0.179444 -0.17944,0.05981 -0.36743,0.05981 -0.18799,0 -0.36743,-0.05981 -0.17945,-0.05982 -0.32471,-0.179444 -0.13672,-0.128173 -0.22217,-0.307617 -0.0854,-0.179443 -0.0854,-0.418701 l 0,-6.6479492 z"
         id="path4191"
         inkscape:connector-curvature="0" />
      <path
         d="m 161.42554,8.6209564 0.16235,-2.298584 q 0.0171,-0.1879882 0.10254,-0.3332519 0.094,-0.1538086 0.23071,-0.2563477 0.13672,-0.102539 0.29907,-0.1538086 0.16236,-0.05127 0.32471,-0.05127 0.30762,0 0.54688,0.1879883 0.23925,0.1879883 0.23925,0.5895996 l 0,2.3156738 1.30738,0 q 0.35034,0 0.52978,0.222168 0.17945,0.213623 0.17945,0.4699707 0,0.2563476 -0.17945,0.4699707 -0.1709,0.213623 -0.52978,0.213623 l -1.30738,0 0,3.5546877 q 0,0.60669 0.0171,1.025391 0.0256,0.418701 0.11109,0.683594 0.094,0.256347 0.28198,0.375976 0.19653,0.111084 0.53833,0.111084 0.0855,0 0.18799,-0.0085 0.10254,-0.0085 0.20508,-0.01709 0.10254,-0.01709 0.18799,-0.02563 0.094,-0.0085 0.14526,-0.0085 0.32471,0 0.50415,0.213623 0.17944,0.213623 0.17944,0.478515 0,0.273437 -0.1709,0.444336 -0.16235,0.170898 -0.43579,0.273437 -0.26489,0.102539 -0.59814,0.136719 -0.33325,0.04272 -0.67505,0.04272 -0.59814,0 -1.05957,-0.153808 -0.46143,-0.153809 -0.77759,-0.504151 -0.31616,-0.358886 -0.48706,-0.939941 Q 161.323,15.098007 161.323,14.25206 l 0,-4.2553712 -0.82886,0 q -0.35889,0 -0.53833,-0.213623 -0.1709,-0.2136231 -0.1709,-0.4699707 0,-0.2563477 0.17945,-0.4699707 0.17944,-0.222168 0.53833,-0.222168 l 0.92285,0 z"
         id="path4193"
         inkscape:connector-curvature="0" />
      <path
         d="m 175.02051,12.61998 q 0,0.230713 -0.15381,0.410156 -0.14526,0.170899 -0.45288,0.170899 l -5.81909,0 q 0.0769,1.239013 0.76049,1.922607 0.69214,0.683594 1.82007,0.683594 0.69214,0 1.30738,-0.196533 0.61523,-0.196534 1.2561,-0.521241 0.15381,-0.0769 0.29053,-0.0769 0.23071,0 0.36743,0.170898 0.14526,0.170899 0.14526,0.393067 0,0.09399 -0.0342,0.205078 -0.0256,0.102539 -0.094,0.196533 -0.27344,0.350342 -0.67505,0.598145 -0.39307,0.247802 -0.85449,0.401611 -0.46143,0.153809 -0.95703,0.222168 -0.48706,0.0769 -0.94849,0.0769 -0.9314,0 -1.73462,-0.307617 -0.80322,-0.307617 -1.40137,-0.888672 -0.5896,-0.589599 -0.93139,-1.444092 -0.33326,-0.863037 -0.33326,-1.777343 0,-0.777588 0.31617,-1.580811 0.31616,-0.803223 0.86303,-1.4013671 0.55542,-0.5981445 1.32447,-0.9741211 0.77758,-0.3845214 1.80298,-0.3845214 1.05102,0 1.81152,0.3332519 0.76904,0.333252 1.27319,0.8886719 0.5127,0.5554198 0.76905,1.3330078 0.26489,0.769043 0.28198,1.546631 z m -1.77735,-0.444336 q -0.0342,-0.410156 -0.19653,-0.871582 -0.16235,-0.461426 -0.46142,-0.786133 -0.29053,-0.333252 -0.71778,-0.495605 -0.4187,-0.1708988 -0.96557,-0.1708988 -0.49561,0 -0.90577,0.1794438 -0.40161,0.179443 -0.70068,0.52124 -0.29053,0.341797 -0.46997,0.794677 -0.17944,0.452881 -0.21362,0.828858 l 4.63134,0 z"
         id="path4195"
         inkscape:connector-curvature="0" />
      <path
         d="m 176.93457,9.5608978 q 0,-0.2307129 0.0854,-0.4101562 0.094,-0.1794434 0.23071,-0.2905274 0.14527,-0.1196289 0.32471,-0.1794433 0.18799,-0.059814 0.37598,-0.059814 0.17944,0 0.35034,0.059814 0.1709,0.05127 0.30761,0.1623535 0.13672,0.1025391 0.22217,0.2734375 0.094,0.1623535 0.10254,0.3845215 0,0.00854 0,0.111084 0.009,0.102539 0.009,0.2392578 0,0.1281738 0,0.2307128 0,0.102539 0,0.111084 0.19653,-0.7263183 0.75195,-1.196289 0.55542,-0.4785156 1.48682,-0.4785156 0.21362,0 0.37597,0.076904 0.1709,0.068359 0.28199,0.1794433 0.11108,0.111084 0.16235,0.2563477 0.0598,0.1452636 0.0598,0.2990722 0,0.1538086 -0.0598,0.2990723 -0.0513,0.1452637 -0.1709,0.2648926 -0.11108,0.1110845 -0.29053,0.1879885 -0.1709,0.06836 -0.40161,0.06836 -0.4956,0 -0.90576,0.145264 -0.40161,0.145264 -0.69214,0.444336 -0.28198,0.290527 -0.44433,0.675049 -0.15381,0.384521 -0.15381,0.982666 l 0,3.828125 q 0,0.239258 -0.094,0.418701 -0.0855,0.170898 -0.23071,0.290527 -0.13672,0.119629 -0.32471,0.179444 -0.17944,0.05981 -0.36743,0.05981 -0.18799,0 -0.36743,-0.05981 -0.1709,-0.05982 -0.31616,-0.170899 -0.13672,-0.119629 -0.22217,-0.299072 -0.0854,-0.179443 -0.0854,-0.418701 l 0,-6.6650395 z"
         id="path4197"
         inkscape:connector-curvature="0" />
      <path
         d="m 188.49585,11.483505 q 0,-0.435791 -0.12817,-0.726318 -0.11963,-0.290527 -0.3418,-0.469971 -0.22217,-0.179443 -0.53833,-0.256347 -0.30762,-0.076905 -0.68359,-0.076905 -0.42725,0 -0.77759,0.05127 -0.35034,0.04272 -0.65796,0.128174 -0.29907,0.08545 -0.56397,0.196533 -0.26489,0.102539 -0.52124,0.222168 -0.12817,0.05127 -0.25634,0.05127 -0.11963,0 -0.23072,-0.04272 -0.10254,-0.05127 -0.18799,-0.128174 -0.0769,-0.08545 -0.12817,-0.187988 -0.0427,-0.111084 -0.0427,-0.222168 0,-0.093994 0.0256,-0.1623539 0.0342,-0.076904 0.094,-0.1708984 0.41016,-0.6152344 1.2732,-0.8886719 0.86304,-0.2819824 2.08496,-0.2819824 0.74341,0 1.37573,0.1708984 0.64087,0.1708984 1.1023,0.546875 0.46142,0.3674316 0.71777,0.9655762 0.26489,0.5896 0.26489,1.435547 l 0,4.656982 q -0.009,0.222168 -0.094,0.384522 -0.0769,0.162353 -0.21362,0.273437 -0.12818,0.111084 -0.29908,0.170899 -0.16235,0.05127 -0.33325,0.05127 -0.16235,0 -0.32471,-0.05127 -0.1538,-0.05127 -0.28198,-0.153809 -0.11963,-0.102539 -0.19653,-0.256348 -0.0769,-0.153808 -0.0854,-0.358886 l 0,-0.640869 q -0.17944,0.307617 -0.47852,0.623779 -0.29052,0.307617 -0.67505,0.52124 -0.37597,0.205078 -0.80322,0.316162 -0.42724,0.102539 -0.86304,0.102539 -0.61523,0 -1.15356,-0.170898 -0.52978,-0.170899 -0.92285,-0.495606 -0.38452,-0.324707 -0.60669,-0.803222 -0.22217,-0.478516 -0.22217,-0.982666 0,-0.786133 0.33325,-1.333008 0.3418,-0.55542 0.96558,-0.897217 0.63232,-0.350342 1.521,-0.50415 0.88867,-0.153809 1.99096,-0.153809 0.1709,0 0.4187,0.0085 0.25635,0 0.44434,0.0085 l 0,-0.469971 z m -0.009,1.589356 q -0.0684,0 -0.17089,0.0085 -0.094,0 -0.20508,0 -0.10254,0 -0.21362,0 -0.10254,0 -0.18799,0 -0.53833,0 -1.07666,0.05981 -0.53833,0.05981 -0.97412,0.239258 -0.42725,0.170898 -0.70069,0.495605 -0.26489,0.316162 -0.26489,0.828858 0,0.256347 0.12817,0.529785 0.12818,0.273437 0.3418,0.452881 0.22217,0.179443 0.52124,0.273437 0.29907,0.08545 0.64087,0.09399 0.45288,-0.0085 0.8374,-0.162353 0.39307,-0.153809 0.6836,-0.452881 0.29052,-0.307617 0.45288,-0.700684 0.17089,-0.393066 0.18798,-0.982666 l 0,-0.683593 z"
         id="path4199"
         inkscape:connector-curvature="0" />
      <path
         d="m 192.22144,12.893417 q 0,-0.854492 0.30761,-1.674804 0.31616,-0.820313 0.88013,-1.4184574 0.57251,-0.6066894 1.35864,-0.9399414 0.78614,-0.3417968 1.73462,-0.3417968 0.46143,0 0.93994,0.085449 0.48706,0.076904 0.88013,0.2392578 0.40161,0.1623535 0.65796,0.4016113 0.25635,0.2392578 0.25635,0.546875 0,0.2648925 -0.1709,0.4785155 -0.1709,0.205078 -0.46997,0.205078 -0.0854,0 -0.18799,-0.02563 -0.44434,-0.179444 -0.87158,-0.281983 -0.42725,-0.111084 -0.82886,-0.111084 -0.53833,0 -0.99121,0.205078 -0.44434,0.205079 -0.76904,0.581055 -0.31617,0.375977 -0.49561,0.922852 -0.1709,0.546875 -0.1709,1.11084 0,0.45288 0.13672,0.982666 0.13672,0.529785 0.42725,0.939941 0.29907,0.410156 0.7434,0.666504 0.45289,0.247803 1.08521,0.247803 0.41016,0 0.89722,-0.111084 0.4956,-0.119629 0.97412,-0.333252 0.10254,-0.02563 0.19653,-0.02563 0.29053,0 0.46143,0.205078 0.1709,0.205078 0.1709,0.469971 0,0.307617 -0.28199,0.55542 -0.27343,0.247802 -0.70923,0.427246 -0.42724,0.179443 -0.95703,0.273437 -0.52124,0.102539 -1.0083,0.102539 -0.94848,0 -1.72607,-0.333252 -0.77759,-0.341797 -1.32446,-0.931396 -0.54688,-0.598145 -0.84595,-1.418457 -0.29907,-0.828858 -0.29907,-1.70044 z"
         id="path4201"
         inkscape:connector-curvature="0" />
      <path
         d="m 201.99683,8.6209564 0.16235,-2.298584 q 0.0171,-0.1879882 0.10254,-0.3332519 0.094,-0.1538086 0.23071,-0.2563477 0.13672,-0.102539 0.29907,-0.1538086 0.16236,-0.05127 0.32471,-0.05127 0.30762,0 0.54688,0.1879883 0.23925,0.1879883 0.23925,0.5895996 l 0,2.3156738 1.30738,0 q 0.35034,0 0.52978,0.222168 0.17945,0.213623 0.17945,0.4699707 0,0.2563476 -0.17945,0.4699707 -0.1709,0.213623 -0.52978,0.213623 l -1.30738,0 0,3.5546877 q 0,0.60669 0.0171,1.025391 0.0256,0.418701 0.11109,0.683594 0.094,0.256347 0.28198,0.375976 0.19653,0.111084 0.53833,0.111084 0.0855,0 0.18799,-0.0085 0.10254,-0.0085 0.20508,-0.01709 0.10254,-0.01709 0.18798,-0.02563 0.094,-0.0085 0.14527,-0.0085 0.32471,0 0.50415,0.213623 0.17944,0.213623 0.17944,0.478515 0,0.273437 -0.1709,0.444336 -0.16235,0.170898 -0.43579,0.273437 -0.26489,0.102539 -0.59814,0.136719 -0.33325,0.04272 -0.67505,0.04272 -0.59815,0 -1.05957,-0.153808 -0.46143,-0.153809 -0.77759,-0.504151 -0.31616,-0.358886 -0.48706,-0.939941 -0.16235,-0.581055 -0.16235,-1.427002 l 0,-4.2553707 -0.82886,0 q -0.35889,0 -0.53833,-0.213623 -0.1709,-0.2136231 -0.1709,-0.4699707 0,-0.2563477 0.17944,-0.4699707 0.17945,-0.222168 0.53833,-0.222168 l 0.92286,0 z"
         id="path4203"
         inkscape:connector-curvature="0" />
      <path
         d="m 209.78979,5.7840424 q 0,0.4187011 -0.33325,0.6921386 -0.33325,0.2648926 -0.85449,0.2648926 -0.25635,0 -0.47851,-0.068359 -0.21363,-0.076904 -0.37598,-0.2050781 -0.15381,-0.1281738 -0.2478,-0.2990723 -0.0855,-0.1794433 -0.0855,-0.3845214 0,-0.2050782 0.0855,-0.3759766 0.094,-0.1794434 0.2478,-0.3076172 0.16235,-0.1281738 0.38452,-0.1965332 0.22217,-0.076904 0.47852,-0.076904 0.25634,0 0.46997,0.076904 0.22216,0.068359 0.37597,0.1965332 0.15381,0.1281738 0.23926,0.3076172 0.094,0.1708984 0.094,0.3759766 z m -2.1875,3.828125 q 0,-0.2478028 0.0854,-0.4272461 0.0855,-0.1879883 0.22217,-0.3076172 0.14527,-0.1281739 0.32471,-0.1879883 0.18799,-0.068359 0.37598,-0.068359 0.18798,0 0.36743,0.068359 0.17944,0.059814 0.31616,0.1879883 0.14526,0.1196289 0.23071,0.3076172 0.0855,0.1794433 0.0855,0.4272461 l 0,6.5710446 q 0,0.247803 -0.094,0.435791 -0.0854,0.179444 -0.23072,0.307617 -0.13671,0.119629 -0.3247,0.187989 -0.17945,0.05981 -0.36743,0.05981 -0.18799,0 -0.36744,-0.05981 -0.17944,-0.05982 -0.31616,-0.179444 -0.13672,-0.128173 -0.22217,-0.316162 -0.0854,-0.187988 -0.0854,-0.435791 l 0,-6.5710446 z"
         id="path4205"
         inkscape:connector-curvature="0" />
      <path
         d="m 217.10425,15.738876 q -0.14527,0.375977 -0.30762,0.649414 -0.16235,0.264893 -0.36743,0.444336 -0.20508,0.170899 -0.46143,0.256348 -0.2478,0.08545 -0.57251,0.08545 -0.3247,0 -0.57251,-0.08545 -0.2478,-0.08545 -0.45288,-0.256348 -0.19653,-0.179443 -0.35888,-0.444336 -0.16236,-0.273437 -0.31617,-0.649414 l -2.37548,-5.9216305 q -0.0598,-0.1452637 -0.0598,-0.324707 0,-0.1965333 0.0854,-0.3588868 0.0855,-0.1623535 0.22217,-0.2734375 0.14526,-0.1196289 0.32471,-0.1794433 0.17944,-0.059814 0.36743,-0.059814 0.28198,0 0.51269,0.1623535 0.23072,0.1623536 0.36743,0.5126953 l 2.25586,5.9130863 2.17896,-5.9045413 q 0.12817,-0.3588867 0.36743,-0.5212403 0.23926,-0.1623535 0.52979,-0.1623535 0.17944,0 0.35888,0.059814 0.17945,0.059814 0.31616,0.1794433 0.14527,0.111084 0.23072,0.2734375 0.0855,0.1623535 0.0855,0.3588868 -0.009,0.076904 -0.0171,0.1623535 -0.009,0.085449 -0.0427,0.1708984 l -2.29858,5.9130856 z"
         id="path4207"
         inkscape:connector-curvature="0" />
      <path
         d="m 228.87061,12.61998 q 0,0.230713 -0.15381,0.410156 -0.14527,0.170899 -0.45288,0.170899 l -5.8191,0 q 0.0769,1.239013 0.7605,1.922607 0.69214,0.683594 1.82007,0.683594 0.69214,0 1.30737,-0.196533 0.61524,-0.196534 1.25611,-0.521241 0.15381,-0.0769 0.29052,-0.0769 0.23072,0 0.36744,0.170898 0.14526,0.170899 0.14526,0.393067 0,0.09399 -0.0342,0.205078 -0.0256,0.102539 -0.094,0.196533 -0.27344,0.350342 -0.67505,0.598145 -0.39307,0.247802 -0.8545,0.401611 -0.46142,0.153809 -0.95703,0.222168 -0.48706,0.0769 -0.94848,0.0769 -0.9314,0 -1.73462,-0.307617 -0.80322,-0.307617 -1.40137,-0.888672 -0.5896,-0.589599 -0.9314,-1.444092 -0.33325,-0.863037 -0.33325,-1.777343 0,-0.777588 0.31616,-1.580811 0.31617,-0.803223 0.86304,-1.4013671 0.55542,-0.5981445 1.32446,-0.9741211 0.77759,-0.3845214 1.80298,-0.3845214 1.05103,0 1.81153,0.3332519 0.76904,0.333252 1.27319,0.8886719 0.5127,0.5554198 0.76904,1.3330078 0.2649,0.769043 0.28199,1.546631 z m -1.77735,-0.444336 q -0.0342,-0.410156 -0.19653,-0.871582 -0.16236,-0.461426 -0.46143,-0.786133 -0.29052,-0.333252 -0.71777,-0.495605 -0.4187,-0.1708988 -0.96558,-0.1708988 -0.4956,0 -0.90576,0.1794438 -0.40161,0.179443 -0.70068,0.52124 -0.29053,0.341797 -0.46997,0.794677 -0.17945,0.452881 -0.21363,0.828858 l 4.63135,0 z"
         id="path4209"
         inkscape:connector-curvature="0" />
      <path
         d="m 54.913086,30.11998 q 0,0.230713 -0.153809,0.410156 -0.145263,0.170899 -0.452881,0.170899 l -5.819091,0 q 0.0769,1.239013 0.760498,1.922607 0.692138,0.683594 1.820068,0.683594 0.692139,0 1.307373,-0.196533 0.615235,-0.196534 1.256104,-0.521241 0.153808,-0.0769 0.290527,-0.0769 0.230713,0 0.367432,0.170898 0.145263,0.170899 0.145263,0.393067 0,0.09399 -0.03418,0.205078 -0.02564,0.102539 -0.09399,0.196533 -0.273437,0.350342 -0.675048,0.598145 -0.393067,0.247802 -0.854493,0.401611 -0.461425,0.153809 -0.957031,0.222168 -0.48706,0.0769 -0.948486,0.0769 -0.931397,0 -1.734619,-0.307617 -0.803223,-0.307617 -1.401367,-0.888672 -0.5896,-0.589599 -0.931397,-1.444092 -0.333252,-0.863037 -0.333252,-1.777343 0,-0.777588 0.316162,-1.580811 0.316162,-0.803223 0.863037,-1.401367 0.55542,-0.598145 1.324463,-0.974121 0.777588,-0.384522 1.802979,-0.384522 1.051025,0 1.811523,0.333252 0.769043,0.333252 1.273194,0.888672 0.512695,0.55542 0.769043,1.333008 0.264892,0.769043 0.281982,1.546631 z m -1.777344,-0.444336 q -0.03418,-0.410156 -0.196533,-0.871582 -0.162354,-0.461426 -0.461426,-0.786133 -0.290527,-0.333252 -0.717773,-0.495605 -0.418701,-0.170899 -0.965576,-0.170899 -0.495606,0 -0.905762,0.179444 -0.401611,0.179443 -0.700684,0.52124 -0.290527,0.341797 -0.46997,0.794677 -0.179444,0.452881 -0.213623,0.828858 l 4.631347,0 z"
         id="path4211"
         inkscape:connector-curvature="0" />
      <path
         d="m 56.827148,27.060898 q 0,-0.230713 0.08545,-0.410156 0.08545,-0.179444 0.222168,-0.290528 0.145263,-0.119629 0.324707,-0.179443 0.187988,-0.05982 0.375976,-0.05982 0.187988,0 0.358887,0.05982 0.179443,0.05127 0.316162,0.170898 0.145264,0.111084 0.230713,0.281983 0.08545,0.162353 0.09399,0.393066 l 0,0.666504 q 0.153809,-0.316162 0.444336,-0.649414 0.299072,-0.333252 0.683594,-0.55542 0.384521,-0.230713 0.828857,-0.350342 0.444336,-0.119629 0.905762,-0.119629 0.598144,0 1.136475,0.187989 0.546875,0.187988 0.957031,0.589599 0.418701,0.393067 0.657959,1.016846 0.247802,0.615234 0.247802,1.469727 l 0,4.426269 q 0,0.239258 -0.08545,0.418701 -0.08545,0.179444 -0.230713,0.307617 -0.136718,0.119629 -0.324707,0.179444 -0.179443,0.05981 -0.367431,0.05981 -0.187989,0 -0.367432,-0.05981 -0.170898,-0.05982 -0.316162,-0.179444 -0.136719,-0.128173 -0.222168,-0.307617 -0.08545,-0.179443 -0.08545,-0.418701 l 0,-4.443359 q 0,-0.487061 -0.136719,-0.845948 -0.136719,-0.358886 -0.367432,-0.598144 -0.230713,-0.239258 -0.53833,-0.350342 -0.307617,-0.119629 -0.649414,-0.119629 -0.452881,0 -0.845947,0.145264 -0.393066,0.145264 -0.692139,0.444336 -0.290527,0.290527 -0.461425,0.675049 -0.170899,0.384521 -0.170899,0.982666 l 0,4.110107 q 0,0.239258 -0.08545,0.418701 -0.08545,0.179444 -0.230713,0.307617 -0.136719,0.119629 -0.324707,0.179444 -0.179443,0.05981 -0.367432,0.05981 -0.187988,0 -0.367431,-0.05981 -0.179444,-0.05982 -0.324707,-0.179444 -0.136719,-0.128173 -0.222168,-0.307617 -0.08545,-0.179443 -0.08545,-0.418701 l 0,-6.647949 z"
         id="path4213"
         inkscape:connector-curvature="0" />
      <path
         d="m 67.807373,26.120956 0.162354,-2.298584 q 0.01709,-0.187988 0.102539,-0.333252 0.09399,-0.153808 0.230713,-0.256347 0.136718,-0.102539 0.299072,-0.153809 0.162353,-0.05127 0.324707,-0.05127 0.307617,0 0.546875,0.187988 0.239258,0.187988 0.239258,0.5896 l 0,2.315673 1.307373,0 q 0.350341,0 0.529785,0.222168 0.179443,0.213623 0.179443,0.469971 0,0.256348 -0.179443,0.469971 -0.170899,0.213623 -0.529785,0.213623 l -1.307373,0 0,3.554687 q 0,0.60669 0.01709,1.025391 0.02564,0.418701 0.111084,0.683594 0.09399,0.256347 0.281983,0.375976 0.196533,0.111084 0.53833,0.111084 0.08545,0 0.187988,-0.0085 0.102539,-0.0085 0.205078,-0.01709 0.102539,-0.01709 0.187989,-0.02563 0.09399,-0.0085 0.145263,-0.0085 0.324707,0 0.504151,0.213623 0.179443,0.213623 0.179443,0.478515 0,0.273438 -0.170898,0.444336 -0.162354,0.170899 -0.435791,0.273438 -0.264893,0.102539 -0.598145,0.136719 -0.333252,0.04272 -0.675049,0.04272 -0.598144,0 -1.05957,-0.153808 -0.461426,-0.153809 -0.777588,-0.504151 -0.316162,-0.358886 -0.487061,-0.939941 -0.162353,-0.581055 -0.162353,-1.427002 l 0,-4.255371 -0.828857,0 q -0.358887,0 -0.538331,-0.213623 -0.170898,-0.213623 -0.170898,-0.469971 0,-0.256348 0.179443,-0.469971 0.179444,-0.222168 0.53833,-0.222168 l 0.922852,0 z"
         id="path4215"
         inkscape:connector-curvature="0" />
      <path
         d="m 81.402344,30.11998 q 0,0.230713 -0.153809,0.410156 -0.145264,0.170899 -0.452881,0.170899 l -5.819092,0 q 0.0769,1.239013 0.760499,1.922607 0.692138,0.683594 1.820068,0.683594 0.692139,0 1.307373,-0.196533 0.615234,-0.196534 1.256103,-0.521241 0.153809,-0.0769 0.290528,-0.0769 0.230713,0 0.367431,0.170898 0.145264,0.170899 0.145264,0.393067 0,0.09399 -0.03418,0.205078 -0.02563,0.102539 -0.09399,0.196533 -0.273437,0.350342 -0.675049,0.598145 -0.393066,0.247802 -0.854492,0.401611 -0.461426,0.153809 -0.957031,0.222168 -0.487061,0.0769 -0.948486,0.0769 -0.931397,0 -1.734619,-0.307617 -0.803223,-0.307617 -1.401368,-0.888672 -0.589599,-0.589599 -0.931396,-1.444092 -0.333252,-0.863037 -0.333252,-1.777343 0,-0.777588 0.316162,-1.580811 0.316162,-0.803223 0.863037,-1.401367 0.55542,-0.598145 1.324463,-0.974121 0.777588,-0.384522 1.802979,-0.384522 1.051025,0 1.811523,0.333252 0.769043,0.333252 1.273193,0.888672 0.512696,0.55542 0.769043,1.333008 0.264893,0.769043 0.281983,1.546631 z M 79.625,29.675644 q -0.03418,-0.410156 -0.196533,-0.871582 -0.162354,-0.461426 -0.461426,-0.786133 -0.290527,-0.333252 -0.717773,-0.495605 -0.418702,-0.170899 -0.965577,-0.170899 -0.495605,0 -0.905761,0.179444 -0.401612,0.179443 -0.700684,0.52124 -0.290527,0.341797 -0.469971,0.794677 -0.179443,0.452881 -0.213623,0.828858 l 4.631348,0 z"
         id="path4217"
         inkscape:connector-curvature="0" />
      <path
         d="m 83.316406,27.060898 q 0,-0.230713 0.08545,-0.410156 0.094,-0.179444 0.230713,-0.290528 0.145264,-0.119629 0.324707,-0.179443 0.187989,-0.05982 0.375977,-0.05982 0.179443,0 0.350342,0.05982 0.170898,0.05127 0.307617,0.162353 0.136719,0.102539 0.222168,0.273438 0.09399,0.162353 0.102539,0.384521 0,0.0085 0,0.111084 0.0085,0.102539 0.0085,0.239258 0,0.128174 0,0.230713 0,0.102539 0,0.111084 0.196533,-0.726318 0.751953,-1.196289 0.55542,-0.478516 1.486816,-0.478516 0.213623,0 0.375977,0.07691 0.170898,0.06836 0.281982,0.179443 0.111084,0.111084 0.162354,0.256348 0.05981,0.145263 0.05981,0.299072 0,0.153809 -0.05981,0.299072 -0.05127,0.145264 -0.170899,0.264893 -0.111084,0.111084 -0.290527,0.187988 -0.170898,0.06836 -0.401611,0.06836 -0.495606,0 -0.905762,0.145264 -0.401611,0.145264 -0.692139,0.444336 -0.281982,0.290527 -0.444336,0.675049 -0.153808,0.384521 -0.153808,0.982666 l 0,3.828125 q 0,0.239258 -0.09399,0.418701 -0.08545,0.170898 -0.230713,0.290527 -0.136719,0.119629 -0.324707,0.179444 -0.179444,0.05981 -0.367432,0.05981 -0.187988,0 -0.367431,-0.05981 -0.170899,-0.05982 -0.316163,-0.170899 -0.136718,-0.119629 -0.222168,-0.299072 -0.08545,-0.179443 -0.08545,-0.418701 l 0,-6.665039 z"
         id="path4219"
         inkscape:connector-curvature="0" />
      <path
         d="m 90.605225,26.120956 0.162353,-2.298584 q 0.01709,-0.187988 0.102539,-0.333252 0.09399,-0.153808 0.230713,-0.256347 0.136719,-0.102539 0.299072,-0.153809 0.162354,-0.05127 0.324707,-0.05127 0.307618,0 0.546875,0.187988 0.239258,0.187988 0.239258,0.5896 l 0,2.315673 1.307373,0 q 0.350342,0 0.529785,0.222168 0.179444,0.213623 0.179444,0.469971 0,0.256348 -0.179444,0.469971 -0.170898,0.213623 -0.529785,0.213623 l -1.307373,0 0,3.554687 q 0,0.60669 0.01709,1.025391 0.02563,0.418701 0.111084,0.683594 0.09399,0.256347 0.281982,0.375976 0.196534,0.111084 0.538331,0.111084 0.08545,0 0.187988,-0.0085 0.102539,-0.0085 0.205078,-0.01709 0.102539,-0.01709 0.187988,-0.02563 0.09399,-0.0085 0.145264,-0.0085 0.324707,0 0.50415,0.213623 0.179444,0.213623 0.179444,0.478515 0,0.273438 -0.170899,0.444336 -0.162353,0.170899 -0.435791,0.273438 -0.264892,0.102539 -0.598144,0.136719 -0.333252,0.04272 -0.675049,0.04272 -0.598145,0 -1.059571,-0.153808 -0.461425,-0.153898 -0.777587,-0.50424 -0.316163,-0.358886 -0.487061,-0.939941 -0.162353,-0.581055 -0.162353,-1.427002 l 0,-4.255371 -0.828858,0 q -0.358887,0 -0.53833,-0.213623 -0.170898,-0.213623 -0.170898,-0.469971 0,-0.256348 0.179443,-0.469971 0.179443,-0.222168 0.53833,-0.222168 l 0.922852,0 z"
         id="path4221"
         inkscape:connector-curvature="0" />
      <path
         d="m 101.49146,28.983505 q 0,-0.435791 -0.12818,-0.726318 -0.11963,-0.290527 -0.3418,-0.469971 -0.22216,-0.179443 -0.53833,-0.256347 -0.30761,-0.07691 -0.683589,-0.07691 -0.427247,0 -0.777588,0.05127 -0.350342,0.04272 -0.657959,0.128174 -0.299073,0.08545 -0.563965,0.196533 -0.264893,0.102539 -0.52124,0.222168 -0.128174,0.05127 -0.256348,0.05127 -0.119629,0 -0.230713,-0.04272 -0.102539,-0.05127 -0.187988,-0.128174 -0.0769,-0.08545 -0.128174,-0.187988 -0.04273,-0.111084 -0.04273,-0.222168 0,-0.09399 0.02563,-0.162354 0.03418,-0.0769 0.09399,-0.170898 0.410156,-0.615235 1.273194,-0.888672 0.863037,-0.281983 2.084961,-0.281983 0.743409,0 1.375739,0.170899 0.64087,0.170898 1.10229,0.546875 0.46143,0.367431 0.71778,0.965576 0.26489,0.5896 0.26489,1.435547 l 0,4.656982 q -0.009,0.222168 -0.094,0.384522 -0.0769,0.162353 -0.21362,0.273437 -0.12817,0.111084 -0.29907,0.170899 -0.16236,0.05127 -0.33325,0.05127 -0.16236,0 -0.32471,-0.05127 -0.15381,-0.05127 -0.28198,-0.153809 -0.11963,-0.102539 -0.19654,-0.256348 -0.0769,-0.153808 -0.0854,-0.358886 l 0,-0.640869 q -0.17944,0.307617 -0.47851,0.623779 -0.29053,0.307617 -0.67505,0.52124 -0.37598,0.205078 -0.803227,0.316162 -0.427246,0.102539 -0.863037,0.102539 -0.615234,0 -1.153564,-0.170898 -0.529785,-0.170899 -0.922852,-0.495606 -0.384521,-0.324707 -0.606689,-0.803222 -0.222168,-0.478516 -0.222168,-0.982666 0,-0.786133 0.333252,-1.333008 0.341797,-0.55542 0.965576,-0.897217 0.632324,-0.350342 1.520996,-0.50415 0.888672,-0.153809 1.990973,-0.153809 0.1709,0 0.4187,0.0085 0.25635,0 0.44434,0.0085 l 0,-0.469971 z m -0.009,1.589356 q -0.0684,0 -0.1709,0.0085 -0.094,0 -0.20508,0 -0.10254,0 -0.21362,0 -0.10254,0 -0.18799,0 -0.53833,0 -1.076658,0.05981 -0.53833,0.05982 -0.974121,0.239258 -0.427246,0.170898 -0.700684,0.495605 -0.264892,0.316162 -0.264892,0.828858 0,0.256347 0.128174,0.529785 0.128173,0.273437 0.341797,0.452881 0.222168,0.179443 0.52124,0.273437 0.299072,0.08545 0.640869,0.09399 0.452881,-0.0085 0.837405,-0.162353 0.39306,-0.153809 0.68359,-0.452881 0.29053,-0.307617 0.45288,-0.700684 0.1709,-0.393066 0.18799,-0.982666 l 0,-0.683593 z"
         id="path4223"
         inkscape:connector-curvature="0" />
      <path
         d="m 107.90015,23.284042 q 0,0.418702 -0.33326,0.692139 -0.33325,0.264893 -0.85449,0.264893 -0.25635,0 -0.47851,-0.06836 -0.21363,-0.0769 -0.37598,-0.205078 -0.15381,-0.128174 -0.2478,-0.299072 -0.0855,-0.179444 -0.0855,-0.384522 0,-0.205078 0.0855,-0.375976 0.094,-0.179444 0.2478,-0.307617 0.16235,-0.128174 0.38452,-0.196534 0.22217,-0.0769 0.47852,-0.0769 0.25634,0 0.46997,0.0769 0.22217,0.06836 0.37597,0.196534 0.15381,0.128173 0.23926,0.307617 0.094,0.170898 0.094,0.375976 z m -2.1875,3.828125 q 0,-0.247802 0.0855,-0.427246 0.0854,-0.187988 0.22216,-0.307617 0.14527,-0.128174 0.32471,-0.187988 0.18799,-0.06836 0.37598,-0.06836 0.18799,0 0.36743,0.06836 0.17944,0.05981 0.31616,0.187988 0.14526,0.119629 0.23071,0.307617 0.0854,0.179444 0.0854,0.427246 l 0,6.571045 q 0,0.247803 -0.094,0.435791 -0.0855,0.179444 -0.23071,0.307617 -0.13672,0.119629 -0.32471,0.187989 -0.17944,0.05981 -0.36743,0.05981 -0.18799,0 -0.36743,-0.05981 -0.17945,-0.05982 -0.31617,-0.179444 -0.13672,-0.128173 -0.22216,-0.316162 -0.0855,-0.187988 -0.0855,-0.435791 l 0,-6.571045 z"
         id="path4225"
         inkscape:connector-curvature="0" />
      <path
         d="m 110.0791,27.060898 q 0,-0.230713 0.0855,-0.410156 0.0854,-0.179444 0.22217,-0.290528 0.14526,-0.119629 0.32471,-0.179443 0.18798,-0.05982 0.37597,-0.05982 0.18799,0 0.35889,0.05982 0.17944,0.05127 0.31616,0.170898 0.14526,0.111084 0.23071,0.281983 0.0854,0.162353 0.094,0.393066 l 0,0.666504 q 0.15381,-0.316162 0.44433,-0.649414 0.29908,-0.333252 0.6836,-0.55542 0.38452,-0.230713 0.82886,-0.350342 0.44433,-0.119629 0.90576,-0.119629 0.59814,0 1.13647,0.187989 0.54688,0.187988 0.95703,0.589599 0.4187,0.393067 0.65796,1.016846 0.2478,0.615234 0.2478,1.469727 l 0,4.426269 q 0,0.239258 -0.0854,0.418701 -0.0854,0.179444 -0.23072,0.307617 -0.13672,0.119629 -0.3247,0.179444 -0.17945,0.05981 -0.36744,0.05981 -0.18798,0 -0.36743,-0.05981 -0.1709,-0.05982 -0.31616,-0.179444 -0.13672,-0.128173 -0.22217,-0.307617 -0.0854,-0.179443 -0.0854,-0.418701 l 0,-4.443359 q 0,-0.487061 -0.13672,-0.845948 -0.13671,-0.358886 -0.36743,-0.598144 -0.23071,-0.239258 -0.53833,-0.350342 -0.30761,-0.119629 -0.64941,-0.119629 -0.45288,0 -0.84595,0.145264 -0.39307,0.145264 -0.69214,0.444336 -0.29052,0.290527 -0.46142,0.675049 -0.1709,0.384521 -0.1709,0.982666 l 0,4.110107 q 0,0.239258 -0.0854,0.418701 -0.0855,0.179444 -0.23071,0.307617 -0.13672,0.119629 -0.32471,0.179444 -0.17944,0.05981 -0.36743,0.05981 -0.18799,0 -0.36743,-0.05981 -0.17945,-0.05982 -0.32471,-0.179444 -0.13672,-0.128173 -0.22217,-0.307617 -0.0855,-0.179443 -0.0855,-0.418701 l 0,-6.647949 z"
         id="path4227"
         inkscape:connector-curvature="0" />
      <path
         d="m 131.98828,29.265488 q 0,-0.487061 -0.13672,-0.845948 -0.13672,-0.358886 -0.36743,-0.598144 -0.23071,-0.239258 -0.53833,-0.350342 -0.29907,-0.119629 -0.62378,-0.119629 -0.41015,0 -0.80322,0.128174 -0.38452,0.128174 -0.69214,0.410156 -0.30762,0.281983 -0.49561,0.726319 -0.17944,0.444336 -0.17944,1.085205 l 0,4.007568 q 0,0.239258 -0.0855,0.418701 -0.0854,0.179444 -0.23071,0.307617 -0.13672,0.119629 -0.32471,0.179444 -0.17944,0.05981 -0.36743,0.05981 -0.18799,0 -0.36743,-0.05981 -0.1709,-0.05982 -0.31616,-0.179444 -0.13672,-0.128173 -0.22217,-0.307617 -0.0854,-0.179443 -0.0854,-0.418701 l 0,-4.443359 q 0,-0.487061 -0.14526,-0.845948 -0.13672,-0.358886 -0.36744,-0.598144 -0.23071,-0.239258 -0.53833,-0.350342 -0.29907,-0.119629 -0.62378,-0.119629 -0.44433,0 -0.8374,0.145264 -0.39306,0.145264 -0.68359,0.444336 -0.29053,0.290527 -0.46143,0.675049 -0.1709,0.384521 -0.1709,0.982666 l 0,4.118652 q 0,0.239258 -0.094,0.418701 -0.0854,0.179443 -0.23071,0.299072 -0.13672,0.119629 -0.32471,0.179444 -0.17944,0.05981 -0.36743,0.05981 -0.18799,0 -0.36743,-0.05981 -0.1709,-0.05982 -0.31616,-0.179444 -0.13672,-0.119629 -0.22217,-0.299072 -0.0854,-0.179443 -0.0854,-0.418701 l 0,-6.656494 q 0,-0.230713 0.0854,-0.410156 0.0854,-0.179444 0.22217,-0.290528 0.14526,-0.119629 0.3247,-0.179443 0.18799,-0.05982 0.37598,-0.05982 0.17944,0 0.35034,0.05982 0.1709,0.05127 0.30762,0.162353 0.14526,0.102539 0.23071,0.273438 0.0854,0.162353 0.10254,0.384521 0,0.0085 0,0.111084 0.009,0.102539 0.009,0.222168 0,0.119629 0,0.239258 0,0.111084 0,0.119629 0.16236,-0.316162 0.46143,-0.649414 0.29907,-0.333252 0.67505,-0.55542 0.38452,-0.230713 0.82031,-0.350342 0.44434,-0.119629 0.89722,-0.119629 0.46142,0 0.89722,0.119629 0.43579,0.111084 0.79467,0.350342 0.36743,0.239258 0.64942,0.60669 0.28198,0.367431 0.44433,0.880126 0.29053,-0.546875 0.64087,-0.914306 0.35889,-0.375977 0.75196,-0.60669 0.39306,-0.230713 0.81176,-0.333252 0.42725,-0.102539 0.8545,-0.102539 0.59814,0 1.13647,0.196534 0.53833,0.187988 0.94849,0.589599 0.41015,0.393067 0.64941,1.008301 0.23926,0.615234 0.23926,1.469727 l 0,4.434814 q 0,0.239258 -0.094,0.418701 -0.0855,0.179443 -0.23071,0.299072 -0.13672,0.119629 -0.32471,0.179444 -0.17944,0.05981 -0.36743,0.05981 -0.18799,0 -0.36743,-0.05981 -0.1709,-0.05982 -0.31616,-0.179444 -0.13672,-0.119629 -0.22217,-0.299072 -0.0855,-0.179443 -0.0855,-0.418701 l 0,-4.451904 z"
         id="path4229"
         inkscape:connector-curvature="0" />
      <path
         d="m 144.32715,30.11998 q 0,0.230713 -0.15381,0.410156 -0.14526,0.170899 -0.45288,0.170899 l -5.81909,0 q 0.0769,1.239013 0.7605,1.922607 0.69213,0.683594 1.82006,0.683594 0.69214,0 1.30738,-0.196533 0.61523,-0.196534 1.2561,-0.521241 0.15381,-0.0769 0.29053,-0.0769 0.23071,0 0.36743,0.170898 0.14526,0.170899 0.14526,0.393067 0,0.09399 -0.0342,0.205078 -0.0256,0.102539 -0.094,0.196533 -0.27344,0.350342 -0.67505,0.598145 -0.39307,0.247802 -0.85449,0.401611 -0.46143,0.153809 -0.95703,0.222168 -0.48706,0.0769 -0.94849,0.0769 -0.9314,0 -1.73462,-0.307617 -0.80322,-0.307617 -1.40137,-0.888672 -0.5896,-0.589599 -0.93139,-1.444092 -0.33325,-0.863037 -0.33325,-1.777343 0,-0.777588 0.31616,-1.580811 0.31616,-0.803223 0.86303,-1.401367 0.55542,-0.598145 1.32447,-0.974121 0.77759,-0.384522 1.80298,-0.384522 1.05102,0 1.81152,0.333252 0.76904,0.333252 1.27319,0.888672 0.5127,0.55542 0.76905,1.333008 0.26489,0.769043 0.28198,1.546631 z m -1.77735,-0.444336 q -0.0342,-0.410156 -0.19653,-0.871582 -0.16235,-0.461426 -0.46142,-0.786133 -0.29053,-0.333252 -0.71778,-0.495605 -0.4187,-0.170899 -0.96557,-0.170899 -0.49561,0 -0.90577,0.179444 -0.40161,0.179443 -0.70068,0.52124 -0.29053,0.341797 -0.46997,0.794677 -0.17944,0.452881 -0.21362,0.828858 l 4.63134,0 z"
         id="path4231"
         inkscape:connector-curvature="0" />
      <path
         d="m 146.24121,27.060898 q 0,-0.230713 0.0855,-0.410156 0.0855,-0.179444 0.22217,-0.290528 0.14526,-0.119629 0.32471,-0.179443 0.18798,-0.05982 0.37597,-0.05982 0.18799,0 0.35889,0.05982 0.17944,0.05127 0.31616,0.170898 0.14526,0.111084 0.23071,0.281983 0.0855,0.162353 0.094,0.393066 l 0,0.666504 q 0.15381,-0.316162 0.44433,-0.649414 0.29908,-0.333252 0.6836,-0.55542 0.38452,-0.230713 0.82885,-0.350342 0.44434,-0.119629 0.90577,-0.119629 0.59814,0 1.13647,0.187989 0.54688,0.187988 0.95703,0.589599 0.4187,0.393067 0.65796,1.016846 0.2478,0.615234 0.2478,1.469727 l 0,4.426269 q 0,0.239258 -0.0854,0.418701 -0.0854,0.179444 -0.23071,0.307617 -0.13672,0.119629 -0.32471,0.179444 -0.17944,0.05981 -0.36743,0.05981 -0.18799,0 -0.36743,-0.05981 -0.1709,-0.05982 -0.31616,-0.179444 -0.13672,-0.128173 -0.22217,-0.307617 -0.0855,-0.179443 -0.0855,-0.418701 l 0,-4.443359 q 0,-0.487061 -0.13672,-0.845948 -0.13672,-0.358886 -0.36743,-0.598144 -0.23071,-0.239258 -0.53833,-0.350342 -0.30762,-0.119629 -0.64941,-0.119629 -0.45288,0 -0.84595,0.145264 -0.39307,0.145264 -0.69214,0.444336 -0.29053,0.290527 -0.46142,0.675049 -0.1709,0.384521 -0.1709,0.982666 l 0,4.110107 q 0,0.239258 -0.0855,0.418701 -0.0854,0.179444 -0.23071,0.307617 -0.13672,0.119629 -0.32471,0.179444 -0.17944,0.05981 -0.36743,0.05981 -0.18799,0 -0.36743,-0.05981 -0.17945,-0.05982 -0.32471,-0.179444 -0.13672,-0.128173 -0.22217,-0.307617 -0.0855,-0.179443 -0.0855,-0.418701 l 0,-6.647949 z"
         id="path4233"
         inkscape:connector-curvature="0" />
      <path
         d="m 157.22144,26.120956 0.16235,-2.298584 q 0.0171,-0.187988 0.10254,-0.333252 0.094,-0.153808 0.23071,-0.256347 0.13672,-0.102539 0.29907,-0.153809 0.16236,-0.05127 0.32471,-0.05127 0.30762,0 0.54688,0.187988 0.23925,0.187988 0.23925,0.5896 l 0,2.315673 1.30738,0 q 0.35034,0 0.52978,0.222168 0.17944,0.213623 0.17944,0.469971 0,0.256348 -0.17944,0.469971 -0.1709,0.213623 -0.52978,0.213623 l -1.30738,0 0,3.554687 q 0,0.60669 0.0171,1.025391 0.0256,0.418701 0.11109,0.683594 0.094,0.256347 0.28198,0.375976 0.19653,0.111084 0.53833,0.111084 0.0855,0 0.18799,-0.0085 0.10254,-0.0085 0.20508,-0.01709 0.10253,-0.01709 0.18798,-0.02563 0.094,-0.0085 0.14527,-0.0085 0.3247,0 0.50415,0.213623 0.17944,0.213623 0.17944,0.478515 0,0.273438 -0.1709,0.444336 -0.16235,0.170899 -0.43579,0.273438 -0.26489,0.102539 -0.59814,0.136719 -0.33325,0.04272 -0.67505,0.04272 -0.59815,0 -1.05957,-0.153808 -0.46143,-0.153809 -0.77759,-0.504151 -0.31616,-0.358886 -0.48706,-0.939941 -0.16235,-0.581055 -0.16235,-1.427002 l 0,-4.255371 -0.82886,0 q -0.35889,0 -0.53833,-0.213623 -0.1709,-0.213623 -0.1709,-0.469971 0,-0.256348 0.17944,-0.469971 0.17945,-0.222168 0.53833,-0.222168 l 0.92286,0 z"
         id="path4235"
         inkscape:connector-curvature="0" />
    </g>
  </g>
</svg>
