<?xml version="1.0" encoding="UTF-8" standalone="no"?>
<!-- Created with Inkscape (http://www.inkscape.org/) -->

<svg
   xmlns:dc="http://purl.org/dc/elements/1.1/"
   xmlns:cc="http://creativecommons.org/ns#"
   xmlns:rdf="http://www.w3.org/1999/02/22-rdf-syntax-ns#"
   xmlns:svg="http://www.w3.org/2000/svg"
   xmlns="http://www.w3.org/2000/svg"
   xmlns:sodipodi="http://sodipodi.sourceforge.net/DTD/sodipodi-0.dtd"
   xmlns:inkscape="http://www.inkscape.org/namespaces/inkscape"
   width="43"
   height="40"
   viewBox="0 0 43.000002 39.999998"
   id="svg12056"
   version="1.1"
   inkscape:version="0.91 r13725"
   sodipodi:docname="aie-logo.svg">
  <defs
     id="defs12058">
    <linearGradient
       x1="5.75"
       y1="17.146"
       gradientTransform="matrix(1.2709529,0,0,1.2709529,0,-13.848858)"
       x2="50.125"
       gradientUnits="userSpaceOnUse"
       y2="17.146"
       id="linearGradient3808">
      <stop
         id="stop5198"
         offset="0"
         stop-color="#179fb1" />
      <stop
         id="stop5200"
         offset="1"
         stop-color="#0f5da9" />
    </linearGradient>
  </defs>
  <sodipodi:namedview
     id="base"
     pagecolor="#ffffff"
     bordercolor="#666666"
     borderopacity="1.0"
     inkscape:pageopacity="0.0"
     inkscape:pageshadow="2"
     inkscape:zoom="11.2"
     inkscape:cx="26.635991"
     inkscape:cy="20.474578"
     inkscape:document-units="px"
     inkscape:current-layer="layer1"
     showgrid="false"
     fit-margin-top="0"
     fit-margin-left="0"
     fit-margin-right="0"
     fit-margin-bottom="0"
     units="px"
     inkscape:window-width="1920"
     inkscape:window-height="997"
     inkscape:window-x="1920"
     inkscape:window-y="0"
     inkscape:window-maximized="1" />
  <metadata
     id="metadata12061">
    <rdf:RDF>
      <cc:Work
         rdf:about="">
        <dc:format>image/svg+xml</dc:format>
        <dc:type
           rdf:resource="http://purl.org/dc/dcmitype/StillImage" />
        <dc:title></dc:title>
      </cc:Work>
    </rdf:RDF>
  </metadata>
  <g
     inkscape:label="Layer 1"
     inkscape:groupmode="layer"
     id="layer1"
     transform="translate(-231.49022,-652.69388)">
    <g
       id="g5225"
       transform="matrix(0.60231544,0,0,0.60231544,231.93665,653.38594)"
       style="display:inline;opacity:0.47600002">
      <g
         id="g5204"
         transform="translate(0,14)">
        <rect
           id="rect5206"
           x="0"
           y="-13.772"
           width="69.889999"
           height="63.550999"
           ry="4.3650999"
           style="color:#000000;fill:#0a2a3b;fill-rule:nonzero;enable-background:accumulate" />
      </g>
      <g
         id="g5208"
         transform="translate(0,14)">
        <path
           id="path5210"
           d="m 44.285,-11.069 c -3.2493,0.1323 -8.6972,0.76833 -14.537,3.2171 C 21.096,-4.223 9.44,4.8121 7.308,22.5141 l 4.659,-0.625 c 2.046,-9.769 11.055,-14.428 17.424,-14.569 7.373,-0.1623 14.797,3.7446 17.912,10.049 l 1.5093,-0.75463 c -3.452,-6.987 -10.507,-11.361 -19.501,-10.962 -3.437,0.1527 -6.906,1.1687 -10.008,3.1377 4.805,-3.6266 10.821,-5.0686 16.165,-4.6469 5.3868,0.42515 10.583,2.5916 14.378,6.3945 3.7943,3.8029 6.2302,9.2587 6.1165,16.443 l 1.6681,0 c 0.12,-7.576 -2.488,-13.521 -6.593,-17.635 -4.105,-4.1141 -9.67,-6.3827 -15.411,-6.8313 -1.4352,-0.11215 -2.8871,-0.12153 -4.3292,0 -3.755,0.3165 -7.422,1.3817 -10.684,3.2171 4.169,-3.0016 9.192,-4.6397 14.378,-4.9647 11.253,-0.7052 22.87,5.3621 27.127,19.184 l 1.5887,-0.47661 c -4.468,-14.506 -16.911,-21.122 -28.835,-20.375 -4.442,0.27837 -8.803,1.5047 -12.67,3.6937 3.791,-2.785 8.088,-4.3457 12.511,-5.0441 10.457,-1.6513 21.56,2.4798 27.603,9.413 l 1.232,-1.1121 c -4.862,-5.5773 -12.559,-9.3575 -20.772,-10.168 -2.7379,-0.27004 -5.5392,-0.19781 -8.3009,0.2383 -3.3779,0.53342 -6.7079,1.6029 -9.8102,3.2965 4.3138,-3.0238 8.8944,-4.3661 12.988,-4.9647 11.185,-1.6357 19.104,2.5419 19.104,2.5419 l 0.75463,-1.549 c 0,0 -4.8738,-2.3555 -11.955,-2.9391 -2.3604,-0.19451 -5.6331,-0.1763 -8.3009,0.15887 -2.876,0.36132 -5.8637,1.12 -8.7775,2.4228 0.76827,-0.44362 1.5357,-0.869 2.3433,-1.271 6.9123,-3.4403 16.443,-3.1774 16.443,-3.1774 l 0.11915,-1.6681 c 0,0 -1.1484,-0.1191 -3.0979,-0.03972 z"
           style="color:#000000;text-indent:0;text-align:start;text-transform:none;direction:ltr;block-progression:tb;baseline-shift:baseline;fill:url(#linearGradient3808);enable-background:accumulate"
           inkscape:connector-curvature="0" />
        <path
           id="path5212"
           d="m 14.06,27.1 c -5.5122,0 -6.6328,1.271 -6.6328,1.271 l 0,3.932 c 0,0 4.1526,-1.1915 5.9179,-1.1915 1.7653,0 3.0582,0.60012 3.0582,1.5887 0,0.98857 -1.8181,1.324 -5.9179,2.5419 -2.4728,0.73456 -4.4483,1.8705 -4.4483,5.4413 0,3.5707 1.952,5.1632 5.3221,5.1632 4.1926,0 5.5207,-2.4228 5.5207,-2.4228 0,0 -0.12359,2.105 0.31774,2.105 l 4.0512,0 0,-13.226 c 0,-3.3701 -1.6766,-5.203 -7.1888,-5.203 z m 2.2639,9.6116 0,2.8994 c 0,0.93619 -1.1632,2.5646 -3.0355,2.5646 -1.8724,0 -2.3774,-0.86811 -2.3774,-2.1447 0,-1.3617 1.6919,-2.1174 2.7745,-2.2866 1.927,-0.30109 2.6384,-1.0326 2.6384,-1.0326 z"
           inkscape:connector-curvature="0"
           style="fill:#ffffff" />
        <path
           id="path5214"
           d="m 23.816,45.543 4.979,0 0,-16.979 c 0,0 -1.5146,1.051 -2.6243,1.1348 -1.4594,0.11019 -2.3547,0.68087 -2.3547,1.078 0,0.31206 4e-6,14.766 0,14.766 z"
           style="color:#000000;fill:#ffffff;fill-rule:nonzero;enable-background:accumulate"
           inkscape:connector-curvature="0" />
        <path
           id="path5216"
           d="m 23.852,27.312 0,-3.1093 c 0,-1.0431 1.324,-2.327 3.2498,-2.327 1.9258,0 2.1665,1.0431 2.1665,2.0461 0,1.003 -0.41575,2.0124 -2.006,2.3069 -1.6249,0.3009 -3.4102,1.0833 -3.4102,1.0833 z"
           style="color:#000000;fill:#ffffff;fill-rule:nonzero;enable-background:accumulate"
           inkscape:connector-curvature="0" />
        <path
           id="path5218"
           d="m 39.894,27.02 c -4.1725,0 -8.8758,2.3109 -8.8758,9.4924 0,7.1816 3.805,9.4936 8.6195,9.4936 4.8145,0 7.2494,-1.6693 7.2494,-1.6693 l 0,-4.0114 c 0,0 -4.1812,1.5835 -6.6492,1.6268 -2.2869,0.04012 -3.4574,-0.49979 -3.4975,-1.9843 -0.04012,-1.4845 2.6673,-1.3567 4.8283,-1.9847 2.347,-0.68205 5.424,-1.2969 5.424,-5.349 0,-4.0522 -2.9261,-5.6141 -7.0986,-5.6141 z m -0.09546,4.1342 c 2.2066,0 2.0216,1.1024 2.0216,1.9048 0,0.80241 -0.35211,1.4005 -2.639,1.8819 -2.2869,0.48144 -3.0971,1.0347 -3.0971,1.0347 0,-3.651 1.6283,-4.8214 3.7146,-4.8214 z"
           style="color:#000000;fill:#ffffff;fill-rule:nonzero;enable-background:accumulate"
           inkscape:connector-curvature="0" />
      </g>
    </g>
  </g>
</svg>
