<?xml version="1.0" encoding="UTF-8" standalone="no"?>
<!-- Created with Inkscape (http://www.inkscape.org/) -->

<svg
   xmlns:dc="http://purl.org/dc/elements/1.1/"
   xmlns:cc="http://creativecommons.org/ns#"
   xmlns:rdf="http://www.w3.org/1999/02/22-rdf-syntax-ns#"
   xmlns:svg="http://www.w3.org/2000/svg"
   xmlns="http://www.w3.org/2000/svg"
   xmlns:sodipodi="http://sodipodi.sourceforge.net/DTD/sodipodi-0.dtd"
   xmlns:inkscape="http://www.inkscape.org/namespaces/inkscape"
   width="32"
   height="32"
   viewBox="0 0 32 32.000001"
   id="svg2"
   version="1.1"
   inkscape:version="0.91 r13725"
   sodipodi:docname="application-icon.svg">
  <defs
     id="defs4" />
  <sodipodi:namedview
     id="base"
     pagecolor="#eff2f4"
     bordercolor="#666666"
     borderopacity="1.0"
     inkscape:pageopacity="0"
     inkscape:pageshadow="2"
     inkscape:zoom="16"
     inkscape:cx="23.496987"
     inkscape:cy="18.752524"
     inkscape:document-units="px"
     inkscape:current-layer="layer1"
     showgrid="false"
     units="px"
     borderlayer="true"
     inkscape:window-width="1920"
     inkscape:window-height="997"
     inkscape:window-x="1920"
     inkscape:window-y="0"
     inkscape:window-maximized="1" />
  <metadata
     id="metadata7">
    <rdf:RDF>
      <cc:Work
         rdf:about="">
        <dc:format>image/svg+xml</dc:format>
        <dc:type
           rdf:resource="http://purl.org/dc/dcmitype/StillImage" />
        <dc:title></dc:title>
      </cc:Work>
    </rdf:RDF>
  </metadata>
  <g
     inkscape:label="Layer 1"
     inkscape:groupmode="layer"
     id="layer1"
     transform="translate(0,-1020.3622)">
    <path
       style="color:#000000;font-style:normal;font-variant:normal;font-weight:normal;font-stretch:normal;font-size:medium;line-height:normal;font-family:sans-serif;text-indent:0;text-align:start;text-decoration:none;text-decoration-line:none;text-decoration-style:solid;text-decoration-color:#000000;letter-spacing:normal;word-spacing:normal;text-transform:none;direction:ltr;block-progression:tb;writing-mode:lr-tb;baseline-shift:baseline;text-anchor:start;white-space:normal;clip-rule:nonzero;display:inline;overflow:visible;visibility:visible;opacity:1;isolation:auto;mix-blend-mode:normal;color-interpolation:sRGB;color-interpolation-filters:linearRGB;solid-color:#000000;solid-opacity:1;fill:#797979;fill-opacity:1;fill-rule:evenodd;stroke:none;stroke-width:2;stroke-linecap:butt;stroke-linejoin:miter;stroke-miterlimit:4;stroke-dasharray:none;stroke-dashoffset:0;stroke-opacity:1;color-rendering:auto;image-rendering:auto;shape-rendering:auto;text-rendering:auto;enable-background:accumulate"
       d="M 2.1757812 5.375 C 1.1004402 5.375 0.203125 6.2722563 0.203125 7.3476562 L 0.203125 24.421875 C 0.203125 25.497175 1.1004399 26.394531 2.1757812 26.394531 L 29.923828 26.394531 C 30.999169 26.394531 31.896484 25.497175 31.896484 24.421875 L 31.896484 7.3476562 C 31.896484 6.2722563 30.999169 5.375 29.923828 5.375 L 2.1757812 5.375 z M 22.894531 6.1542969 A 1.0196068 1.0196068 0 0 1 23.914062 7.1738281 A 1.0196068 1.0196068 0 0 1 22.894531 8.1933594 A 1.0196068 1.0196068 0 0 1 21.873047 7.1738281 A 1.0196068 1.0196068 0 0 1 22.894531 6.1542969 z M 25.488281 6.1542969 A 1.0196068 1.0196068 0 0 1 26.507812 7.1738281 A 1.0196068 1.0196068 0 0 1 25.488281 8.1933594 A 1.0196068 1.0196068 0 0 1 24.466797 7.1738281 A 1.0196068 1.0196068 0 0 1 25.488281 6.1542969 z M 28.082031 6.1542969 A 1.0196068 1.0196068 0 0 1 29.101562 7.1738281 A 1.0196068 1.0196068 0 0 1 28.082031 8.1933594 A 1.0196068 1.0196068 0 0 1 27.060547 7.1738281 A 1.0196068 1.0196068 0 0 1 28.082031 6.1542969 z M 2.78125 6.1875 L 5.3125 6.1875 L 5.3125 8.09375 L 2.78125 8.09375 L 2.78125 6.1875 z M 2.828125 8.9238281 L 29.271484 8.9238281 L 29.271484 24.037109 L 2.828125 24.037109 L 2.828125 8.9238281 z "
       transform="translate(0,1020.3622)"
       id="rect4136" />
  </g>
</svg>
