<?xml version="1.0" encoding="UTF-8" standalone="no"?>
<!-- Created with Inkscape (http://www.inkscape.org/) -->

<svg
   xmlns:dc="http://purl.org/dc/elements/1.1/"
   xmlns:cc="http://creativecommons.org/ns#"
   xmlns:rdf="http://www.w3.org/1999/02/22-rdf-syntax-ns#"
   xmlns:svg="http://www.w3.org/2000/svg"
   xmlns="http://www.w3.org/2000/svg"
   xmlns:sodipodi="http://sodipodi.sourceforge.net/DTD/sodipodi-0.dtd"
   xmlns:inkscape="http://www.inkscape.org/namespaces/inkscape"
   width="130"
   height="35"
   viewBox="0 0 130 35"
   id="svg2"
   version="1.1"
   inkscape:version="0.91 r13725"
   sodipodi:docname="bootstrap-logo.svg">
  <defs
     id="defs4" />
  <sodipodi:namedview
     id="base"
     pagecolor="#ffffff"
     bordercolor="#666666"
     borderopacity="1.0"
     inkscape:pageopacity="0.0"
     inkscape:pageshadow="2"
     inkscape:zoom="11.313708"
     inkscape:cx="73.870862"
     inkscape:cy="21.35033"
     inkscape:document-units="px"
     inkscape:current-layer="layer1"
     showgrid="false"
     units="px"
     inkscape:window-width="1920"
     inkscape:window-height="997"
     inkscape:window-x="1920"
     inkscape:window-y="0"
     inkscape:window-maximized="1" />
  <metadata
     id="metadata7">
    <rdf:RDF>
      <cc:Work
         rdf:about="">
        <dc:format>image/svg+xml</dc:format>
        <dc:type
           rdf:resource="http://purl.org/dc/dcmitype/StillImage" />
        <dc:title></dc:title>
      </cc:Work>
    </rdf:RDF>
  </metadata>
  <g
     inkscape:label="Layer 1"
     inkscape:groupmode="layer"
     id="layer1"
     transform="translate(0,-1017.3622)">
    <g
       id="g4138"
       transform="matrix(0.09059097,0,0,0.09059097,5.1855991,1022.9782)">
      <path
         id="path4140"
         d="M 0,222.99122 C 0,241.22347 14.778532,256 33.008775,256 l 189.982445,0 C 241.22347,256 256,241.22147 256,222.99122 L 256,33.008775 C 256,14.776526 241.22147,0 222.99122,0 L 33.008775,0 C 14.776526,0 0,14.778532 0,33.008775 L 0,222.99122 Z"
         inkscape:connector-curvature="0"
         style="fill:#563d7c" />
      <path
         id="path4142"
         d="m 106.15756,113.2381 0,-36.253506 31.91177,0 c 3.03923,0 5.96987,0.253265 8.79201,0.759804 2.82215,0.506538 5.31862,1.411058 7.4895,2.713585 2.17088,1.302528 3.90756,3.111567 5.21008,5.427171 1.30253,2.315605 1.95379,5.282428 1.95379,8.90056 0,6.512636 -1.95377,11.216136 -5.86135,14.110646 -3.90758,2.8945 -8.90053,4.34174 -14.97899,4.34174 l -34.51681,0 0,0 z M 72.07493,50.5 l 0,155 75.11204,0 c 6.94682,0 13.71262,-0.86834 20.29762,-2.60504 6.585,-1.73671 12.44629,-4.41408 17.58404,-8.03222 5.13774,-3.61813 9.22617,-8.28545 12.2654,-14.0021 3.03923,-5.71664 4.55883,-12.48245 4.55883,-20.29762 0,-9.69659 -2.35175,-17.98199 -7.05533,-24.85644 -4.70357,-6.87445 -11.83118,-11.68649 -21.38305,-14.43627 6.94681,-3.32868 12.19303,-7.59801 15.7388,-12.80812 3.54577,-5.21011 5.31863,-11.722655 5.31863,-19.53782 0,-7.236264 -1.19397,-13.314635 -3.58194,-18.235294 -2.38797,-4.92066 -5.75278,-8.864365 -10.09454,-11.831233 -4.34175,-2.966868 -9.55179,-5.101534 -15.63025,-6.404062 C 159.12672,51.151254 152.3971,50.5 145.01611,50.5 l -72.94118,0 0,0 z m 34.08263,128.51541 0,-42.54902 37.12185,0 c 7.38099,0 13.31464,1.70049 17.80112,5.10154 4.48649,3.40104 6.72969,9.08142 6.72969,17.04131 0,4.05231 -0.68743,7.38094 -2.06232,9.986 -1.37489,2.60505 -3.22011,4.66736 -5.53572,6.18697 -2.3156,1.51962 -4.99298,2.60504 -8.03221,3.2563 -3.03923,0.65127 -6.22314,0.9769 -9.55182,0.9769 l -36.47059,0 0,0 z"
         inkscape:connector-curvature="0"
         style="fill:#ffffff" />
    </g>
    <g
       id="g4154"
       transform="matrix(0.07828724,0,0,0.07828724,32.520141,1020.4529)">
      <g
         id="g4156">
        <path
           id="path4158"
           d="m 5.752,89.561 c 0.944,-0.173 1.718,-0.441 2.489,-0.439 31.816,0.123 63.634,0.076 95.446,0.52 10.842,0.15 20.804,3.975 29.711,10.315 20.331,14.467 22.209,55.797 -5.701,70.622 -1.42,0.754 -2.834,1.516 -4.762,2.546 5.304,2.435 10.522,4.067 14.896,6.972 16.787,11.152 23.624,36.104 16.109,58.02 -6.558,19.121 -22.128,27.017 -40.235,31.217 -5.947,1.38 -12.175,2.096 -18.283,2.139 -29.741,0.215 -59.484,0.096 -89.673,0.096 0.003,-60.6 0.003,-121.208 0.003,-182.008 z m 31.809,155.334 c 22.12,0 43.602,0.504 65.044,-0.182 13.479,-0.431 23.219,-14.879 22.408,-28.932 -0.799,-13.852 -9.329,-25.632 -22.514,-26.248 -21.257,-0.993 -42.572,-0.712 -63.864,-0.934 -0.318,-0.002 -0.641,0.466 -1.075,0.803 10e-4,18.519 10e-4,37.123 10e-4,55.493 z m 0.074,-80.009 c 19.771,0 38.838,0.72 57.82,-0.239 13.979,-0.707 21.869,-11.884 21.346,-27.163 -0.463,-13.528 -8.451,-21.664 -22.832,-22.044 -18.031,-0.473 -36.082,-0.254 -54.126,-0.296 -0.734,-0.002 -1.469,0.394 -2.208,0.604 0,16.634 0,32.965 0,49.138 z"
           inkscape:connector-curvature="0"
           style="fill:#573e7d" />
        <path
           id="path4160"
           d="m 1023.55,139.882 c 8.832,0 17.381,0 26.521,0 0,5.23 0,10.467 0,14.214 2.953,-2.277 6.549,-4.806 9.867,-7.655 20.32,-17.44 68.52,-15.3 85.016,19.821 14.195,30.226 13.578,60.623 -5.584,88.763 -10.613,15.586 -27.047,21.156 -45.662,20.154 -16.174,-0.873 -30.414,-5.957 -41.619,-20.931 0,23.133 0,44.521 0,66.277 -9.92,0 -19.043,0 -28.537,0 0,-60.268 0,-120.284 0,-180.643 z m 26.942,66.556 c 1.195,6.619 1.852,13.397 3.699,19.83 4.123,14.356 16.678,24.972 29.682,25.889 17.395,1.227 29.887,-5.2 36.174,-20.622 7.992,-19.599 7.709,-39.365 -3.971,-57.682 -13.775,-21.607 -46.787,-19.801 -58.461,2.834 -4.805,9.318 -7.157,19.125 -7.123,29.751 z"
           inkscape:connector-curvature="0"
           style="fill:#573e7d" />
        <path
           id="path4162"
           d="m 1004.761,252.715 c 0,5.417 0.191,10.918 -0.139,16.391 -0.08,1.351 -1.775,3.633 -2.873,3.727 -8.271,0.689 -16.678,1.895 -24.844,1.043 -7.199,-0.752 -11.166,-6.854 -13.385,-13.91 -17.09,13.913 -36.688,16.922 -57.535,14.339 -17.434,-2.159 -31.875,-16.474 -33.117,-32.368 -1.715,-21.906 6.701,-36.17 26.371,-41.363 13.795,-3.64 28.164,-5.103 42.271,-7.562 3.422,-0.596 6.885,-1.082 10.227,-1.996 6.42,-1.752 11.051,-5.306 11.521,-12.614 0.486,-7.554 -2.443,-13.44 -9.543,-16.299 -12.117,-4.875 -24.453,-4.754 -36.383,0.828 -5.443,2.546 -8.676,7.67 -11.527,16.373 -9.043,0 -18.191,0 -27.955,0 0.023,-10.657 3.732,-19.614 10.811,-27.155 9.352,-9.962 21.539,-13.873 34.666,-15.246 13.74,-1.437 27.402,-1.373 40.75,3.128 17.951,6.053 26.547,17.896 26.521,36.856 -0.025,20.126 -0.008,40.252 -0.012,60.381 -0.004,14.284 -0.006,14.284 14.175,15.447 z m -43.205,-45.416 c -8.811,1.526 -16.871,2.696 -24.826,4.36 -8.367,1.75 -16.895,3.266 -24.873,6.188 -7.822,2.866 -10.48,10.176 -10.221,18.026 0.246,7.505 5.373,11.71 11.98,14.019 11.332,3.959 22.691,3.471 33.5,-1.584 7.74,-3.621 13.633,-9.541 14.326,-18.586 0.571,-7.534 0.114,-15.147 0.114,-22.423 z"
           inkscape:connector-curvature="0"
           style="fill:#573e7d" />
        <path
           id="path4164"
           d="m 242.249,136.079 c 43.841,-0.515 69.55,31.621 66.838,75.378 -0.941,15.209 -5.028,29.423 -15.039,41.443 -10.788,12.951 -24.669,19.771 -41.31,21.621 -13.896,1.549 -27.399,0.639 -40.275,-5.205 -19.175,-8.705 -30.113,-23.896 -34.714,-44.137 -3.155,-13.873 -3.017,-27.688 0.52,-41.411 7.803,-30.272 31.114,-47.571 63.98,-47.689 z m -38.163,69.828 c 1.151,6.423 1.752,13.006 3.559,19.239 4.599,15.869 17.124,26.347 31.444,27.041 17.701,0.858 30.086,-6.588 36.664,-23.076 6.423,-16.096 6.433,-32.569 -0.609,-48.471 -10.433,-23.559 -38.857,-29.583 -57.16,-12.072 -10.437,9.984 -13.131,23.251 -13.898,37.339 z"
           inkscape:connector-curvature="0"
           style="fill:#573e7d" />
        <path
           id="path4166"
           d="m 394.354,136.081 c 39.542,-0.062 66.447,26.584 66.947,66.217 0.212,16.735 -2.514,32.693 -12.338,46.712 -14.062,20.07 -34.374,27.092 -57.759,26.027 -8.616,-0.393 -17.548,-2.307 -25.578,-5.459 -18.854,-7.401 -30.096,-21.973 -35.092,-41.477 -4.385,-17.127 -3.897,-34.146 1.681,-50.886 8.555,-25.678 32.023,-41.089 62.139,-41.134 z m 37.901,66.267 c -0.638,-3.515 -1.267,-10.307 -3.162,-16.727 -4.817,-16.328 -17.548,-26.241 -33.588,-26.938 -15.106,-0.658 -28.693,8.249 -34.552,23.848 -6.901,18.373 -6.393,36.674 4.005,53.793 10.832,17.834 35.387,21.742 51.491,8.436 12.287,-10.153 15.293,-24.171 15.806,-42.412 z"
           inkscape:connector-curvature="0"
           style="fill:#573e7d" />
        <path
           id="path4168"
           d="m 676.736,176.492 c -9.023,0 -17.811,0.074 -26.592,-0.094 -1.082,-0.02 -2.766,-1.104 -3.115,-2.075 -4.938,-13.716 -16.557,-15.347 -28.572,-15.416 -4.982,-0.03 -10.283,1.183 -14.896,3.118 -9.859,4.136 -10.955,15.291 -1.715,20.634 6.41,3.707 13.936,5.698 21.166,7.734 10.23,2.881 20.791,4.616 30.955,7.687 25.988,7.855 36.145,33.911 21.594,55.391 -6.98,10.301 -17.418,15.877 -29.387,18.766 -17.689,4.269 -35.301,4.582 -52.588,-1.661 -18.497,-6.683 -28.268,-20.095 -29.71,-40.396 9.501,0 18.785,0 28.224,0 8.025,20.947 30.701,29.105 51.945,18.401 4.914,-2.478 8.195,-6.001 8.523,-11.793 0.35,-6.19 -2.041,-11.513 -7.596,-13.585 -9.904,-3.694 -20.248,-6.227 -30.416,-9.208 -8.422,-2.47 -17.111,-4.254 -25.238,-7.47 -15.678,-6.209 -22.49,-16.891 -22.394,-33.176 0.084,-14.204 8.387,-26.374 23.109,-31.712 20.262,-7.347 40.941,-8.261 61.293,-0.288 13.76,5.39 21.961,16.02 25.371,30.332 0.308,1.321 0.039,2.785 0.039,4.811 z"
           inkscape:connector-curvature="0"
           style="fill:#573e7d" />
        <path
           id="path4170"
           d="m 523.501,139.515 c 9.41,0 17.573,0 26.123,0 0,7.172 0,13.864 0,21.361 -8.323,0 -16.81,0 -25.598,0 -0.181,2.558 -0.414,4.348 -0.417,6.137 -0.025,21.561 -0.035,43.121 0.01,64.678 0.005,2.869 0.227,5.746 0.51,8.604 0.562,5.701 3.727,9.087 9.467,9.399 5.26,0.289 10.549,0.062 16.119,0.062 0,7.303 0,14.206 0,21.359 -11.931,2.953 -24.057,2.797 -35.796,0.182 -13.669,-3.044 -19.222,-12.449 -19.342,-30.251 -0.165,-24.228 -0.049,-48.46 -0.054,-72.69 0,-2.211 0,-4.424 0,-7.123 -7.429,0 -14.332,0 -21.696,0 0,-7.313 0,-14.14 0,-21.605 7.012,0 13.905,0 21.403,0 0,-13.432 0,-26.258 0,-39.562 9.907,0 19.203,0 29.274,0 -0.003,12.941 -0.003,25.787 -0.003,39.449 z"
           inkscape:connector-curvature="0"
           style="fill:#573e7d" />
        <path
           id="path4172"
           d="m 767.81,271.938 c -11.24,0 -21.881,0.35 -32.486,-0.1 -10.279,-0.436 -18.195,-7.253 -20.441,-17.427 -1.271,-5.763 -1.967,-11.761 -2.023,-17.662 -0.227,-22.795 -0.094,-45.596 -0.094,-68.394 0,-2.211 0,-4.424 0,-7.209 -7.426,0 -14.32,0 -21.625,0 0,-7.229 0,-13.886 0,-21.319 6.943,0 13.803,0 21.303,0 0,-13.565 0,-26.386 0,-39.723 9.959,0 19.281,0 29.33,0 0,12.7 0,25.521 0,39.079 8.973,0 17.268,0 25.998,0 0,7.419 0,14.115 0,21.474 -8.031,0 -16.336,0 -24.947,0 -0.297,1.935 -0.686,3.273 -0.686,4.614 -0.021,23.209 -0.096,46.418 0.055,69.625 0.08,12.274 3.293,15.228 15.459,15.141 3.25,-0.021 6.504,-0.002 10.158,-0.002 -0.001,7.022 -0.001,14.076 -0.001,21.903 z"
           inkscape:connector-curvature="0"
           style="fill:#573e7d" />
        <path
           id="path4174"
           d="m 816.597,139.956 c 0,7.813 0,15.143 0,22.475 11.264,-19.123 26.852,-29.088 49.873,-25.691 0,9.223 0,18.33 0,27.727 -10.936,-1.644 -21.484,-1.937 -30.826,4.776 -12.254,8.809 -16.533,21.681 -16.838,35.87 -0.471,21.935 -0.123,43.89 -0.123,66.316 -9.549,0 -18.873,0 -28.727,0 0,-43.578 0,-87.318 0,-131.475 8.702,0.002 17.221,0.002 26.641,0.002 z"
           inkscape:connector-curvature="0"
           style="fill:#573e7d" />
      </g>
    </g>
  </g>
</svg>
