<?xml version="1.0" encoding="UTF-8" standalone="no"?>
<!-- Created with Inkscape (http://www.inkscape.org/) -->

<svg
   xmlns:dc="http://purl.org/dc/elements/1.1/"
   xmlns:cc="http://creativecommons.org/ns#"
   xmlns:rdf="http://www.w3.org/1999/02/22-rdf-syntax-ns#"
   xmlns:svg="http://www.w3.org/2000/svg"
   xmlns="http://www.w3.org/2000/svg"
   xmlns:sodipodi="http://sodipodi.sourceforge.net/DTD/sodipodi-0.dtd"
   xmlns:inkscape="http://www.inkscape.org/namespaces/inkscape"
   width="34"
   height="34"
   viewBox="0 0 34.000003 34.000002"
   id="svg4998"
   version="1.1"
   inkscape:version="0.91 r13725"
   sodipodi:docname="facebook-logo.svg">
  <defs
     id="defs5000" />
  <sodipodi:namedview
     id="base"
     pagecolor="#ffffff"
     bordercolor="#666666"
     borderopacity="1.0"
     inkscape:pageopacity="0.0"
     inkscape:pageshadow="2"
     inkscape:zoom="15.839192"
     inkscape:cx="30.591205"
     inkscape:cy="19.979744"
     inkscape:document-units="px"
     inkscape:current-layer="layer1"
     showgrid="false"
     fit-margin-top="0"
     fit-margin-left="0"
     fit-margin-right="0"
     fit-margin-bottom="0"
     units="px"
     inkscape:window-width="1920"
     inkscape:window-height="997"
     inkscape:window-x="1920"
     inkscape:window-y="0"
     inkscape:window-maximized="1" />
  <metadata
     id="metadata5003">
    <rdf:RDF>
      <cc:Work
         rdf:about="">
        <dc:format>image/svg+xml</dc:format>
        <dc:type
           rdf:resource="http://purl.org/dc/dcmitype/StillImage" />
        <dc:title></dc:title>
      </cc:Work>
    </rdf:RDF>
  </metadata>
  <g
     inkscape:label="Layer 1"
     inkscape:groupmode="layer"
     id="layer1"
     transform="translate(-113.37117,-921.4196)">
    <g
       style="display:inline"
       id="g3005"
       transform="matrix(0.05794018,0,0,0.05794018,111.36923,913.7664)">
      <path
         sodipodi:nodetypes="ssssscccssss"
         inkscape:connector-curvature="0"
         id="rect3000"
         d="m 71,138.36218 512,0 c 17.174,0 31,13.826 31,31 l 0,512 c 0,17.174 -13.826,31 -31,31 l -146.5,0 -45.81978,-37.88194 -44.18022,37.88194 -275.5,0 c -17.174,0 -31,-13.826 -31,-31 l 0,-512 c 0,-17.174 13.826,-31 31,-31 z"
         style="fill:#3b579d;fill-opacity:1;stroke:none" />
      <path
         sodipodi:nodetypes="ccccccccccccccccc"
         inkscape:connector-curvature="0"
         id="path3002"
         d="m 346.5,712.36218 0,-222.5 -75,0 0,-86.5 75,0 0,-66 c 0,-69.18633 42.89263,-112.18866 110.45353,-112.18866 40.67053,0 68.04647,3.18866 68.04647,3.18866 l 0,78 -45.82143,0 c -29.03699,0 -42.67857,10.21289 -42.67857,41 l 0,56 85.5,0 -11,86.5 -74.5,0 0,222.5 z"
         style="fill:#ffffff;stroke:none" />
    </g>
  </g>
</svg>
