<?xml version="1.0" encoding="UTF-8" standalone="no"?>
<!-- Created with Inkscape (http://www.inkscape.org/) -->

<svg
   xmlns:dc="http://purl.org/dc/elements/1.1/"
   xmlns:cc="http://creativecommons.org/ns#"
   xmlns:rdf="http://www.w3.org/1999/02/22-rdf-syntax-ns#"
   xmlns:svg="http://www.w3.org/2000/svg"
   xmlns="http://www.w3.org/2000/svg"
   xmlns:sodipodi="http://sodipodi.sourceforge.net/DTD/sodipodi-0.dtd"
   xmlns:inkscape="http://www.inkscape.org/namespaces/inkscape"
   width="110"
   height="30"
   viewBox="0 0 110 30"
   id="svg4143"
   version="1.1"
   inkscape:version="0.91 r13725"
   sodipodi:docname="jquery-logo.svg">
  <defs
     id="defs4145" />
  <sodipodi:namedview
     id="base"
     pagecolor="#ffffff"
     bordercolor="#666666"
     borderopacity="1.0"
     inkscape:pageopacity="0.0"
     inkscape:pageshadow="2"
     inkscape:zoom="5.6"
     inkscape:cx="75.576504"
     inkscape:cy="20.812204"
     inkscape:document-units="px"
     inkscape:current-layer="g5"
     showgrid="false"
     units="px"
     inkscape:window-width="1226"
     inkscape:window-height="793"
     inkscape:window-x="2520"
     inkscape:window-y="90"
     inkscape:window-maximized="0" />
  <metadata
     id="metadata4148">
    <rdf:RDF>
      <cc:Work
         rdf:about="">
        <dc:format>image/svg+xml</dc:format>
        <dc:type
           rdf:resource="http://purl.org/dc/dcmitype/StillImage" />
        <dc:title></dc:title>
      </cc:Work>
    </rdf:RDF>
  </metadata>
  <g
     inkscape:label="Layer 1"
     inkscape:groupmode="layer"
     id="layer1"
     transform="translate(0,-1022.3622)">
    <g
       transform="translate(-14.86493,1014.3384)"
       id="g5">
      <path
         inkscape:connector-curvature="0"
         d="m 47.4,19.3 c -0.5,2.9 -1.6,7.6 -2.4,10.9 -0.5,2.1 -0.9,3.6 -2.2,4.6 -0.1,0.1 -0.2,0.1 -0.3,0.1 -0.3,0.2 -1.4,0.5 -2.1,0.6 -1.1,0.1 -2.3,0 -3.6,0 0.3,-1.3 0.7,-2.8 1,-3.9 3.2,0.4 3.3,-2.6 3.9,-5.5 0.4,-1.7 1.4,-6.2 1.6,-6.9 1.4,0.1 2.8,0.1 4.1,0.1 z"
         id="path7" />
      <path
         inkscape:connector-curvature="0"
         class="st0"
         d="m 17.2,16.3 c 0,0 0.4,-0.7 0.3,-0.7 -3.2,3.1 -2.9,7.3 -1.4,10.3 1.1,2.1 3,4 5.4,5.1 1.1,0.5 2.7,0.9 4.5,0.9 3.7,-0.1 6.4,-1.8 7.8,-4.7 L 33.9,27 c -1.3,1.3 -3.4,2.2 -5.1,2.4 -6.9,0.7 -14.1,-5.5 -11.7,-12.7 l 0.1,-0.4 z"
         id="path9"
         style="fill:#136bb0;fill-opacity:1" />
      <path
         inkscape:connector-curvature="0"
         d="m 113,18.4 c 0,0 -4.5,0.1 -6.9,0.1 -0.6,0 -2.1,0 -2.1,0 l -2.5,11.1 -3.9,0 c 0,0 2.4,-12 3,-14.2 0.2,-0.7 1.3,-0.6 3.1,-0.6 0.9,0 2.2,0 2.9,0 1.9,0 4.1,-0.2 5,0.3 0.9,0.4 1.4,3.3 1.4,3.3 z"
         id="path11" />
      <path
         inkscape:connector-curvature="0"
         d="m 74.1,14.7 c 0,0 -1.1,5.3 -1.6,8 -0.2,0.9 -0.5,1.8 -0.1,2.5 0.3,0.7 0.8,0.7 2.2,0.7 0.5,0 1.9,0 1.9,0 l 2.7,-11.2 3.8,0 c 0,0 -2.1,10 -3.2,14.9 -1.6,0 -3,0 -4.3,0 -3,0 -5.7,0.4 -6.9,-1.8 -1.1,-2.1 -0.1,-5.6 0.4,-7.9 0.4,-1.7 1.1,-5.1 1.1,-5.1 l 4,-0.1 z"
         id="path13" />
      <path
         inkscape:connector-curvature="0"
         d="m 48.5,14.7 c -0.3,1.1 -0.5,2.4 -0.8,3.6 -1.4,0 -2.8,0 -4.2,0 0.3,-1.3 0.6,-2.5 0.9,-3.6 1.3,0 2.6,0 4.1,0 z"
         id="path15" />
      <path
         inkscape:connector-curvature="0"
         class="st0"
         d="m 34.4,22 c -1.1,1.1 -2.9,2 -4.6,1.9 -3.9,0 -8.3,-3.5 -7.8,-8.4 0,-0.4 0.2,-1.1 0.7,-1.9 -1.3,1.6 -2.1,3 -1.9,5.2 C 21,22 24,25 27,25.5 30.7,26 33.4,24.4 34.4,22"
         id="path17"
         style="fill:#136bb0;fill-opacity:1" />
      <path
         inkscape:connector-curvature="0"
         class="st0"
         d="m 34.2,17.9 c -2.3,1.6 -3.8,1.1 -4.5,0.9 -0.2,0 -0.5,-0.2 -0.8,-0.4 -0.7,-0.4 -1.1,-0.6 -1.6,-1.5 -0.3,-0.5 -0.6,-1.2 -0.7,-1.6 -0.2,-0.7 -0.1,-1.7 0.2,-2.6 -1.1,0.9 -1.2,2.8 -0.9,4 0,0.2 0.3,0.8 0.4,1 0.9,1.5 2.7,2.8 5.4,2.2 0.7,-0.2 2.2,-1.4 2.5,-2"
         id="path19"
         style="fill:#136bb0;fill-opacity:1" />
      <path
         inkscape:connector-curvature="0"
         d="m 125,12.6 c 0,0 -8.6,11.6 -9.3,12.6 -0.2,0.3 -0.6,0.6 -0.7,1 -0.4,1 -0.9,3.3 -0.9,3.3 l -4.2,0 c 0,0 0.7,-2.4 0.6,-3.6 0,-1.1 -0.6,-2.2 -0.9,-3.3 -0.3,-1.1 -0.7,-3.3 -0.7,-3.3 l 4.3,0 0.6,2.4 6.6,-9.2 4.6,0.1 z"
         id="path21" />
      <path
         inkscape:connector-curvature="0"
         d="m 64.5,25.9 c 1.1,-3 2.8,-6.5 2.4,-9.6 -0.2,-1.7 -1.3,-3.5 -2.5,-4.3 0,0 -0.3,-0.2 -0.3,-0.2 -0.9,-0.5 -2.3,-0.9 -3.3,-1 -5.1,-0.5 -8.1,1.7 -9.9,4.8 -0.7,1.2 -1.1,2.5 -1.5,3.9 -0.4,1.5 -0.7,3.4 -0.4,5.1 0.1,1 0.7,2.5 1.5,3.3 2,2.1 5.9,1.8 10,1.8 1.3,0 4.3,0 5.3,0 0.3,0 1.2,-3.5 1.1,-3.6 -0.2,-0.2 -1.2,-0.1 -2.4,-0.2 z m -3,-4 c -0.4,1.3 -0.7,2.7 -1.2,3.9 -3,0 -5.8,0.4 -6.7,-1.5 -0.5,-1.1 -0.3,-2.5 0,-3.9 0.4,-1.9 0.7,-3.2 1.8,-4.3 0.8,-0.9 2.9,-2 5.1,-1.2 0.7,0.3 1.9,1.5 1.9,2.8 0.1,1.2 -0.5,2.8 -0.9,4.2 z"
         id="path23" />
      <path
         inkscape:connector-curvature="0"
         d="m 89.1,23.5 c 2.7,-0.1 7.6,0 7.6,0 0,0 0.9,-4.2 0.4,-6 -0.1,-0.4 -0.2,-1 -0.4,-1.3 -0.8,-1.1 -2.5,-1.5 -3.6,-1.6 -2.9,-0.3 -5.4,0.5 -6.7,1.5 -0.4,0.3 -0.7,0.6 -1,0.9 -0.1,0.1 -0.2,0.3 -0.3,0.4 -0.1,0.1 -0.2,0.2 -0.3,0.3 -0.1,0.2 -0.3,0.5 -0.4,0.9 -0.1,0.3 -0.2,0.6 -0.3,0.8 -0.8,2 -1.6,5.8 -0.9,7.8 0.1,0.3 0.4,0.7 0.4,0.8 0.1,0.1 0.2,0.3 0.3,0.4 0.4,0.4 1,0.7 1.6,0.9 3.2,0.8 9.7,0.4 9.7,0.4 L 96,26.2 c 0,0 -4.6,0.2 -6.8,-0.1 -0.3,0 -1.2,-0.1 -1.7,-0.5 -0.4,-0.4 -0.9,-1.2 -0.5,-1.7 0.2,-0.5 1.2,-0.3 2.1,-0.4 z M 91,17.9 c 1.2,0 1.6,0.2 2.1,0.9 0.5,0.8 0.4,1.5 0.4,1.5 l -5.8,0 c 0,0 -0.1,-2.5 3.3,-2.4 z"
         id="path25" />
    </g>
  </g>
</svg>
