<?xml version="1.0" encoding="UTF-8" standalone="no"?>
<!-- Created with Inkscape (http://www.inkscape.org/) -->

<svg
   xmlns:dc="http://purl.org/dc/elements/1.1/"
   xmlns:cc="http://creativecommons.org/ns#"
   xmlns:rdf="http://www.w3.org/1999/02/22-rdf-syntax-ns#"
   xmlns:svg="http://www.w3.org/2000/svg"
   xmlns="http://www.w3.org/2000/svg"
   xmlns:xlink="http://www.w3.org/1999/xlink"
   xmlns:sodipodi="http://sodipodi.sourceforge.net/DTD/sodipodi-0.dtd"
   xmlns:inkscape="http://www.inkscape.org/namespaces/inkscape"
   width="135"
   height="38"
   viewBox="0 0 135 38.000001"
   id="svg2"
   version="1.1"
   inkscape:version="0.91 r13725"
   sodipodi:docname="knockoutjs-logo.svg">
  <defs
     id="defs4">
    <linearGradient
       inkscape:collect="always"
       id="linearGradient5003">
      <stop
         style="stop-color:#a00800;stop-opacity:1;"
         offset="0"
         id="stop5005" />
      <stop
         style="stop-color:#c01100;stop-opacity:1"
         offset="1"
         id="stop5007" />
    </linearGradient>
    <linearGradient
       inkscape:collect="always"
       xlink:href="#linearGradient5003"
       id="linearGradient5009"
       x1="62.937917"
       y1="21.231991"
       x2="120.19375"
       y2="21.231991"
       gradientUnits="userSpaceOnUse" />
    <filter
       style="color-interpolation-filters:sRGB;"
       inkscape:label="Drop Shadow"
       id="filter5873"
       x="-0.5"
       y="-0.5"
       width="2"
       height="2">
      <feFlood
         flood-opacity="0.498039"
         flood-color="rgb(0,0,0)"
         result="flood"
         id="feFlood5875" />
      <feComposite
         in="flood"
         in2="SourceGraphic"
         operator="in"
         result="composite1"
         id="feComposite5877" />
      <feGaussianBlur
         in="composite1"
         stdDeviation="4"
         result="blur"
         id="feGaussianBlur5879" />
      <feOffset
         dx="1"
         dy="1"
         result="offset"
         id="feOffset5881" />
      <feComposite
         in="SourceGraphic"
         in2="offset"
         operator="over"
         result="composite2"
         id="feComposite5883" />
    </filter>
  </defs>
  <sodipodi:namedview
     id="base"
     pagecolor="#ffffff"
     bordercolor="#666666"
     borderopacity="1.0"
     inkscape:pageopacity="0.0"
     inkscape:pageshadow="2"
     inkscape:zoom="11.2"
     inkscape:cx="71.864563"
     inkscape:cy="17.933702"
     inkscape:document-units="px"
     inkscape:current-layer="layer3"
     showgrid="false"
     units="px"
     inkscape:window-width="1920"
     inkscape:window-height="997"
     inkscape:window-x="1920"
     inkscape:window-y="0"
     inkscape:window-maximized="1"
     borderlayer="true"
     inkscape:showpageshadow="false" />
  <metadata
     id="metadata7">
    <rdf:RDF>
      <cc:Work
         rdf:about="">
        <dc:format>image/svg+xml</dc:format>
        <dc:type
           rdf:resource="http://purl.org/dc/dcmitype/StillImage" />
        <dc:title></dc:title>
      </cc:Work>
    </rdf:RDF>
  </metadata>
  <g
     inkscape:groupmode="layer"
     id="layer3"
     inkscape:label="Background"
     style="display:inline">
    <path
       style="fill:#6e0200;fill-opacity:1;fill-rule:evenodd;stroke:none;stroke-width:1px;stroke-linecap:butt;stroke-linejoin:miter;stroke-opacity:1"
       d="m 0,0 0,38 20.648438,0 C 20.315253,34.72108 16.709587,1.3775719 16.560547,0 L 0,0 Z"
       id="path4989"
       inkscape:connector-curvature="0" />
    <path
       style="fill:#a00800;fill-opacity:1;fill-rule:evenodd;stroke:none;stroke-width:1px;stroke-linecap:butt;stroke-linejoin:miter;stroke-opacity:1"
       d="m 14.316406,0 c 1.282336,8.2290257 4.736221,30.346055 6.070313,38 L 65.412109,38 81.611328,0 14.316406,0 Z"
       id="path4991"
       inkscape:connector-curvature="0" />
    <path
       style="fill:url(#linearGradient5009);fill-opacity:1;fill-rule:evenodd;stroke:none;stroke-width:1px;stroke-linecap:butt;stroke-linejoin:miter;stroke-opacity:1"
       d="M 81.076172,0 64.914062,38 98.792969,38 118.30273,0 81.076172,0 Z"
       id="path4993"
       inkscape:connector-curvature="0" />
    <path
       style="fill:#d83001;fill-opacity:1;fill-rule:evenodd;stroke:none;stroke-width:1px;stroke-linecap:butt;stroke-linejoin:miter;stroke-opacity:1"
       d="M 117.55078,0 C 114.73541,5.5605443 99.723943,35.219243 98.392578,38 L 135,38 135,0 117.55078,0 Z"
       id="path5011"
       inkscape:connector-curvature="0" />
  </g>
  <g
     inkscape:groupmode="layer"
     id="layer2"
     inkscape:label="Vectorized"
     style="display:inline">
    <path
       style="opacity:1;fill:#ffffff;fill-opacity:1;fill-rule:evenodd;stroke:none;stroke-width:1px;stroke-linecap:butt;stroke-linejoin:miter;stroke-opacity:1;filter:url(#filter5873)"
       d="m 17.098214,18.892857 c 0,0 -3.117652,7.682586 -4.315038,10.255711 -0.707154,1.519639 -2.660408,0.983128 -3.251926,0.614825 C 8.9380653,29.394051 8.3035715,28.446429 8.8392857,27.196429 9.375,25.946429 14.010244,14.237327 14.553571,12.799107 15.3125,10.790178 12.448636,9.1506864 10.267858,10.566964 c -2.0768328,1.348771 -3.0026294,3.573519 -2.2098223,5.468751 0.5800815,1.386704 2.8983563,1.236425 3.1473213,2.65625 0.367127,2.093683 -1.8080356,3.236606 -3.5937498,2.678571 C 5.8849529,20.830957 2.2882396,19.114012 3.6607143,12.575893 4.715684,7.5502865 10.513392,4.8973214 14.174108,5.7901785 c 2.461496,0.6003649 4.263392,1.8526785 5.089285,4.1071429 0.767816,2.0959296 -1.09375,6.5848216 -1.09375,6.5848216 0,0 8.482318,-8.7051894 9.553571,-9.8214288 0.816183,-0.8504577 2.402706,-1.0781263 3.332431,-0.010832 0.929726,1.0672941 0.491536,2.2005756 -0.386002,3.0911893 -0.642899,0.6524775 -8.75,9.2857145 -8.75,9.2857145 0,0 3.130694,8.762914 3.508115,9.719317 0.306439,0.776527 0.856376,1.307468 1.525367,1.307468 1.254054,0 96.908475,-0.08929 96.908475,-0.08929 0,0 1.98661,0.02048 1.98661,2.1875 0,2.16702 -1.87499,2.053571 -1.87499,2.053571 l -99.28572,0 c 0,0 -1.651786,-0.267857 -2.366071,-1.517857 -0.714286,-1.25 -5.223215,-13.794643 -5.223215,-13.794638 z"
       id="path4148"
       inkscape:connector-curvature="0"
       sodipodi:nodetypes="cssssssssssscszscssczccsc" />
    <path
       style="opacity:1;fill:#ffffff;fill-opacity:1;fill-rule:evenodd;stroke:none;stroke-width:1px;stroke-linecap:butt;stroke-linejoin:miter;stroke-opacity:1;filter:url(#filter5873)"
       d="m 26.642773,24.205104 c 1.21046,-2.894519 4.009043,-9.596449 4.009043,-9.596449 0,0 0.536644,-1.04172 1.799335,-1.04172 1.26269,0 1.830901,1.294258 1.830901,1.294258 0,0 0.860905,-1.455924 3.480988,-1.455924 2.620083,0 3.747916,2.529211 3.526945,3.507797 -0.22097,0.978585 -2.241276,5.745242 -2.241276,5.745242 0,0 1.420527,-0.0947 2.651651,-0.0947 1.231123,0 1.38896,1.167989 1.357392,1.925604 -0.03157,0.757614 -1.041719,1.767767 -2.335977,1.767767 l -4.577254,0 c -0.947018,0 -2.08514,-1.042176 -1.704633,-2.462247 0.380507,-1.420072 1.799335,-4.703523 2.146575,-5.492705 0.34724,-0.789181 -0.568211,-1.26269 -1.167989,-1.325825 -0.599778,-0.06313 -1.830902,0.852316 -2.178142,1.609931 -0.34724,0.757614 -2.187689,5.267158 -2.683217,6.313453 -0.683648,1.443506 -1.758521,1.790088 -2.705539,1.695386 -0.947018,-0.0947 -1.639963,-1.358854 -1.208803,-2.389868 z"
       id="path4150"
       inkscape:connector-curvature="0"
       sodipodi:nodetypes="scscsscsssssssssss" />
    <path
       style="color:#000000;clip-rule:nonzero;display:inline;overflow:visible;visibility:visible;opacity:1;isolation:auto;mix-blend-mode:normal;color-interpolation:sRGB;color-interpolation-filters:linearRGB;solid-color:#000000;solid-opacity:1;fill:#ffffff;fill-opacity:1;fill-rule:evenodd;stroke:none;stroke-width:1px;stroke-linecap:butt;stroke-linejoin:miter;stroke-miterlimit:4;stroke-dasharray:none;stroke-dashoffset:0;stroke-opacity:1;filter:url(#filter5873);color-rendering:auto;image-rendering:auto;shape-rendering:auto;text-rendering:auto;enable-background:accumulate"
       d="m 51.339844,13.402344 c -5.35733,0 -7.677243,4.37497 -7.634766,7.5 0.0384,2.82534 1.049386,5.423828 5.826172,5.423828 4.889684,0 7.166016,-4.0399 7.166016,-6.830078 0,-4.107144 -2.207049,-6.09375 -5.357422,-6.09375 z m -0.580078,3.589844 c 1.073287,0 2.13197,0.898675 2.021484,2.429687 -0.110485,1.531013 -1.264118,3.442357 -2.96875,3.347656 -1.704633,-0.0947 -2.413882,-0.937534 -2.193359,-2.447265 0.410375,-2.809486 2.067338,-3.330078 3.140625,-3.330078 z"
       id="path4152"
       inkscape:connector-curvature="0" />
    <path
       style="color:#000000;clip-rule:nonzero;display:inline;overflow:visible;visibility:visible;opacity:1;isolation:auto;mix-blend-mode:normal;color-interpolation:sRGB;color-interpolation-filters:linearRGB;solid-color:#000000;solid-opacity:1;fill:#ffffff;fill-opacity:1;fill-rule:evenodd;stroke:none;stroke-width:1px;stroke-linecap:butt;stroke-linejoin:miter;stroke-miterlimit:4;stroke-dasharray:none;stroke-dashoffset:0;stroke-opacity:1;filter:url(#filter5873);color-rendering:auto;image-rendering:auto;shape-rendering:auto;text-rendering:auto;enable-background:accumulate"
       d="m 67.301414,26.225409 c -1.994077,0 -5.934647,0 -5.934647,0 -1.925603,0 -3.914341,-1.767767 -3.914341,-5.303301 0,-3.535533 2.935756,-7.513009 7.102635,-7.513009 3.329063,0.08333 4.490211,1.121603 4.490211,4.582013 0,1.256345 -1.244198,2.145644 -2.03338,2.145644 -0.789181,0 -1.637997,-0.215554 -1.738444,-0.873051 -0.08581,-0.561693 0.211726,-1.30126 -0.02041,-1.812081 -0.192829,-0.424326 -0.950519,-0.727962 -1.802835,-0.475424 -0.852316,0.252539 -2.146574,1.7362 -2.146574,3.219862 0,1.483661 1.104854,2.367544 1.957171,2.367544 1.104854,0 3.97556,-0.02807 4.954146,-0.02807 1.000906,0 1.351976,0.645022 1.351976,1.923689 0,0.966166 -0.718019,1.766182 -2.265508,1.766182 z"
       id="path4168"
       inkscape:connector-curvature="0"
       sodipodi:nodetypes="sssccsssssssss" />
    <path
       style="color:#000000;clip-rule:nonzero;display:inline;overflow:visible;visibility:visible;opacity:1;isolation:auto;mix-blend-mode:normal;color-interpolation:sRGB;color-interpolation-filters:linearRGB;solid-color:#000000;solid-opacity:1;fill:#ffffff;fill-opacity:1;fill-rule:evenodd;stroke:none;stroke-width:1px;stroke-linecap:butt;stroke-linejoin:miter;stroke-miterlimit:4;stroke-dasharray:none;stroke-dashoffset:0;stroke-opacity:1;filter:url(#filter5873);color-rendering:auto;image-rendering:auto;shape-rendering:auto;text-rendering:auto;enable-background:accumulate"
       d="m 77.700894,5.2544642 c 0.580357,-1.3392857 2.119176,-1.6706031 2.83482,-1.3950893 0.835104,0.3215043 1.473215,1.1607143 0.982144,2.3883929 -0.522005,1.3050126 -4.453126,10.9040182 -4.453126,10.9040182 0,0 3.644236,-2.697262 4.542411,-3.325893 0.774889,-0.542343 1.858174,-0.306088 2.321429,0.301339 0.499187,0.654543 0.591517,1.763393 -0.100447,2.34375 -0.691964,0.580357 -3.549107,2.823661 -3.549107,2.823661 0,0 2.380914,3.729285 2.879465,4.520089 0.647321,1.026786 -0.21735,1.962323 -0.77009,2.321429 -0.613839,0.398804 -1.796875,0.470711 -2.354911,-0.345983 -0.572806,-0.838309 -4.017857,-5.970981 -4.017857,-5.970981 0,0 -1.920996,4.660788 -2.389746,5.598288 -0.46875,0.9375 -1.835035,1.376171 -2.739791,0.97808 -0.963884,-0.424107 -1.288982,-1.482754 -0.753745,-2.693794 0.579195,-1.310504 6.988193,-17.1080211 7.568551,-18.4473068 z"
       id="path4184"
       inkscape:connector-curvature="0"
       sodipodi:nodetypes="ssscssscssscssss" />
    <path
       id="path4232"
       d="m 92.36663,13.402344 c -5.35733,0 -7.677243,4.37497 -7.634766,7.5 0.0384,2.82534 1.049386,5.423828 5.826172,5.423828 4.889684,0 7.166016,-4.0399 7.166016,-6.830078 0,-4.107144 -2.207049,-6.09375 -5.357422,-6.09375 z m -0.580078,3.589844 c 1.073287,0 2.13197,0.898675 2.021484,2.429687 -0.110485,1.531013 -1.264118,3.442357 -2.96875,3.347656 -1.704633,-0.0947 -2.413882,-0.937534 -2.193359,-2.447265 0.410375,-2.809486 2.067338,-3.330078 3.140625,-3.330078 z"
       style="color:#000000;clip-rule:nonzero;display:inline;overflow:visible;visibility:visible;opacity:1;isolation:auto;mix-blend-mode:normal;color-interpolation:sRGB;color-interpolation-filters:linearRGB;solid-color:#000000;solid-opacity:1;fill:#ffffff;fill-opacity:1;fill-rule:evenodd;stroke:none;stroke-width:1px;stroke-linecap:butt;stroke-linejoin:miter;stroke-miterlimit:4;stroke-dasharray:none;stroke-dashoffset:0;stroke-opacity:1;filter:url(#filter5873);color-rendering:auto;image-rendering:auto;shape-rendering:auto;text-rendering:auto;enable-background:accumulate"
       inkscape:connector-curvature="0" />
    <path
       style="color:#000000;clip-rule:nonzero;display:inline;overflow:visible;visibility:visible;opacity:1;isolation:auto;mix-blend-mode:normal;color-interpolation:sRGB;color-interpolation-filters:linearRGB;solid-color:#000000;solid-opacity:1;fill:#ffffff;fill-opacity:1;fill-rule:evenodd;stroke:none;stroke-width:1px;stroke-linecap:butt;stroke-linejoin:miter;stroke-miterlimit:4;stroke-dasharray:none;stroke-dashoffset:0;stroke-opacity:1;filter:url(#filter5873);color-rendering:auto;image-rendering:auto;shape-rendering:auto;text-rendering:auto;enable-background:accumulate"
       d="m 98.616072,22.0625 c 0.892857,-2.34375 2.589288,-6.361607 2.924108,-7.142857 0.33482,-0.78125 1.45359,-1.871772 2.76785,-1.450894 0.70005,0.224182 1.51787,0.60268 1.09376,2.00893 -0.3064,1.01595 -2.34376,5.401785 -2.54465,6.227678 -0.20089,0.825893 0.80426,0.913305 1.22768,0.9375 0.78126,0.04464 1.65179,-0.223215 2.05357,-0.937499 0.40179,-0.714286 2.38243,-5.761448 2.79018,-6.718751 0.51339,-1.205357 1.91964,-1.450892 2.76785,-1.339285 0.84822,0.111607 1.51787,1.249999 1.16073,2.165178 -0.3565,0.913525 -2.73438,6.774554 -2.73438,6.774554 0,0 2.20982,-0.06696 2.85715,0.02232 0.64732,0.08929 1.1607,0.591517 1.11606,1.72991 -0.0446,1.138393 -0.71402,1.919644 -1.68527,1.919644 -0.96215,0 -3.84923,0.01116 -4.60937,0.01116 -0.98807,0 -1.48438,-1.127232 -1.48438,-1.127232 0,0 -0.33482,1.116072 -1.25,1.160714 -0.91517,0.04464 -3.50446,0.04464 -4.10714,0.02232 -0.60268,-0.02232 -3.290176,-1.779017 -2.343748,-4.263392 z"
       id="path4234"
       inkscape:connector-curvature="0"
       sodipodi:nodetypes="sssssssssscccsscsss" />
    <path
       style="color:#000000;clip-rule:nonzero;display:inline;overflow:visible;visibility:visible;opacity:1;isolation:auto;mix-blend-mode:normal;color-interpolation:sRGB;color-interpolation-filters:linearRGB;solid-color:#000000;solid-opacity:1;fill:#ffffff;fill-opacity:1;fill-rule:evenodd;stroke:none;stroke-width:1px;stroke-linecap:butt;stroke-linejoin:miter;stroke-miterlimit:4;stroke-dasharray:none;stroke-dashoffset:0;stroke-opacity:1;filter:url(#filter5873);color-rendering:auto;image-rendering:auto;shape-rendering:auto;text-rendering:auto;enable-background:accumulate"
       d="m 114.75446,23.290179 c 0.49107,-1.138394 2.61161,-6.138393 2.61161,-6.138393 l -1.35045,0 c -0.82589,0 -1.0334,-0.972396 -0.87053,-1.71875 0.14915,-0.68347 0.74777,-1.696429 1.59598,-1.696429 l 1.93081,0 c 0,0 1.3143,-2.977072 1.59598,-3.638393 0.26572,-0.6238594 1.10491,-0.8705355 2.31026,-0.8705355 1.16072,0 1.61831,1.2276785 1.32813,1.8749995 -0.29018,0.647322 -1.18304,2.633929 -1.18304,2.633929 l 1.52902,0 c 1.14955,0 1.19419,1.23884 1.12723,1.908482 -0.067,0.669643 -0.78125,1.484375 -1.69642,1.484375 -0.91518,0 -2.19867,-0.02232 -2.19867,-0.02232 l -2.16518,5.491071 2.47768,0 c 0.90402,0 1.57367,0.502233 1.43974,1.841518 -0.11912,1.191213 -1.17188,1.729911 -2.06474,1.752232 -0.89286,0.02232 -3.27008,0 -4.27455,0 -1.09375,0 -3.03161,-0.841485 -2.14286,-2.901786 z"
       id="path4250"
       inkscape:connector-curvature="0"
       sodipodi:nodetypes="scssscssscscsccsssss" />
    <circle
       style="color:#000000;clip-rule:nonzero;display:inline;overflow:visible;visibility:visible;opacity:1;isolation:auto;mix-blend-mode:normal;color-interpolation:sRGB;color-interpolation-filters:linearRGB;solid-color:#000000;solid-opacity:1;fill:#ffffff;fill-opacity:1;fill-rule:evenodd;stroke:none;stroke-width:1px;stroke-linecap:butt;stroke-linejoin:miter;stroke-miterlimit:4;stroke-dasharray:none;stroke-dashoffset:0;stroke-opacity:1;filter:url(#filter5873);color-rendering:auto;image-rendering:auto;shape-rendering:auto;text-rendering:auto;enable-background:accumulate"
       id="path4266"
       cx="127.90179"
       cy="24.316965"
       r="2.3102677" />
  </g>
</svg>
