<?xml version="1.0" encoding="UTF-8" standalone="no"?>
<!-- Created with Inkscape (http://www.inkscape.org/) -->

<svg
   xmlns:dc="http://purl.org/dc/elements/1.1/"
   xmlns:cc="http://creativecommons.org/ns#"
   xmlns:rdf="http://www.w3.org/1999/02/22-rdf-syntax-ns#"
   xmlns:svg="http://www.w3.org/2000/svg"
   xmlns="http://www.w3.org/2000/svg"
   xmlns:sodipodi="http://sodipodi.sourceforge.net/DTD/sodipodi-0.dtd"
   xmlns:inkscape="http://www.inkscape.org/namespaces/inkscape"
   width="110"
   height="30"
   viewBox="0 0 110 30"
   id="svg7045"
   version="1.1"
   inkscape:version="0.91 r13725"
   sodipodi:docname="nodejs-logo.svg">
  <defs
     id="defs7047" />
  <sodipodi:namedview
     id="base"
     pagecolor="#ffffff"
     bordercolor="#666666"
     borderopacity="1.0"
     inkscape:pageopacity="0.0"
     inkscape:pageshadow="2"
     inkscape:zoom="7.9195959"
     inkscape:cx="74.98216"
     inkscape:cy="16.499128"
     inkscape:document-units="px"
     inkscape:current-layer="layer1"
     showgrid="false"
     fit-margin-top="0"
     fit-margin-left="0"
     fit-margin-right="0"
     fit-margin-bottom="0"
     units="px"
     inkscape:window-width="1920"
     inkscape:window-height="997"
     inkscape:window-x="1920"
     inkscape:window-y="0"
     inkscape:window-maximized="1" />
  <metadata
     id="metadata7050">
    <rdf:RDF>
      <cc:Work
         rdf:about="">
        <dc:format>image/svg+xml</dc:format>
        <dc:type
           rdf:resource="http://purl.org/dc/dcmitype/StillImage" />
        <dc:title />
      </cc:Work>
    </rdf:RDF>
  </metadata>
  <g
     inkscape:label="Layer 1"
     inkscape:groupmode="layer"
     id="layer1"
     transform="translate(-204.25945,-757.02811)">
    <g
       id="g4532"
       transform="matrix(0.06341153,0,0,0.06341153,204.6683,749.09224)"
       style="opacity:1">
      <path
         id="path4534"
         d="m 263.2,375.6 c 0,-5 -2.6,-9.6 -6.9,-12.1 l -115,-66.2 c -1.9,-1.1 -4.1,-1.7 -6.3,-1.8 -0.2,0 -1,0 -1.2,0 -2.2,0.1 -4.4,0.7 -6.3,1.8 l -115,66.2 c -4.3,2.5 -7,7.1 -7,12.1 l 0.3,178.2 c 0,2.5 1.3,4.8 3.5,6 2.1,1.3 4.8,1.3 6.9,0 l 68.3,-39.1 c 4.3,-2.6 7,-7.1 7,-12.1 l 0,-83.3 c 0,-5 2.6,-9.6 6.9,-12 l 29.1,-16.8 c 2.2,-1.3 4.5,-1.9 7,-1.9 2.4,0 4.8,0.6 6.9,1.9 l 29.1,16.8 c 4.3,2.5 6.9,7.1 6.9,12 l 0,83.3 c 0,5 2.7,9.5 7,12.1 l 68.3,39.1 c 2.1,1.3 4.8,1.3 6.9,0 2.1,-1.2 3.5,-3.5 3.5,-6 l 0.1,-178.2 z"
         inkscape:connector-curvature="0"
         style="clip-rule:evenodd;fill:#333333;fill-rule:evenodd" />
      <path
         id="path4536"
         d="m 877.3,130.6 c -2.2,-1.2 -4.8,-1.2 -6.9,0.1 -2.1,1.2 -3.4,3.5 -3.4,6 l 0,176.5 c 0,1.7 -0.9,3.3 -2.4,4.2 -1.5,0.9 -3.4,0.9 -4.9,0 l -28.8,-16.6 c -4.3,-2.5 -9.6,-2.5 -13.9,0 l -115,66.4 c -4.3,2.5 -6.9,7.1 -6.9,12 l 0,132.8 c 0,5 2.6,9.5 6.9,12 l 115,66.4 c 4.3,2.5 9.6,2.5 13.9,0 L 946,524 c 4.3,-2.5 6.9,-7.1 6.9,-12 l 0,-331 c 0,-5 -2.7,-9.7 -7.1,-12.1 l -68.5,-38.3 z m -10.7,337.8 c 0,1.2 -0.7,2.4 -1.7,3 l -39.5,22.8 c -1.1,0.6 -2.4,0.6 -3.5,0 l -39.5,-22.8 c -1.1,-0.6 -1.7,-1.8 -1.7,-3 l 0,-45.6 c 0,-1.2 0.7,-2.4 1.7,-3 L 821.9,397 c 1.1,-0.6 2.4,-0.6 3.5,0 l 39.5,22.8 c 1.1,0.6 1.7,1.8 1.7,3 l 0,45.6 z"
         inkscape:connector-curvature="0"
         style="clip-rule:evenodd;fill:#333333;fill-rule:evenodd" />
      <path
         id="path4538"
         d="m 1288.9,421.6 c 4.3,-2.5 6.9,-7.1 6.9,-12 l 0,-32.2 c 0,-4.9 -2.6,-9.5 -6.9,-12 L 1174.6,299 c -4.3,-2.5 -9.6,-2.5 -13.9,0 l -115,66.4 c -4.3,2.5 -6.9,7.1 -6.9,12 l 0,132.8 c 0,5 2.7,9.6 7,12.1 l 114.3,65.1 c 4.2,2.4 9.4,2.4 13.6,0.1 l 69.1,-38.4 c 2.2,-1.2 3.6,-3.5 3.6,-6 0,-2.5 -1.3,-4.8 -3.5,-6.1 l -115.7,-66.4 c -2.2,-1.2 -3.5,-3.5 -3.5,-6 l 0,-41.6 c 0,-2.5 1.3,-4.8 3.5,-6 l 36,-20.8 c 2.1,-1.2 4.8,-1.2 6.9,0 l 36,20.8 c 2.2,1.2 3.5,3.5 3.5,6 l 0,32.7 c 0,2.5 1.3,4.8 3.5,6 2.2,1.2 4.8,1.2 7,0 l 68.8,-40.1 z"
         inkscape:connector-curvature="0"
         style="clip-rule:evenodd;fill:#333333;fill-rule:evenodd" />
      <path
         id="path4540"
         d="m 472.4,298.3 c 4.3,-2.5 9.6,-2.5 13.9,0 l 115,66.4 c 4.3,2.5 6.9,7.1 6.9,12 l 0,132.9 c 0,5 -2.6,9.5 -6.9,12 l -115,66.4 c -4.3,2.5 -9.6,2.5 -13.9,0 l -115,-66.4 c -4.3,-2.5 -6.9,-7.1 -6.9,-12 l 0,-132.9 c 0,-5 2.6,-9.5 6.9,-12 l 115,-66.4 z"
         inkscape:connector-curvature="0"
         style="clip-rule:evenodd;fill:#80bd01;fill-rule:evenodd" />
      <path
         id="path4542"
         d="m 1512.2,589.9 c -4,0 -7.9,-1 -11.4,-3 l -36.2,-21.4 c -5.4,-3 -2.8,-4.1 -1,-4.7 7.2,-2.5 8.7,-3.1 16.4,-7.4 0.8,-0.5 1.9,-0.3 2.7,0.2 l 27.8,16.5 c 1,0.6 2.4,0.6 3.4,0 l 108.5,-62.6 c 1,-0.6 1.7,-1.7 1.7,-2.9 l 0,-125.3 c 0,-1.2 -0.6,-2.4 -1.7,-3 L 1514,313.8 c -1,-0.6 -2.3,-0.6 -3.3,0 l -108.4,62.6 c -1.1,0.6 -1.7,1.8 -1.7,3 l 0,125.2 c 0,1.2 0.7,2.3 1.7,2.9 l 29.7,17.2 c 16.1,8.1 26,-1.4 26,-11 l 0,-123.7 c 0,-1.7 1.4,-3.1 3.2,-3.1 l 13.8,0 c 1.7,0 3.1,1.4 3.1,3.1 l 0,123.6 c 0,21.5 -11.7,33.9 -32.1,33.9 -6.3,0 -11.2,0 -25,-6.8 l -28.4,-16.4 c -7,-4.1 -11.4,-11.7 -11.4,-19.8 l 0,-125.2 c 0,-8.1 4.4,-15.7 11.4,-19.8 l 108.5,-62.7 c 6.9,-3.9 16,-3.9 22.8,0 l 108.5,62.7 c 7,4.1 11.4,11.6 11.4,19.8 l 0,125.2 c 0,8.1 -4.4,15.7 -11.4,19.8 l -108.5,62.6 c -3.7,2 -7.7,3 -11.7,3 z"
         inkscape:connector-curvature="0"
         style="fill:#80bd01" />
      <path
         id="path4544"
         d="m 1545.7,503.7 c -47.5,0 -57.4,-21.8 -57.4,-40.1 0,-1.7 1.4,-3.1 3.1,-3.1 l 14,0 c 1.6,0 2.9,1.1 3.1,2.7 2.1,14.3 8.4,21.5 37.1,21.5 22.9,0 32.6,-5.2 32.6,-17.3 0,-7 -2.8,-12.2 -38.3,-15.7 -29.7,-2.9 -48,-9.5 -48,-33.2 0,-21.9 18.4,-34.9 49.4,-34.9 34.7,0 51.9,12.1 54.1,37.9 0.1,0.9 -0.2,1.7 -0.8,2.4 -0.6,0.6 -1.4,1 -2.3,1 l -14.1,0 c -1.5,0 -2.7,-1 -3,-2.4 -3.4,-15 -11.6,-19.8 -33.9,-19.8 -24.9,0 -27.8,8.7 -27.8,15.2 0,7.9 3.4,10.2 37.1,14.6 33.3,4.4 49.2,10.6 49.2,34.1 0,23.6 -19.7,37.1 -54.1,37.1 z"
         inkscape:connector-curvature="0"
         style="fill:#80bd01" />
      <path
         id="path4546"
         d="m 1165.9,415.4 c 0.8,-0.5 1.8,-0.5 2.7,0 l 22.1,12.7 c 0.8,0.5 1.3,1.4 1.3,2.3 l 0,25.5 c 0,1 -0.5,1.8 -1.3,2.3 l -22.1,12.7 c -0.8,0.5 -1.8,0.5 -2.7,0 l -22.1,-12.7 c -0.8,-0.5 -1.3,-1.4 -1.3,-2.3 l 0,-25.5 c 0,-1 0.5,-1.8 1.3,-2.3 l 22.1,-12.7 z"
         inkscape:connector-curvature="0"
         style="clip-rule:evenodd;fill:#80bd01;fill-rule:evenodd" />
      <g
         id="g4548"
         style="">
        <path
           id="path4550"
           d="m 1718.5,330.8 c 0,11.5 -9.4,20.9 -20.9,20.9 -11.4,0 -20.9,-9.3 -20.9,-20.9 0,-11.8 9.7,-20.9 20.9,-20.9 11.3,0 20.9,9 20.9,20.9 z m -38.4,-0.1 c 0,9.7 7.9,17.6 17.5,17.6 9.7,0 17.6,-8 17.6,-17.6 0,-9.7 -8,-17.5 -17.6,-17.5 -9.5,0 -17.5,7.7 -17.5,17.5 z m 9.7,-11.7 8.1,0 c 2.8,0 8.2,0 8.2,6.2 0,4.3 -2.8,5.2 -4.4,5.8 3.2,0.2 3.4,2.3 3.9,5.3 0.2,1.9 0.6,5.1 1.2,6.2 l -5,0 c -0.1,-1.1 -0.9,-7.1 -0.9,-7.4 -0.3,-1.3 -0.8,-2 -2.4,-2 l -4.1,0 0,9.4 -4.5,0 0,-23.5 z m 4.4,10.3 3.6,0 c 3,0 3.5,-2.1 3.5,-3.3 0,-3.2 -2.2,-3.2 -3.4,-3.2 l -3.8,0 0,6.5 z"
           inkscape:connector-curvature="0"
           style="fill:#80bd01" />
      </g>
    </g>
  </g>
</svg>
