<?xml version="1.0" encoding="UTF-8" standalone="no"?>
<!-- Created with Inkscape (http://www.inkscape.org/) -->

<svg
   xmlns:sketch="http://www.bohemiancoding.com/sketch/ns"
   xmlns:dc="http://purl.org/dc/elements/1.1/"
   xmlns:cc="http://creativecommons.org/ns#"
   xmlns:rdf="http://www.w3.org/1999/02/22-rdf-syntax-ns#"
   xmlns:svg="http://www.w3.org/2000/svg"
   xmlns="http://www.w3.org/2000/svg"
   xmlns:sodipodi="http://sodipodi.sourceforge.net/DTD/sodipodi-0.dtd"
   xmlns:inkscape="http://www.inkscape.org/namespaces/inkscape"
   width="100"
   height="30"
   viewBox="0 0 100 30"
   id="svg4876"
   version="1.1"
   inkscape:version="0.91 r13725"
   sodipodi:docname="socketio-logo.svg">
  <defs
     id="defs4878" />
  <sodipodi:namedview
     id="base"
     pagecolor="#ffffff"
     bordercolor="#666666"
     borderopacity="1.0"
     inkscape:pageopacity="0.0"
     inkscape:pageshadow="2"
     inkscape:zoom="11.2"
     inkscape:cx="47.381213"
     inkscape:cy="1.4788058"
     inkscape:document-units="px"
     inkscape:current-layer="logo"
     showgrid="false"
     units="px"
     inkscape:window-width="1920"
     inkscape:window-height="997"
     inkscape:window-x="1920"
     inkscape:window-y="0"
     inkscape:window-maximized="1" />
  <metadata
     id="metadata4881">
    <rdf:RDF>
      <cc:Work
         rdf:about="">
        <dc:format>image/svg+xml</dc:format>
        <dc:type
           rdf:resource="http://purl.org/dc/dcmitype/StillImage" />
        <dc:title></dc:title>
      </cc:Work>
    </rdf:RDF>
  </metadata>
  <g
     inkscape:label="Layer 1"
     inkscape:groupmode="layer"
     id="layer1"
     transform="translate(0,-1022.3622)">
    <g
       sketch:type="MSPage"
       id="Page-1"
       transform="matrix(0.58907624,0,0,0.58907624,1.9462859,1024.5185)"
       style="fill:none;fill-rule:evenodd;stroke:none;stroke-width:1">
      <g
         sketch:type="MSLayerGroup"
         id="logo"
         transform="translate(10.003556,0)">
        <path
           style="fill:#010101"
           d="M 21.060547 2.5097656 C 19.824108 2.4541946 18.58011 2.5796628 17.382812 2.8867188 C 12.57006 4.0825435 8.7526052 8.442416 8.2636719 13.384766 C 7.6569233 18.062031 10.019452 22.932444 14.066406 25.347656 C 18.03678 27.833558 23.414831 27.734639 27.302734 25.119141 C 30.795956 22.851197 32.969441 18.715582 32.839844 14.544922 C 32.780936 10.415497 30.466161 6.4038776 26.919922 4.2832031 C 25.160057 3.1970938 23.121278 2.6023841 21.060547 2.5097656 z M 20.376953 4.2421875 C 25.461927 4.2354195 30.441877 8.1646255 30.949219 13.419922 C 31.921195 19.239995 27.090013 25.153387 21.193359 25.324219 C 15.585354 25.883841 10.166863 21.129616 10.007812 15.498047 C 9.5895684 10.938597 12.592322 6.4162383 16.892578 4.9082031 C 18.023605 4.4553508 19.203498 4.2437494 20.376953 4.2421875 z "
           transform="matrix(1.6975731,0,0,1.6975731,-13.307519,-3.660477)"
           id="path5433" />
        <path
           sketch:type="MSShapeGroup"
           id="path5437"
           d="m 16.4,20.44 c 4.59,-3.75 9.08,-7.63 13.77,-11.27 -2.46,3.78 -4.99,7.51 -7.45,11.29 -2.11,0.01 -4.22,0.01 -6.32,-0.02 l 0,0 z"
           inkscape:connector-curvature="0"
           style="fill:#010101" />
        <path
           sketch:type="MSShapeGroup"
           id="path5439"
           d="m 20.28,22.53 c 2.12,0 4.23,0 6.34,0.03 -4.62,3.73 -9.09,7.64 -13.79,11.27 2.46,-3.78 4.99,-7.52 7.45,-11.3 l 0,0 z"
           inkscape:connector-curvature="0"
           style="fill:#010101" />
      </g>
      <path
         sketch:type="MSShapeGroup"
         id="socket.io"
         d="m 69.867556,28.424 c 0.864,0.48 2.136,0.816 3.552,0.816 3.096,0 4.752,-1.536 4.752,-3.648 -0.024,-1.728 -1.008,-2.808 -3.12,-3.576 -1.488,-0.528 -2.04,-0.888 -2.04,-1.632 0,-0.72 0.576,-1.224 1.632,-1.224 1.032,0 1.968,0.384 2.472,0.672 l 0.576,-2.088 c -0.672,-0.36 -1.8,-0.696 -3.096,-0.696 -2.712,0 -4.416,1.608 -4.416,3.672 -0.024,1.368 0.936,2.616 3.216,3.408 1.44,0.504 1.92,0.912 1.92,1.704 0,0.768 -0.576,1.296 -1.872,1.296 -1.056,0 -2.328,-0.432 -3,-0.84 l -0.576,2.136 z m 15.032,-11.376 c -3.528,0 -6.048,2.352 -6.048,6.192 0,3.744 2.544,6.024 5.856,6.024 2.976,0 6,-1.92 6,-6.216 0,-3.552 -2.328,-6 -5.808,-6 z m -0.072,2.16 c 2.016,0 2.832,2.088 2.832,3.912 0,2.352 -1.176,4.008 -2.856,4.008 -1.8,0 -2.904,-1.704 -2.904,-3.96 0,-1.944 0.84,-3.96 2.928,-3.96 z m 15.488004,7.248 c -0.576004,0.24 -1.296004,0.456 -2.328004,0.456 -2.016,0 -3.576,-1.368 -3.576,-3.768 -0.024,-2.136 1.32,-3.792 3.576,-3.792 1.056,0 1.752,0.24 2.232004,0.456 l 0.528,-2.208 c -0.672,-0.312 -1.776004,-0.552 -2.856004,-0.552 -4.104,0 -6.504,2.736 -6.504,6.24 0,3.624 2.376,5.952 6.024,5.952 1.464,0 2.688004,-0.312 3.312004,-0.6 l -0.408,-2.184 z m 4.544,-14.496 -2.952,0 0,17.04 2.952,0 0,-3.984 1.008,-1.176 3.36,5.16 3.624,0 -4.944,-6.912 4.32,-4.776 -3.552,0 -2.832,3.768 c -0.312,0.408 -0.648,0.912 -0.936,1.368 l -0.048,0 0,-10.488 z m 18.008,12.024 c 0.048,-0.264 0.096,-0.696 0.096,-1.248 0,-2.568 -1.248,-5.688 -5.04,-5.688 -3.744,0 -5.712,3.048 -5.712,6.288 0,3.576 2.232,5.904 6.024,5.904 1.68,0 3.072,-0.312 4.08,-0.72 l -0.432,-2.04 c -0.888,0.336 -1.872,0.528 -3.24,0.528 -1.872,0 -3.528,-0.912 -3.6,-3.024 l 7.824,0 z m -7.824,-2.064 c 0.12,-1.2 0.888,-2.856 2.712,-2.856 1.968,0 2.448,1.776 2.424,2.856 l -5.136,0 z m 9.8,-7.248 0,2.64 -1.68,0 0,2.208 1.68,0 0,5.496 c 0,1.536 0.288,2.592 0.912,3.264 0.552,0.6 1.464,0.96 2.544,0.96 0.936,0 1.704,-0.12 2.136,-0.288 l -0.048,-2.256 c -0.264,0.072 -0.648,0.144 -1.152,0.144 -1.128,0 -1.512,-0.744 -1.512,-2.16 l 0,-5.16 2.808,0 0,-2.208 -2.808,0 0,-3.336 -2.88,0.696 z m 8.24,14.592 c 1.104,0 1.824,-0.816 1.824,-1.896 0,-1.128 -0.744,-1.896 -1.824,-1.896 -1.056,0 -1.824,0.792 -1.824,1.896 0,1.08 0.744,1.896 1.824,1.896 z m 6.176,-0.264 0,-11.688 -2.976,0 0,11.688 2.976,0 z m -1.488,-16.56 c -0.984,0 -1.656,0.696 -1.656,1.608 0,0.888 0.648,1.584 1.632,1.584 1.032,0 1.68,-0.696 1.68,-1.584 -0.024,-0.912 -0.648,-1.608 -1.656,-1.608 z m 8.96,4.608 c -3.528,0 -6.048,2.352 -6.048,6.192 0,3.744 2.544,6.024 5.856,6.024 2.976,0 6,-1.92 6,-6.216 0,-3.552 -2.328,-6 -5.808,-6 z m -0.072,2.16 c 2.016,0 2.832,2.088 2.832,3.912 0,2.352 -1.176,4.008 -2.856,4.008 -1.8,0 -2.904,-1.704 -2.904,-3.96 0,-1.944 0.84,-3.96 2.928,-3.96 z"
         inkscape:connector-curvature="0"
         style="fill:#000000" />
    </g>
  </g>
</svg>
