<?xml version="1.0" encoding="UTF-8" standalone="no"?>
<!-- Created with Inkscape (http://www.inkscape.org/) -->

<svg
   xmlns:dc="http://purl.org/dc/elements/1.1/"
   xmlns:cc="http://creativecommons.org/ns#"
   xmlns:rdf="http://www.w3.org/1999/02/22-rdf-syntax-ns#"
   xmlns:svg="http://www.w3.org/2000/svg"
   xmlns="http://www.w3.org/2000/svg"
   xmlns:xlink="http://www.w3.org/1999/xlink"
   xmlns:sodipodi="http://sodipodi.sourceforge.net/DTD/sodipodi-0.dtd"
   xmlns:inkscape="http://www.inkscape.org/namespaces/inkscape"
   width="32mm"
   height="8mm"
   viewBox="0 0 113.38583 28.346457"
   id="svg9568"
   version="1.1"
   inkscape:version="0.91 r13725"
   sodipodi:docname="twisted-logo.svg">
  <defs
     id="defs9570" />
  <sodipodi:namedview
     id="base"
     pagecolor="#ffffff"
     bordercolor="#666666"
     borderopacity="1.0"
     inkscape:pageopacity="0.0"
     inkscape:pageshadow="2"
     inkscape:zoom="11.2"
     inkscape:cx="61.375791"
     inkscape:cy="5.0664665"
     inkscape:document-units="px"
     inkscape:current-layer="layer1"
     showgrid="false"
     fit-margin-top="0"
     fit-margin-left="0"
     fit-margin-right="0"
     fit-margin-bottom="0"
     inkscape:window-width="1920"
     inkscape:window-height="997"
     inkscape:window-x="1920"
     inkscape:window-y="0"
     inkscape:window-maximized="1" />
  <metadata
     id="metadata9573">
    <rdf:RDF>
      <cc:Work
         rdf:about="">
        <dc:format>image/svg+xml</dc:format>
        <dc:type
           rdf:resource="http://purl.org/dc/dcmitype/StillImage" />
        <dc:title></dc:title>
      </cc:Work>
    </rdf:RDF>
  </metadata>
  <g
     inkscape:label="Layer 1"
     inkscape:groupmode="layer"
     id="layer1"
     transform="translate(-332.56853,-762.92249)">
    <g
       style="display:inline;opacity:0.47600002"
       id="g4942"
       transform="matrix(0.58084325,0,0,0.58084325,332.72227,762.8465)">
      <g
         transform="translate(-31.433683,-569.68909)"
         style="display:none"
         id="layer1-3">
        <image
           id="image2503"
           height="558.37225"
           width="686.79785"
           y="57.586494"
           x="31.433683"
           xlink:href="/Volumes/Users/dreid/Desktop/TwistedLogo.png" />
      </g>
      <g
         transform="matrix(0.08557624,0,0,0.08557624,-3.4192094,-4.8595137)"
         style="display:inline"
         id="layer2-7">
        <path
           inkscape:connector-curvature="0"
           style="fill:#000000;fill-opacity:1;fill-rule:evenodd;stroke:#000000;stroke-width:1px;stroke-linecap:butt;stroke-linejoin:miter;stroke-opacity:1"
           id="path2512"
           d="m 273.07842,513.14183 -48.92047,43.07922 81.7775,60.96804 L 708.25151,310.88857 374.93521,68.476711 43.079215,314.90443 310.31638,521.17355 575.72816,318.19013 370.91935,163.39702 166.11053,314.90443 308.85607,426.9834 450.87145,312.34888 372.74474,251.38084 372.37966,230.57139 478.98246,314.17427 308.49099,447.0627 140.92015,312.34888 371.28442,144.41295 601.6487,315.63458 308.85607,542.34808 273.07842,513.14183 Z M 300,347.36218 l 0,-18.14281 -40,-16.85719 20,35 20,0 z m 20,0 0,-18.14281 45,-16.85719 -25,35 -20,0 z" />
      </g>
      <g
         transform="matrix(0.08557624,0,0,0.08557624,-3.4192094,-4.8595137)"
         id="layer3-7" />
    </g>
    <g
       style="font-style:normal;font-variant:normal;font-weight:normal;font-stretch:normal;font-size:20.29245567px;line-height:125%;font-family:sans-serif;-inkscape-font-specification:sans-serif;letter-spacing:0px;word-spacing:0px;opacity:0.47600002;fill:#000000;fill-opacity:1;stroke:none;stroke-width:1px;stroke-linecap:butt;stroke-linejoin:miter;stroke-opacity:1"
       id="text4955">
      <path
         d="m 369.88302,768.63384 12.51435,0 0,1.68444 -5.25147,0 0,13.10884 -2.01141,0 0,-13.10884 -5.25147,0 0,-1.68444 z"
         style=""
         id="path10137" />
      <path
         d="m 379.83108,772.32969 1.82315,0 2.27894,8.65996 2.26903,-8.65996 2.15013,0 2.27894,8.65996 2.26903,-8.65996 1.82315,0 -2.90317,11.09743 -2.15013,0 -2.38793,-9.09593 -2.39784,9.09593 -2.15013,0 -2.90317,-11.09743 z"
         style=""
         id="path10139" />
      <path
         d="m 397.49781,772.32969 1.82315,0 0,11.09743 -1.82315,0 0,-11.09743 z m 0,-4.32008 1.82315,0 0,2.30867 -1.82315,0 0,-2.30867 z"
         style=""
         id="path10141" />
      <path
         d="m 410.20041,772.65667 0,1.72406 q -0.77286,-0.39634 -1.60517,-0.5945 -0.8323,-0.19817 -1.72406,-0.19817 -1.35746,0 -2.04114,0.41615 -0.67377,0.41616 -0.67377,1.24846 0,0.63414 0.48551,1.00075 0.48551,0.35671 1.95196,0.68369 l 0.62423,0.13871 q 1.94205,0.41616 2.75454,1.17911 0.8224,0.75304 0.8224,2.11049 0,1.54571 -1.22864,2.44738 -1.21874,0.90167 -3.35896,0.90167 -0.89176,0 -1.86278,-0.17835 -0.96112,-0.16845 -2.03123,-0.51524 l 0,-1.8826 q 1.01066,0.52514 1.9916,0.79267 0.98093,0.25762 1.94205,0.25762 1.28809,0 1.98168,-0.43597 0.69359,-0.44588 0.69359,-1.24846 0,-0.74313 -0.50533,-1.13947 -0.49542,-0.39634 -2.18976,-0.76295 l -0.63414,-0.14863 q -1.69434,-0.3567 -2.44738,-1.08992 -0.75304,-0.74313 -0.75304,-2.03123 0,-1.56553 1.10974,-2.41766 1.10975,-0.85212 3.15088,-0.85212 1.01066,0 1.90242,0.14863 0.89176,0.14862 1.6448,0.44588 z"
         style=""
         id="path10143" />
      <path
         d="m 415.51132,769.17881 0,3.15088 3.75529,0 0,1.4169 -3.75529,0 0,6.02432 q 0,1.35746 0.36661,1.74389 0.37652,0.38643 1.51599,0.38643 l 1.87269,0 0,1.52589 -1.87269,0 q -2.11049,0 -2.91307,-0.78276 -0.80259,-0.79268 -0.80259,-2.87345 l 0,-6.02432 -1.33763,0 0,-1.4169 1.33763,0 0,-3.15088 1.83306,0 z"
         style=""
         id="path10145" />
      <path
         d="m 431.16664,777.42262 0,0.89176 -8.38253,0 q 0.1189,1.8826 1.12956,2.87344 1.02057,0.98093 2.83381,0.98093 1.05029,0 2.03123,-0.25762 0.99084,-0.25761 1.96186,-0.77285 l 0,1.72406 q -0.98093,0.41616 -2.01141,0.63414 -1.03047,0.21799 -2.09067,0.21799 -2.65546,0 -4.21108,-1.54572 -1.54572,-1.54571 -1.54572,-4.18135 0,-2.72482 1.46645,-4.32008 1.47635,-1.60516 3.97328,-1.60516 2.2393,0 3.5373,1.44663 1.30792,1.43672 1.30792,3.91383 z m -1.82315,-0.53506 q -0.0198,-1.49617 -0.84222,-2.38793 -0.81249,-0.89176 -2.16004,-0.89176 -1.52589,0 -2.44738,0.86204 -0.91157,0.86203 -1.05029,2.42756 l 6.49993,-0.01 z"
         style=""
         id="path10147" />
      <path
         d="m 441.46149,774.01412 0,-6.00451 1.82315,0 0,15.41751 -1.82315,0 0,-1.66461 q -0.57469,0.99084 -1.45654,1.47635 -0.87194,0.47561 -2.10058,0.47561 -2.01141,0 -3.27969,-1.60517 -1.25837,-1.60516 -1.25837,-4.22099 0,-2.61582 1.25837,-4.22099 1.26828,-1.60516 3.27969,-1.60516 1.22864,0 2.10058,0.48551 0.88185,0.47561 1.45654,1.46645 z m -6.21258,3.87419 q 0,2.01141 0.8224,3.16079 0.8323,1.13947 2.27893,1.13947 1.44663,0 2.27894,-1.13947 0.83231,-1.14938 0.83231,-3.16079 0,-2.01141 -0.83231,-3.15088 -0.83231,-1.14937 -2.27894,-1.14937 -1.44663,0 -2.27893,1.14937 -0.8224,1.13947 -0.8224,3.15088 z"
         style=""
         id="path10149" />
    </g>
  </g>
</svg>
