<?xml version="1.0" encoding="UTF-8" standalone="no"?>
<!-- Created with Inkscape (http://www.inkscape.org/) -->

<svg
   xmlns:dc="http://purl.org/dc/elements/1.1/"
   xmlns:cc="http://creativecommons.org/ns#"
   xmlns:rdf="http://www.w3.org/1999/02/22-rdf-syntax-ns#"
   xmlns:svg="http://www.w3.org/2000/svg"
   xmlns="http://www.w3.org/2000/svg"
   xmlns:sodipodi="http://sodipodi.sourceforge.net/DTD/sodipodi-0.dtd"
   xmlns:inkscape="http://www.inkscape.org/namespaces/inkscape"
   width="145"
   height="55"
   viewBox="0 0 145 55.000001"
   id="svg8334"
   version="1.1"
   inkscape:version="0.91 r13725"
   sodipodi:docname="web-tech-logos.svg">
  <defs
     id="defs8336" />
  <sodipodi:namedview
     id="base"
     pagecolor="#ffffff"
     bordercolor="#666666"
     borderopacity="1.0"
     inkscape:pageopacity="0.0"
     inkscape:pageshadow="2"
     inkscape:zoom="5.6"
     inkscape:cx="91.53711"
     inkscape:cy="43.923573"
     inkscape:document-units="px"
     inkscape:current-layer="layer1"
     showgrid="false"
     fit-margin-top="0"
     fit-margin-left="0"
     fit-margin-right="0"
     fit-margin-bottom="0"
     units="px"
     inkscape:window-width="1920"
     inkscape:window-height="997"
     inkscape:window-x="1920"
     inkscape:window-y="0"
     inkscape:window-maximized="1" />
  <metadata
     id="metadata8339">
    <rdf:RDF>
      <cc:Work
         rdf:about="">
        <dc:format>image/svg+xml</dc:format>
        <dc:type
           rdf:resource="http://purl.org/dc/dcmitype/StillImage" />
        <dc:title />
      </cc:Work>
    </rdf:RDF>
  </metadata>
  <g
     inkscape:label="Layer 1"
     inkscape:groupmode="layer"
     id="layer1"
     transform="translate(-327.7216,-802.00377)">
    <switch
       style="display:inline;opacity:1"
       id="switch4733"
       transform="matrix(0.10709572,0,0,0.10709572,319.99659,802.17077)">
      <g
         id="g4735"
         style="">
        <g
           id="g4737"
           style="">
          <!-- If you would like to customize the color of the badge, these two HSL colors are the primary oranges -->
          <!--  The second one needs to be +6 hue, +9% saturation, and +3% lightness of the first -->
          <polygon
             id="polygon4739"
             points="255.778,512 107.644,470.877 74.633,100.62 437.367,100.62 404.321,470.819 "
             style="fill:#e34f26" />
          <polygon
             id="polygon4741"
             points="256,480.523 376.03,447.246 404.27,130.894 256,130.894 "
             style="fill:#ef6529" />
          <g
             id="g4743"
             style="">
            <polygon
               id="polygon4745"
               points="256,176.305 255.843,176.305 142.132,176.305 143.219,188.488 154.38,313.627 256,313.627 256,268.217 195.91,268.217 191.76,221.716 256,221.716 "
               style="fill:#ebebeb" />
            <polygon
               id="polygon4747"
               points="162.771,407.634 255.791,433.457 256,433.399 256,386.153 255.801,386.206 205.227,372.55 201.994,336.333 177.419,336.333 156.409,336.333 "
               style="fill:#ebebeb" />
          </g>
          <g
             id="g4749"
             style="">
            <path
               id="path4751"
               d="m 108.382,0 23.077,0 0,22.8 21.11,0 0,-22.8 23.078,0 0,69.044 -23.077,0 0,-23.12 -21.11,0 0,23.12 -23.077,0 0,-69.044 z"
               inkscape:connector-curvature="0"
               style="" />
            <path
               id="path4753"
               d="m 205.994,22.896 -20.316,0 0,-22.896 63.72,0 0,22.896 -20.325,0 0,46.148 -23.078,0 0,-46.148 z"
               inkscape:connector-curvature="0"
               style="" />
            <path
               id="path4755"
               d="m 259.511,0 24.063,0 14.802,24.26 14.787,-24.26 24.072,0 0,69.044 -22.982,0 0,-34.222 -15.877,24.549 -0.397,0 -15.888,-24.549 0,34.222 -22.58,0 0,-69.044 z"
               inkscape:connector-curvature="0"
               style="" />
            <path
               id="path4757"
               d="m 348.72,0 23.084,0 0,46.222 32.453,0 0,22.822 -55.537,0 0,-69.044 z"
               inkscape:connector-curvature="0"
               style="" />
          </g>
          <g
             id="g4759"
             style="">
            <polygon
               id="polygon4761"
               points="311.761,313.627 306.49,372.521 255.843,386.191 255.843,433.435 348.937,407.634 349.62,399.962 360.291,280.411 361.399,268.217 349.162,268.217 255.843,268.217 255.843,313.627 "
               style="fill:#ffffff" />
            <polygon
               id="polygon4763"
               points="365.385,221.716 365.385,221.716 365.531,221.716 366.442,211.509 368.511,188.488 369.597,176.305 255.843,176.305 255.843,204.509 255.843,221.605 255.843,221.716 "
               style="fill:#ffffff" />
          </g>
        </g>
      </g>
    </switch>
    <g
       id="Page 1"
       style="display:inline;opacity:1;fill:none;fill-rule:evenodd;stroke:none;stroke-width:1"
       transform="matrix(0.13024138,0,0,0.13024138,381.29197,801.98877)">
      <g
         id="Layer_1"
         style="">
        <path
           id="Shape"
           d="m 233.164,15.681 -24.688,0 25.674,27.859 0,13.261 -52.882,0 0,-15.526 25.669,0 -25.669,-27.86 0,-13.28 51.896,0 0,15.546 0,0 z m -62.378,0 -24.688,0 25.673,27.859 0,13.261 -52.882,0 0,-15.526 25.672,0 -25.672,-27.86 0,-13.28 51.897,0 0,15.546 0,0 z m -61.768,0.631 -26.64,0 0,24.313 26.64,0 0,16.176 -45.574,0 0,-56.666 45.574,0 0,16.177 0,0 z m 0,0"
           inkscape:connector-curvature="0"
           style="fill:#131313" />
        <path
           id="path4796"
           d="M 27.142,386.29 0.071,82.67 l 297.45,0 -27.096,303.571 -121.811,33.77 L 27.142,386.29 Z m 0,0"
           inkscape:connector-curvature="0"
           style="fill:#1572b6" />
        <path
           id="path4798"
           d="m 148.798,394.199 98.427,-27.288 23.157,-259.415 -121.584,0 0,286.703 z m 0,0"
           inkscape:connector-curvature="0"
           style="fill:#33a9dc" />
        <g
           transform="translate(55,142)"
           id="Group"
           style="">
          <path
             id="path4801"
             d="m 93.797,75.496 49.275,0 3.403,-38.132 -52.678,0 0,-37.239 0.129,0 93.246,0 -0.893,9.991 -9.152,102.616 -83.33,0 0,-37.236 z m 0,0"
             inkscape:connector-curvature="0"
             style="fill:#ffffff" />
          <path
             id="path4803"
             d="m 94.02,172.204 -0.163,0.046 -41.472,-11.199 -2.652,-29.698 -20.151,0 -17.228,0 5.216,58.467 76.278,21.176 0.172,-0.048 0,-38.744 z m 0,0"
             inkscape:connector-curvature="0"
             style="fill:#ebebeb" />
          <path
             id="path4805"
             d="m 139.907,111.156 -4.484,49.87 -41.532,11.21 0,38.742 76.339,-21.158 0.56,-6.29 6.478,-72.374 -37.361,0 z m 0,0"
             inkscape:connector-curvature="0"
             style="fill:#ffffff" />
          <path
             id="path4807"
             d="m 93.926,0.125 0,23.128 0,14.019 0,0.092 -89.828,0 -0.119,0 -0.747,-8.37 -1.697,-18.878 -0.89,-9.991 93.281,0 z m 0,0"
             inkscape:connector-curvature="0"
             style="fill:#ebebeb" />
          <path
             id="path4809"
             d="m 93.797,75.5 0,23.129 0,14.017 0,0.092 -40.828,0 -0.119,0 -0.746,-8.369 -1.698,-18.878 -0.89,-9.991 44.281,0 z m 0,0"
             inkscape:connector-curvature="0"
             style="fill:#ebebeb" />
        </g>
      </g>
    </g>
    <g
       transform="matrix(0.1909355,0,0,0.1909355,432.66957,803.64691)"
       style="display:inline;opacity:1"
       id="g4831">
      <g
         id="g4833"
         style="">
        <g
           id="Layer5_0_FILL"
           style="">
          <path
             id="path4836"
             d="m 108.449,277.8 81.75,-23.55 18.65,-205.7 -201.798,0 18.648,205.7 82.75,23.55 z"
             inkscape:connector-curvature="0"
             style="fill:#eab42f" />
        </g>
      </g>
    </g>
    <g
       transform="matrix(0.1909355,0,0,0.1909355,432.66957,803.64691)"
       style="display:inline;opacity:1"
       id="g4838">
      <g
         id="g4840"
         style="">
        <g
           id="Layer4_0_FILL"
           style="">
          <path
             id="path4843"
             d="m 52.551,179 3.898,40.55 51.65,14.75 0,-27.15 L 80,198 78.051,178.7 52.551,179 m 55.549,-62.75 0,-24.85 -64.1,0 3.301,24.85 60.799,0 z"
             inkscape:connector-curvature="0"
             style="fill:#efefef" />
          <path
             id="path4845"
             d="m 108.449,277.8 81.75,-23.55 18.65,-205.7 -201.798,0 18.648,205.7 82.75,23.55 M 108.1,91.4 l 0,-26.5 c -0.232,-0.134 13.6,0 41.5,0.399 13.934,0.167 27.9,0.351 41.9,0.55 l -16.65,175.301 -66.75,18.3 0,-25.15 L 56.45,219.55 52.551,179 78.051,178.7 80,198 l 28.1,9.15 0,-90.9 -60.799,0 L 44,91.4 l 64.1,0 z"
             inkscape:connector-curvature="0"
             style="fill:#eab42f" />
          <path
             id="path4847"
             d="m 108.1,64.9 0,26.5 63.451,0 -11.451,127.85 -52,15.05 0,25.15 66.75,-18.3 16.65,-175.3 c -14,-0.199 -27.967,-0.383 -41.9,-0.55 -27.901,-0.4 -41.733,-0.533 -41.5,-0.4 m 35.65,51.35 -35.65,0 0,90.9 27.8,-7.85 7.85,-83.05 z"
             inkscape:connector-curvature="0"
             style="fill:#f3cf33" />
          <path
             id="path4849"
             d="m 108.1,116.25 35.65,0 -7.85,83.05 -27.8,7.85 0,27.15 52,-15.05 11.451,-127.85 -63.451,0 0,24.85 z"
             inkscape:connector-curvature="0"
             style="fill:#feffff" />
        </g>
      </g>
    </g>
    <g
       style="display:inline;opacity:1"
       id="g4851"
       transform="matrix(0.1909355,0,0,0.1909355,432.66957,802.12595)">
      <g
         id="g4853"
         style="">
        <g
           id="Layer3_0_FILL"
           style="">
          <path
             id="path4856"
             d="m 42.6,8.45 -6.799,0 -7.5,20.05 6.299,0 1,-3.3 7,0 1.051,3.3 6.449,0 -7.5,-20.05 m -1.25,12.4 -4.4,0 2.201,-7.199 2.199,7.199 M 55,8.45 l -6.449,0 7.549,20.05 6.701,0 7.449,-20.05 -6.301,0 L 59.5,22.9 55,8.45 M 16.949,22.9 c -0.166,-0.434 -0.25,-1.101 -0.25,-2 l -5.898,0.8 c 0.1,1.566 0.449,2.884 1.049,3.95 0.6,1.033 1.467,1.816 2.6,2.35 1.102,0.566 2.668,0.85 4.701,0.85 1.9,0 3.467,-0.416 4.699,-1.25 1.234,-0.833 2.051,-1.85 2.451,-3.05 0.398,-1.2 0.6,-2.933 0.6,-5.2 l 0,-10.9 -6.201,0 0,12.35 c 0,1.233 -0.166,2.101 -0.5,2.601 -0.332,0.533 -0.832,0.8 -1.5,0.8 -0.467,0 -0.816,-0.101 -1.049,-0.3 C 17.316,23.633 17.084,23.3 16.949,22.9 m 114.25,-8.55 C 130.5,12.25 129.416,10.684 127.949,9.651 126.518,8.617 124.533,8.1 122,8.1 c -3.232,0 -5.717,0.9 -7.449,2.7 -1.768,1.767 -2.65,4.317 -2.65,7.65 0,2.466 0.5,4.5 1.5,6.1 1,1.601 2.184,2.717 3.549,3.351 1.4,0.633 3.184,0.949 5.352,0.949 1.799,0 3.283,-0.266 4.449,-0.8 1.133,-0.5 2.1,-1.267 2.9,-2.3 0.799,-1.033 1.367,-2.3 1.699,-3.8 l -5.4,-1.65 c -0.266,1.267 -0.699,2.233 -1.299,2.9 -0.633,0.667 -1.533,1 -2.701,1 -1.232,0 -2.182,-0.417 -2.85,-1.25 -0.666,-0.833 -1,-2.351 -1,-4.55 0,-1.801 0.283,-3.117 0.85,-3.95 0.734,-1.134 1.801,-1.7 3.201,-1.7 0.633,0 1.199,0.133 1.699,0.4 0.5,0.232 0.918,0.6 1.25,1.1 0.234,0.267 0.434,0.7 0.6,1.3 l 5.499,-1.2 m -48.25,-5.9 -6.799,0 -7.5,20.05 6.299,0 1,-3.3 7,0 1.051,3.3 6.449,0 -7.5,-20.05 m -1.25,12.4 -4.398,0 2.199,-7.2 2.199,7.2 M 93,11.05 c -0.633,0.934 -0.949,1.917 -0.949,2.95 0,1.566 0.582,2.85 1.75,3.85 1.166,1 3.115,1.816 5.85,2.45 1.633,0.366 2.684,0.75 3.15,1.15 0.467,0.399 0.699,0.866 0.699,1.399 0,0.533 -0.232,1.018 -0.699,1.45 -0.5,0.4 -1.184,0.601 -2.051,0.601 -1.199,0 -2.117,-0.4 -2.75,-1.2 -0.4,-0.5 -0.666,-1.233 -0.801,-2.2 l -5.898,0.35 c 0.199,2.033 0.949,3.7 2.25,5 1.299,1.334 3.666,2 7.1,2 1.934,0 3.533,-0.283 4.799,-0.85 1.268,-0.566 2.268,-1.383 3,-2.45 0.701,-1.1 1.051,-2.283 1.051,-3.55 0,-1.1 -0.268,-2.1 -0.801,-3 -0.533,-0.867 -1.383,-1.6 -2.549,-2.2 -1.168,-0.6 -3.1,-1.2 -5.801,-1.8 -1.1,-0.2 -1.799,-0.434 -2.1,-0.7 -0.301,-0.266 -0.449,-0.566 -0.449,-0.899 0,-0.434 0.182,-0.801 0.549,-1.101 0.367,-0.3 0.918,-0.45 1.65,-0.45 0.867,0 1.551,0.2 2.051,0.601 0.5,0.433 0.816,1.1 0.949,2 L 108.85,14.1 C 108.584,12 107.784,10.484 106.45,9.55 105.118,8.584 103.167,8.1 100.6,8.1 98.5,8.1 96.85,8.368 95.651,8.901 94.449,9.434 93.566,10.15 93,11.05 M 152.5,14 c 0,-1.267 -0.301,-2.334 -0.9,-3.2 -0.633,-0.899 -1.449,-1.517 -2.449,-1.85 -1,-0.333 -2.467,-0.5 -4.4,-0.5 l -10.301,0 0,20.05 6.201,0 0,-8.15 0.549,0 c 0.568,0 1.068,0.167 1.5,0.5 0.334,0.234 0.717,0.75 1.15,1.551 l 3.301,6.1 7,0 -3,-5.8 -0.85,-1.25 -1,-1.05 c -0.334,-0.268 -0.867,-0.518 -1.602,-0.75 0.9,-0.2 1.617,-0.467 2.15,-0.801 0.834,-0.5 1.484,-1.149 1.951,-1.949 0.468,-0.801 0.7,-1.768 0.7,-2.901 m -11.85,-1.5 2.699,0 c 1.133,0 1.918,0.166 2.35,0.5 0.4,0.367 0.602,0.867 0.602,1.5 0,0.434 -0.135,0.834 -0.4,1.2 -0.268,0.333 -0.6,0.533 -1,0.6 l -1.65,0.3 -2.6,0 0,-4.1 m 21.9,-4.05 -6.201,0 0,20.05 6.201,0 0,-20.05 m 21.398,6.15 c 0,-1.967 -0.566,-3.482 -1.699,-4.55 -1.1,-1.066 -2.783,-1.6 -5.051,-1.6 l -10.299,0 0,20.05 6.25,0 0,-7.45 3.4,0 c 2.5,0 4.35,-0.566 5.549,-1.7 1.235,-1.133 1.85,-2.717 1.85,-4.75 m -6.699,-1.4 c 0.434,0.433 0.65,0.966 0.65,1.6 0,0.634 -0.234,1.167 -0.701,1.601 -0.5,0.399 -1.35,0.6 -2.549,0.6 l -1.5,0 0,-4.45 1.75,0 c 1.166,-10e-4 1.95,0.216 2.35,0.649 m 8.5,-4.75 0,4.95 6.301,0 0,15.1 6.199,0 0,-15.1 6.301,0 0,-4.95 -18.801,0 z"
             inkscape:connector-curvature="0"
             style="" />
        </g>
      </g>
    </g>
  </g>
</svg>
