<?xml version="1.0" encoding="UTF-8" standalone="no"?>
<!-- Created with Inkscape (http://www.inkscape.org/) -->

<svg
   xmlns:dc="http://purl.org/dc/elements/1.1/"
   xmlns:cc="http://creativecommons.org/ns#"
   xmlns:rdf="http://www.w3.org/1999/02/22-rdf-syntax-ns#"
   xmlns:svg="http://www.w3.org/2000/svg"
   xmlns="http://www.w3.org/2000/svg"
   xmlns:xlink="http://www.w3.org/1999/xlink"
   xmlns:sodipodi="http://sodipodi.sourceforge.net/DTD/sodipodi-0.dtd"
   xmlns:inkscape="http://www.inkscape.org/namespaces/inkscape"
   width="63mm"
   height="26mm"
   viewBox="0 0 223.22835 92.125984"
   id="svg5653"
   version="1.1"
   inkscape:version="0.91 r13725"
   sodipodi:docname="yarnball-logo.svg">
  <defs
     id="defs5655">
    <linearGradient
       inkscape:collect="always"
       xlink:href="#linearGradient5453"
       id="linearGradient5459"
       x1="695.28052"
       y1="989.13745"
       x2="688.97211"
       y2="1043.7804"
       gradientUnits="userSpaceOnUse"
       gradientTransform="matrix(0.31990735,0,0,0.31990735,-21.207029,685.24915)" />
    <linearGradient
       inkscape:collect="always"
       id="linearGradient5453">
      <stop
         style="stop-color:#858585;stop-opacity:1;"
         offset="0"
         id="stop5455" />
      <stop
         style="stop-color:#858585;stop-opacity:0;"
         offset="1"
         id="stop5457" />
    </linearGradient>
    <linearGradient
       inkscape:collect="always"
       xlink:href="#linearGradient5453"
       id="linearGradient5419"
       x1="770.7533"
       y1="942.4328"
       x2="823.20703"
       y2="950.58582"
       gradientUnits="userSpaceOnUse"
       gradientTransform="matrix(0.31990735,0,0,0.31990735,-20.669259,685.24915)" />
    <linearGradient
       inkscape:collect="always"
       xlink:href="#linearGradient5453"
       id="linearGradient5475"
       x1="735.60535"
       y1="946.448"
       x2="804.23022"
       y2="955.53943"
       gradientUnits="userSpaceOnUse"
       gradientTransform="matrix(0.31990735,0,0,0.31990735,-20.669259,685.24915)" />
    <linearGradient
       inkscape:collect="always"
       xlink:href="#linearGradient5453"
       id="linearGradient5427"
       x1="611.44324"
       y1="984.84845"
       x2="699.52911"
       y2="1086.3688"
       gradientUnits="userSpaceOnUse"
       gradientTransform="matrix(0.31990735,0,0,0.31990735,-21.207029,685.24915)" />
    <linearGradient
       inkscape:collect="always"
       xlink:href="#linearGradient5453"
       id="linearGradient5443"
       x1="557.14746"
       y1="978.36127"
       x2="448.87775"
       y2="1070.2852"
       gradientUnits="userSpaceOnUse"
       gradientTransform="matrix(0.31990735,0,0,0.31990735,-21.207029,685.24915)" />
    <linearGradient
       inkscape:collect="always"
       xlink:href="#linearGradient5453"
       id="linearGradient5467"
       x1="469.60452"
       y1="970.27112"
       x2="573.97668"
       y2="834.4057"
       gradientUnits="userSpaceOnUse"
       gradientTransform="matrix(0.31990735,0,0,0.31990735,-21.207029,685.24915)" />
    <linearGradient
       inkscape:collect="always"
       xlink:href="#linearGradient5453"
       id="linearGradient5451"
       x1="378.53952"
       y1="929.40808"
       x2="98.386131"
       y2="897.23547"
       gradientUnits="userSpaceOnUse"
       gradientTransform="matrix(0.31990735,0,0,0.31990735,-21.207029,685.24915)" />
    <linearGradient
       inkscape:collect="always"
       xlink:href="#linearGradient5453"
       id="linearGradient5435"
       x1="421.43542"
       y1="966.2348"
       x2="517.79858"
       y2="941.99115"
       gradientUnits="userSpaceOnUse"
       gradientTransform="matrix(0.31990735,0,0,0.31990735,-21.207029,685.24915)" />
  </defs>
  <sodipodi:namedview
     id="base"
     pagecolor="#ffffff"
     bordercolor="#666666"
     borderopacity="1.0"
     inkscape:pageopacity="0.0"
     inkscape:pageshadow="2"
     inkscape:zoom="5.6"
     inkscape:cx="125.60371"
     inkscape:cy="40.511011"
     inkscape:document-units="px"
     inkscape:current-layer="layer1"
     showgrid="false"
     fit-margin-top="0"
     fit-margin-left="0"
     fit-margin-right="0"
     fit-margin-bottom="0"
     inkscape:window-width="1920"
     inkscape:window-height="997"
     inkscape:window-x="1920"
     inkscape:window-y="0"
     inkscape:window-maximized="1" />
  <metadata
     id="metadata5658">
    <rdf:RDF>
      <cc:Work
         rdf:about="">
        <dc:format>image/svg+xml</dc:format>
        <dc:type
           rdf:resource="http://purl.org/dc/dcmitype/StillImage" />
        <dc:title />
      </cc:Work>
    </rdf:RDF>
  </metadata>
  <g
     inkscape:label="Layer 1"
     inkscape:groupmode="layer"
     id="layer1"
     transform="translate(-7.3759355,-948.76743)">
    <path
       sodipodi:nodetypes="ccssccssc"
       inkscape:connector-curvature="0"
       id="path4440"
       d="m 24.912511,1019.0737 4.81409,-1.5664 c 0,0 -1.00943,-7.7254 -0.3764,-16.5404 0.387,-5.38909 1.47097,-11.17124 3.52279,-15.98722 5.40792,-12.69334 9.86334,2.43875 9.86334,2.43875 l 4.75556,-1.50389 c 0,0 -5.72978,-18.24437 -16.19646,-7.92227 -2.74476,2.70687 -5.93301,12.09774 -6.66671,20.14539 -0.97416,10.68464 0.28379,20.93604 0.28379,20.93604 z"
       style="display:inline;opacity:1;fill:#333f4f;fill-opacity:0;fill-rule:evenodd;stroke:none;stroke-width:1px;stroke-linecap:butt;stroke-linejoin:miter;stroke-opacity:1" />
    <path
       sodipodi:nodetypes="ccsssccsssc"
       inkscape:connector-curvature="0"
       id="path4442"
       d="m 21.588161,1008.6312 0.0381,-6.5146 c 0,0 -15.9319006,11.9925 -12.7615306,20.6365 3.1703606,8.644 22.4733206,6.0605 43.0361506,-9.028 16.53359,-12.1319 16.65085,-22.59551 10.62225,-25.15272 -4.61196,-1.95626 -9.45177,-0.95752 -9.45177,-0.95752 -0.73587,1.52834 -1.36375,2.96461 -1.45144,4.88902 0,0 6.84412,-1.75742 9.16296,0.97076 2.87815,3.38638 -7.47098,14.09086 -17.99255,20.49896 -11.78076,7.1749 -25.78498,11.0713 -28.99352,7.5264 -2.935261,-3.243 7.79115,-12.8688 7.79115,-12.8688 z"
       style="display:inline;opacity:1;fill:#333f4f;fill-opacity:1;fill-rule:evenodd;stroke:none;stroke-width:1px;stroke-linecap:butt;stroke-linejoin:miter;stroke-opacity:1" />
    <path
       sodipodi:nodetypes="cccccsccssc"
       inkscape:connector-curvature="0"
       id="path4444"
       d="m 24.902731,1019.1238 4.81409,-1.5663 c 0,0 -0.44541,-2.3906 -0.59966,-6.7341 l -3.41332,-1.9909 3.48331,-7.2789 c 0.387,-5.38917 1.62425,-11.70781 3.67607,-16.52378 5.40794,-12.69334 10.00076,2.26221 10.00076,2.26221 1.0728,-0.75624 2.77821,-2.53868 3.6431,-4.33229 0,0 -4.70625,-15.19007 -15.22141,-4.91733 -3.60253,3.51948 -5.93303,12.09775 -6.66673,20.14538 -0.97413,10.68471 0.28379,20.93601 0.28379,20.93601 z"
       style="color:#000000;clip-rule:nonzero;display:inline;overflow:visible;visibility:visible;opacity:1;isolation:auto;mix-blend-mode:normal;color-interpolation:sRGB;color-interpolation-filters:linearRGB;solid-color:#000000;solid-opacity:1;fill:#333f4f;fill-opacity:1;fill-rule:evenodd;stroke:none;stroke-width:1px;stroke-linecap:butt;stroke-linejoin:miter;stroke-miterlimit:4;stroke-dasharray:none;stroke-dashoffset:0;stroke-opacity:1;color-rendering:auto;image-rendering:auto;shape-rendering:auto;text-rendering:auto;enable-background:accumulate" />
    <path
       sodipodi:nodetypes="ccsccsc"
       inkscape:connector-curvature="0"
       id="path4446"
       d="m 51.786851,1022.2924 -1.1178,4.8707 c 0,0 10.75679,2.8459 14.39535,-2.9468 4.06632,-6.4741 -4.17291,-14.7679 -4.17291,-14.7679 l -3.68522,3.4142 c 0,0 5.2151,5.7013 3.73932,8.4001 -1.4062,2.5715 -9.15874,1.0297 -9.15874,1.0297 z"
       style="color:#000000;clip-rule:nonzero;display:inline;overflow:visible;visibility:visible;opacity:1;isolation:auto;mix-blend-mode:normal;color-interpolation:sRGB;color-interpolation-filters:linearRGB;solid-color:#000000;solid-opacity:1;fill:#333f4f;fill-opacity:1;fill-rule:evenodd;stroke:none;stroke-width:0.5;stroke-linecap:butt;stroke-linejoin:miter;stroke-miterlimit:4;stroke-dasharray:none;stroke-dashoffset:0;stroke-opacity:1;color-rendering:auto;image-rendering:auto;shape-rendering:auto;text-rendering:auto;enable-background:accumulate" />
    <path
       sodipodi:nodetypes="ccsccsc"
       inkscape:connector-curvature="0"
       id="path4448"
       d="m 49.808691,1018.4988 -5.60909,3.4752 c 0,0 -2.09515,12.1345 -6.7472,13.1895 -2.84686,0.6457 -5.5278,-7.568 -5.5278,-7.568 l -4.7691,1.5254 c 0,0 3.63006,11.7234 10.75755,11.0285 9.72785,-0.9484 11.89564,-21.6506 11.89564,-21.6506 z"
       style="color:#000000;clip-rule:nonzero;display:inline;overflow:visible;visibility:visible;opacity:1;isolation:auto;mix-blend-mode:normal;color-interpolation:sRGB;color-interpolation-filters:linearRGB;solid-color:#000000;solid-opacity:1;fill:#333f4f;fill-opacity:1;fill-rule:evenodd;stroke:none;stroke-width:0.5;stroke-linecap:butt;stroke-linejoin:miter;stroke-miterlimit:4;stroke-dasharray:none;stroke-dashoffset:0;stroke-opacity:1;color-rendering:auto;image-rendering:auto;shape-rendering:auto;text-rendering:auto;enable-background:accumulate" />
    <path
       sodipodi:nodetypes="ccsccsc"
       inkscape:connector-curvature="0"
       id="path4450"
       d="m 23.958021,987.79779 -1.08389,4.90457 c 0,0 -8.2917,-1.65292 -9.3214,1.27356 -0.97282,2.76486 3.84779,8.18328 3.84779,8.18328 l -3.631,3.4143 c 0,0 -8.0719606,-8.49364 -4.1729506,-14.74084 3.3639306,-5.3899 14.3614506,-3.03487 14.3614506,-3.03487 z"
       style="color:#000000;clip-rule:nonzero;display:inline;overflow:visible;visibility:visible;opacity:1;isolation:auto;mix-blend-mode:normal;color-interpolation:sRGB;color-interpolation-filters:linearRGB;solid-color:#000000;solid-opacity:1;fill:#333f4f;fill-opacity:1;fill-rule:evenodd;stroke:none;stroke-width:1px;stroke-linecap:butt;stroke-linejoin:miter;stroke-miterlimit:4;stroke-dasharray:none;stroke-dashoffset:0;stroke-opacity:1;color-rendering:auto;image-rendering:auto;shape-rendering:auto;text-rendering:auto;enable-background:accumulate" />
    <path
       sodipodi:nodetypes="zzssssssssccssssccssssccsszz"
       inkscape:connector-curvature="0"
       id="path4436"
       d="m 69.947861,950.73835 c -4.65197,-2.6859 -6.51088,6.38218 -11.99083,15.87383 -5.47995,9.49168 -10.70065,19.99332 -14.28879,21.66277 -4.04543,1.88219 -6.99551,2.86481 -9.61171,7.39621 -2.36807,4.10165 -7.31631,12.68664 -6.91486,12.91844 l 1.12999,0.6523 c 0.63998,0.3695 3.09337,-4.1359 4.84311,-6.918 2.45782,-3.90778 3.41713,-5.79492 4.60789,-6.21106 0.17516,-0.0611 0.80168,0.30927 0.83397,0.48149 0.2275,1.21295 -1.04141,2.94338 -3.348,6.93847 -1.76593,3.0587 -3.9466,6.7699 -3.78446,7.5292 l 1.35171,0.7805 c 0.71413,-0.2088 2.16954,-3.2024 4.44688,-7.1468 2.30661,-3.9952 3.36302,-5.84825 4.54546,-6.24717 0.17437,-0.0589 0.89863,0.38178 0.95086,0.54898 0.41216,1.31959 -0.88408,3.03419 -3.1907,7.02929 -2.28488,3.9576 -3.96868,6.8828 -3.78194,7.5307 l 1.26127,0.7282 c 0.57465,-0.05 2.53028,-3.2752 4.68589,-7.0088 1.96655,-3.4062 3.28518,-5.8932 4.46317,-6.2947 0.15205,-0.052 0.86353,0.3964 0.88867,0.4955 0.32702,1.288 -0.77029,3.1175 -3.07688,7.1127 -1.34793,2.3347 -3.13694,5.4208 -3.13694,5.4208 l 4.3323,-2.6124 c 0,0 3.11998,-5.1706 4.13446,-6.9277 2.63187,-4.55849 1.01933,-7.92967 0.96724,-12.38713 -0.0442,-3.75349 6.30754,-13.46402 11.85306,-23.06909 5.54553,-9.60506 12.48135,-15.59063 7.82918,-18.27653 z"
       style="color:#000000;clip-rule:nonzero;display:inline;overflow:visible;visibility:visible;opacity:1;isolation:auto;mix-blend-mode:normal;color-interpolation:sRGB;color-interpolation-filters:linearRGB;solid-color:#000000;solid-opacity:1;fill:#333f4f;fill-opacity:1;fill-rule:evenodd;stroke:none;stroke-width:1px;stroke-linecap:butt;stroke-linejoin:miter;stroke-miterlimit:4;stroke-dasharray:none;stroke-dashoffset:0;stroke-opacity:1;color-rendering:auto;image-rendering:auto;shape-rendering:auto;text-rendering:auto;enable-background:accumulate" />
    <path
       sodipodi:nodetypes="sccsczcczccscczcsc"
       inkscape:connector-curvature="0"
       id="path5254"
       d="m 118.12055,986.69872 c -1.45426,0 -1.80467,0.60307 -1.80467,0.60307 l 0,0.93837 c 0,0 -1.46052,-1.53886 -5.38261,-1.53886 -4.42165,0 -9.11152,4.14538 -9.11152,10.46441 -0.14361,5.34969 3.95637,9.97009 8.79716,10.01199 4.84083,0.042 5.2919,-1.5404 5.2919,-1.5404 l 0,0.95 c 0,0 0.75103,0.5941 2.24049,0.5941 1.48947,0 2.2142,-0.5941 2.2142,-0.5941 l 0,-19.28551 c 0,0 -0.60376,-0.60307 -2.24495,-0.60307 z m -1.80415,6.8203 0,7.03128 c 0,0 -1.51083,2.8681 -5.11577,2.8681 -3.60491,0 -5.21039,-3.61319 -5.20207,-6.5418 0,-3.27839 2.0468,-5.87439 4.71611,-5.87439 3.76052,0 5.60173,2.51681 5.60173,2.51681 z"
       style="color:#000000;font-style:normal;font-variant:normal;font-weight:normal;font-stretch:normal;font-size:medium;line-height:normal;font-family:sans-serif;text-indent:0;text-align:start;text-decoration:none;text-decoration-line:none;text-decoration-style:solid;text-decoration-color:#000000;letter-spacing:normal;word-spacing:normal;text-transform:none;direction:ltr;block-progression:tb;writing-mode:lr-tb;baseline-shift:baseline;text-anchor:start;white-space:normal;clip-rule:nonzero;display:inline;overflow:visible;visibility:visible;opacity:1;isolation:auto;mix-blend-mode:normal;color-interpolation:sRGB;color-interpolation-filters:linearRGB;solid-color:#000000;solid-opacity:1;fill:url(#linearGradient5435);fill-opacity:1;fill-rule:evenodd;stroke:none;stroke-width:18;stroke-linecap:round;stroke-linejoin:miter;stroke-miterlimit:4;stroke-dasharray:none;stroke-dashoffset:0;stroke-opacity:1;color-rendering:auto;image-rendering:auto;shape-rendering:auto;text-rendering:auto;enable-background:accumulate" />
    <path
       sodipodi:nodetypes="zccczcczcccz"
       inkscape:connector-curvature="0"
       id="path5256"
       d="m 77.686451,969.60342 c -1.57696,1.3035 -1.44341,2.64451 -1.44341,2.64451 l 15.53649,18.86616 -12.38204,26.45791 c 0,0 0.0373,0.9329 2.05293,1.9285 2.01368,0.9955 3.16242,0.5121 3.16242,0.5121 L 107.4992,971.1385 c 0,0 -0.43382,-1.37969 -2.00544,-2.1219 -1.57162,-0.74217 -3.20991,-0.31872 -3.20991,-0.31872 l -7.803839,16.64525 -13.79886,-16.76481 c 0,0 -1.41777,-0.27852 -2.9947,1.02506 z"
       style="color:#000000;font-style:normal;font-variant:normal;font-weight:normal;font-stretch:normal;font-size:medium;line-height:normal;font-family:sans-serif;text-indent:0;text-align:start;text-decoration:none;text-decoration-line:none;text-decoration-style:solid;text-decoration-color:#000000;letter-spacing:normal;word-spacing:normal;text-transform:none;direction:ltr;block-progression:tb;writing-mode:lr-tb;baseline-shift:baseline;text-anchor:start;white-space:normal;clip-rule:nonzero;display:inline;overflow:visible;visibility:visible;opacity:1;isolation:auto;mix-blend-mode:normal;color-interpolation:sRGB;color-interpolation-filters:linearRGB;solid-color:#000000;solid-opacity:1;fill:url(#linearGradient5451);fill-opacity:1;fill-rule:evenodd;stroke:none;stroke-width:18;stroke-linecap:round;stroke-linejoin:miter;stroke-miterlimit:4;stroke-dasharray:none;stroke-dashoffset:0;stroke-opacity:1;color-rendering:auto;image-rendering:auto;shape-rendering:auto;text-rendering:auto;enable-background:accumulate" />
    <path
       sodipodi:nodetypes="zcczcssczcscz"
       inkscape:connector-curvature="0"
       id="path5258"
       d="m 126.02685,986.69498 c -1.39261,0 -2.01286,0.60848 -2.01286,0.60848 l 0,19.26784 c 0,0 0.62139,0.6208 2.19243,0.6208 1.5712,0 2.19254,-0.6208 2.19254,-0.6208 0,0 0,-7.25639 0,-10.96442 0,-1.54432 0.0794,-3.04759 2.01264,-4.17292 2.51611,-1.4646 4.88872,-0.52188 6.66906,1.61455 0,0 0.86543,0.30915 2.20332,-0.58279 1.33793,-0.89197 1.47695,-1.86401 1.47695,-1.86401 0,0 -2.56583,-3.91647 -7.53337,-3.91647 -2.37037,0 -5.07031,0.62117 -5.07031,0.62117 0,0 -0.7378,-0.61143 -2.1304,-0.61143 z"
       style="color:#000000;font-style:normal;font-variant:normal;font-weight:normal;font-stretch:normal;font-size:medium;line-height:normal;font-family:sans-serif;text-indent:0;text-align:start;text-decoration:none;text-decoration-line:none;text-decoration-style:solid;text-decoration-color:#000000;letter-spacing:normal;word-spacing:normal;text-transform:none;direction:ltr;block-progression:tb;writing-mode:lr-tb;baseline-shift:baseline;text-anchor:start;white-space:normal;clip-rule:nonzero;display:inline;overflow:visible;visibility:visible;opacity:1;isolation:auto;mix-blend-mode:normal;color-interpolation:sRGB;color-interpolation-filters:linearRGB;solid-color:#000000;solid-opacity:1;fill:url(#linearGradient5467);fill-opacity:1;fill-rule:evenodd;stroke:none;stroke-width:18;stroke-linecap:round;stroke-linejoin:miter;stroke-miterlimit:4;stroke-dasharray:none;stroke-dashoffset:0;stroke-opacity:1;color-rendering:auto;image-rendering:auto;shape-rendering:auto;text-rendering:auto;enable-background:accumulate" />
    <path
       sodipodi:nodetypes="zcczcczsczcszcz"
       inkscape:connector-curvature="0"
       id="path5260"
       d="m 144.89332,986.69918 c -1.48415,0 -1.922,0.61625 -1.922,0.61625 l 0,19.26057 c 0,0 0.19939,0.6074 2.20638,0.6074 2.00691,0 2.42087,-0.6074 2.42087,-0.6074 l 0,-11.87299 c 0.379,-2.08581 1.85914,-3.51309 4.11824,-3.51309 2.259,0 4.5037,1.80358 4.5037,4.67655 l 0,10.71163 c 0,0 0.4299,0.6058 2.3718,0.6058 1.9418,0 2.417,-0.6058 2.417,-0.6058 l 0,-10.71163 c 0,-6.01388 -5.4703,-9.16533 -9.2151,-9.16533 -3.74468,0 -4.69874,0.61224 -4.69874,0.61224 0,0 -0.71792,-0.6142 -2.20215,-0.6142 z"
       style="color:#000000;font-style:normal;font-variant:normal;font-weight:normal;font-stretch:normal;font-size:medium;line-height:normal;font-family:sans-serif;text-indent:0;text-align:start;text-decoration:none;text-decoration-line:none;text-decoration-style:solid;text-decoration-color:#000000;letter-spacing:normal;word-spacing:normal;text-transform:none;direction:ltr;block-progression:tb;writing-mode:lr-tb;baseline-shift:baseline;text-anchor:start;white-space:normal;clip-rule:nonzero;display:inline;overflow:visible;visibility:visible;opacity:1;isolation:auto;mix-blend-mode:normal;color-interpolation:sRGB;color-interpolation-filters:linearRGB;solid-color:#000000;solid-opacity:1;fill:url(#linearGradient5443);fill-opacity:1;fill-rule:evenodd;stroke:none;stroke-width:18;stroke-linecap:round;stroke-linejoin:miter;stroke-miterlimit:4;stroke-dasharray:none;stroke-dashoffset:0;stroke-opacity:1;color-rendering:auto;image-rendering:auto;shape-rendering:auto;text-rendering:auto;enable-background:accumulate" />
    <path
       sodipodi:nodetypes="zcczccssszcczcszcczc"
       inkscape:connector-curvature="0"
       id="path5262"
       d="m 167.65051,968.53845 c -2.0985,0.0331 -2.4623,0.59905 -2.4623,0.59905 l 0,37.4409 c 0,0 0.083,0.6203 2.3338,0.6203 2.2508,0 3.0528,-0.6186 3.0528,-0.6186 l 0,-1.3577 c 0,0 1.4174,1.9682 6.5938,1.9682 4.064,0 7.0725,-1.9962 8.1454,-4.7072 1.238,-3.12849 1.2458,-6.52864 0.1,-10.19279 -0.8926,-2.84911 -3.3073,-5.59745 -8.3291,-5.59745 -5.0219,0 -6.4601,1.49375 -6.4601,1.49375 l 0,-19.04941 c 0,0 -0.8743,-0.63092 -2.9728,-0.59905 z m 13.1807,25.47354 c 0.6611,2.11158 0.5036,2.74714 0.5036,4.53264 0,1.81017 -0.9499,4.07467 -5.149,4.10547 -4.1994,0.03 -5.0014,-3.50595 -5.0014,-3.50595 l 0,-5.06467 c 0,0 1.8595,-2.88591 4.6329,-2.88591 2.7729,0 4.58,1.42747 5.0139,2.81842 z"
       style="color:#000000;font-style:normal;font-variant:normal;font-weight:normal;font-stretch:normal;font-size:medium;line-height:normal;font-family:sans-serif;text-indent:0;text-align:start;text-decoration:none;text-decoration-line:none;text-decoration-style:solid;text-decoration-color:#000000;letter-spacing:normal;word-spacing:normal;text-transform:none;direction:ltr;block-progression:tb;writing-mode:lr-tb;baseline-shift:baseline;text-anchor:start;white-space:normal;clip-rule:nonzero;display:inline;overflow:visible;visibility:visible;opacity:1;isolation:auto;mix-blend-mode:normal;color-interpolation:sRGB;color-interpolation-filters:linearRGB;solid-color:#000000;solid-opacity:1;fill:url(#linearGradient5427);fill-opacity:1;fill-rule:evenodd;stroke:none;stroke-width:18;stroke-linecap:round;stroke-linejoin:miter;stroke-miterlimit:4;stroke-dasharray:none;stroke-dashoffset:0;stroke-opacity:1;color-rendering:auto;image-rendering:auto;shape-rendering:auto;text-rendering:auto;enable-background:accumulate" />
    <path
       sodipodi:nodetypes="zcczccz"
       inkscape:connector-curvature="0"
       id="path5266"
       d="m 215.69431,968.54565 c -2.3079,0 -2.8153,0.56325 -2.8153,0.56325 l 0,37.4695 c 0,0 0.5863,0.6025 2.8792,0.6025 2.2931,0 2.5935,-0.6025 2.5935,-0.6025 l 0,-37.4695 c 0,0 -0.3491,-0.56325 -2.6574,-0.56325 z"
       style="color:#000000;font-style:normal;font-variant:normal;font-weight:normal;font-stretch:normal;font-size:medium;line-height:normal;font-family:sans-serif;text-indent:0;text-align:start;text-decoration:none;text-decoration-line:none;text-decoration-style:solid;text-decoration-color:#000000;letter-spacing:normal;word-spacing:normal;text-transform:none;direction:ltr;block-progression:tb;writing-mode:lr-tb;baseline-shift:baseline;text-anchor:start;white-space:normal;clip-rule:nonzero;display:inline;overflow:visible;visibility:visible;opacity:1;isolation:auto;mix-blend-mode:normal;color-interpolation:sRGB;color-interpolation-filters:linearRGB;solid-color:#000000;solid-opacity:1;fill:url(#linearGradient5475);fill-opacity:1;fill-rule:evenodd;stroke:none;stroke-width:18;stroke-linecap:round;stroke-linejoin:miter;stroke-miterlimit:4;stroke-dasharray:none;stroke-dashoffset:0;stroke-opacity:1;color-rendering:auto;image-rendering:auto;shape-rendering:auto;text-rendering:auto;enable-background:accumulate" />
    <path
       style="color:#000000;font-style:normal;font-variant:normal;font-weight:normal;font-stretch:normal;font-size:medium;line-height:normal;font-family:sans-serif;text-indent:0;text-align:start;text-decoration:none;text-decoration-line:none;text-decoration-style:solid;text-decoration-color:#000000;letter-spacing:normal;word-spacing:normal;text-transform:none;direction:ltr;block-progression:tb;writing-mode:lr-tb;baseline-shift:baseline;text-anchor:start;white-space:normal;clip-rule:nonzero;display:inline;overflow:visible;visibility:visible;opacity:1;isolation:auto;mix-blend-mode:normal;color-interpolation:sRGB;color-interpolation-filters:linearRGB;solid-color:#000000;solid-opacity:1;fill:url(#linearGradient5419);fill-opacity:1;fill-rule:evenodd;stroke:none;stroke-width:18;stroke-linecap:round;stroke-linejoin:miter;stroke-miterlimit:4;stroke-dasharray:none;stroke-dashoffset:0;stroke-opacity:1;color-rendering:auto;image-rendering:auto;shape-rendering:auto;text-rendering:auto;enable-background:accumulate"
       d="m 226.62681,968.54565 c -2.308,0 -2.8154,0.56325 -2.8154,0.56325 l 0,37.4695 c 0,0 0.5864,0.6025 2.8793,0.6025 2.2929,0 2.5935,-0.6025 2.5935,-0.6025 l 0,-37.4695 c 0,0 -0.3492,-0.56325 -2.6574,-0.56325 z"
       id="path5278"
       inkscape:connector-curvature="0"
       sodipodi:nodetypes="zcczccz" />
    <path
       style="color:#000000;font-style:normal;font-variant:normal;font-weight:normal;font-stretch:normal;font-size:medium;line-height:normal;font-family:sans-serif;text-indent:0;text-align:start;text-decoration:none;text-decoration-line:none;text-decoration-style:solid;text-decoration-color:#000000;letter-spacing:normal;word-spacing:normal;text-transform:none;direction:ltr;block-progression:tb;writing-mode:lr-tb;baseline-shift:baseline;text-anchor:start;white-space:normal;clip-rule:nonzero;display:inline;overflow:visible;visibility:visible;opacity:1;isolation:auto;mix-blend-mode:normal;color-interpolation:sRGB;color-interpolation-filters:linearRGB;solid-color:#000000;solid-opacity:1;fill:url(#linearGradient5459);fill-opacity:1;fill-rule:evenodd;stroke:none;stroke-width:18;stroke-linecap:round;stroke-linejoin:miter;stroke-miterlimit:4;stroke-dasharray:none;stroke-dashoffset:0;stroke-opacity:1;color-rendering:auto;image-rendering:auto;shape-rendering:auto;text-rendering:auto;enable-background:accumulate"
       d="m 205.69561,986.69872 c -1.4541,0 -1.8048,0.60307 -1.8048,0.60307 l 0,0.93837 c 0,0 -1.4602,-1.53886 -5.3824,-1.53886 -4.4214,0 -9.1117,4.14538 -9.1117,10.46441 -0.142,5.34969 3.9564,9.97009 8.7975,10.01199 4.8407,0.042 5.2919,-1.5404 5.2919,-1.5404 l 0,0.95 c 0,0 0.7509,0.5941 2.2402,0.5941 1.4897,0 2.2143,-0.5941 2.2143,-0.5941 l 0,-19.28551 c 0,0 -0.6037,-0.60307 -2.245,-0.60307 z m -1.8039,6.8203 0,7.03128 c 0,0 -1.5109,2.8681 -5.1157,2.8681 -3.6052,0 -5.2105,-3.61319 -5.2022,-6.5418 0,-3.27839 2.0465,-5.87439 4.716,-5.87439 3.7606,0 5.6019,2.51681 5.6019,2.51681 z"
       id="path5288"
       inkscape:connector-curvature="0"
       sodipodi:nodetypes="sccsczcczccscczcsc" />
    <g
       style="font-style:normal;font-variant:normal;font-weight:normal;font-stretch:normal;font-size:20.28361893px;line-height:125%;font-family:Ubuntu;-inkscape-font-specification:Ubuntu;letter-spacing:0px;word-spacing:0px;display:inline;opacity:1;fill:#ffb116;fill-opacity:1;stroke:none;stroke-width:1px;stroke-linecap:butt;stroke-linejoin:miter;stroke-opacity:1"
       id="text4457">
      <path
         d="m 105.59889,1020.0778 q -0.34482,-0.284 -0.9939,-0.5477 -0.64907,-0.2637 -1.41985,-0.2637 -0.81135,0 -1.39957,0.3043 -0.56794,0.2839 -0.93305,0.8113 -0.3651,0.5071 -0.52737,1.217 -0.16227,0.71 -0.16227,1.5213 0,1.8458 0.91276,2.86 0.91277,0.9939 2.43404,0.9939 0.77077,0 1.27786,-0.061 0.52738,-0.081 0.81135,-0.1622 l 0,-6.6733 z m 0,-7.0993 1.88638,-0.3245 0,15.4358 q -0.64908,0.1825 -1.66326,0.3651 -1.01418,0.1825 -2.33262,0.1825 -1.21701,0 -2.19063,-0.3853 -0.97361,-0.3854 -1.663255,-1.0954 -0.689643,-0.7099 -1.075031,-1.7241 -0.365106,-1.0344 -0.365106,-2.3123 0,-1.217 0.304255,-2.2312 0.324538,-1.0142 0.933046,-1.7444 0.608511,-0.7302 1.480701,-1.1359 0.89248,-0.4056 2.02837,-0.4056 0.91276,0 1.6024,0.2434 0.70993,0.2434 1.05475,0.4665 l 0,-5.3346 z"
         style=""
         id="path6283" />
      <path
         d="m 114.31768,1027.035 q 0.66936,0 1.17645,-0.02 0.52737,-0.041 0.87219,-0.1217 l 0,-3.144 q -0.20283,-0.1014 -0.66936,-0.1623 -0.44624,-0.081 -1.09531,-0.081 -0.42596,0 -0.91277,0.061 -0.46652,0.061 -0.87219,0.2637 -0.38539,0.1826 -0.64908,0.5274 -0.26368,0.3245 -0.26368,0.8722 0,1.0142 0.64907,1.4199 0.64908,0.3853 1.76468,0.3853 z m -0.16227,-9.4521 q 1.13588,0 1.90666,0.3042 0.79106,0.284 1.25758,0.8317 0.48681,0.5273 0.68964,1.2778 0.20284,0.7302 0.20284,1.6227 l 0,6.5922 q -0.2434,0.041 -0.68964,0.1217 -0.42596,0.061 -0.97362,0.1217 -0.54765,0.061 -1.19673,0.1014 -0.62879,0.061 -1.25758,0.061 -0.89248,0 -1.64298,-0.1826 -0.75049,-0.1825 -1.29815,-0.5679 -0.54766,-0.4057 -0.85191,-1.0548 -0.30425,-0.6491 -0.30425,-1.5618 0,-0.8722 0.34482,-1.501 0.3651,-0.6288 0.97361,-1.0142 0.60851,-0.3854 1.41985,-0.5679 0.81135,-0.1826 1.70383,-0.1826 0.28397,0 0.58822,0.041 0.30426,0.02 0.56794,0.081 0.28397,0.041 0.48681,0.081 0.20284,0.04 0.28397,0.061 l 0,-0.5274 q 0,-0.4665 -0.10142,-0.9127 -0.10141,-0.4666 -0.3651,-0.8114 -0.26369,-0.3651 -0.73021,-0.5679 -0.44624,-0.2231 -1.17645,-0.2231 -0.93305,0 -1.64297,0.1419 -0.68965,0.1218 -1.03447,0.2637 l -0.22312,-1.5618 q 0.36511,-0.1623 1.21702,-0.3043 0.85191,-0.1622 1.84581,-0.1622 z"
         style=""
         id="path6285" />
      <path
         d="m 123.09002,1017.8466 3.99588,0 0,1.5821 -3.99588,0 0,4.8681 q 0,0.791 0.12171,1.3184 0.1217,0.5071 0.3651,0.8113 0.2434,0.284 0.60851,0.4057 0.3651,0.1217 0.85191,0.1217 0.85191,0 1.359,-0.1825 0.52738,-0.2029 0.73021,-0.284 l 0.36511,1.5618 q -0.28397,0.142 -0.9939,0.3448 -0.70992,0.2232 -1.62269,0.2232 -1.07503,0 -1.78496,-0.2637 -0.68964,-0.284 -1.1156,-0.8317 -0.42595,-0.5476 -0.6085,-1.3387 -0.16227,-0.8113 -0.16227,-1.8661 l 0,-9.4116 1.88637,-0.3245 0,3.2657 z"
         style=""
         id="path6287" />
      <path
         d="m 133.05625,1027.035 q 0.66936,0 1.17645,-0.02 0.52738,-0.041 0.8722,-0.1217 l 0,-3.144 q -0.20284,-0.1014 -0.66936,-0.1623 -0.44624,-0.081 -1.09532,-0.081 -0.42595,0 -0.91276,0.061 -0.46652,0.061 -0.87219,0.2637 -0.38539,0.1826 -0.64908,0.5274 -0.26369,0.3245 -0.26369,0.8722 0,1.0142 0.64908,1.4199 0.64907,0.3853 1.76467,0.3853 z m -0.16227,-9.4521 q 1.13589,0 1.90667,0.3042 0.79106,0.284 1.25758,0.8317 0.48681,0.5273 0.68964,1.2778 0.20284,0.7302 0.20284,1.6227 l 0,6.5922 q -0.2434,0.041 -0.68964,0.1217 -0.42596,0.061 -0.97362,0.1217 -0.54766,0.061 -1.19673,0.1014 -0.62879,0.061 -1.25759,0.061 -0.89248,0 -1.64297,-0.1826 -0.75049,-0.1825 -1.29815,-0.5679 -0.54766,-0.4057 -0.85191,-1.0548 -0.30426,-0.6491 -0.30426,-1.5618 0,-0.8722 0.34482,-1.501 0.36511,-0.6288 0.97362,-1.0142 0.60851,-0.3854 1.41985,-0.5679 0.81135,-0.1826 1.70383,-0.1826 0.28397,0 0.58822,0.041 0.30425,0.02 0.56794,0.081 0.28397,0.041 0.48681,0.081 0.20283,0.04 0.28397,0.061 l 0,-0.5274 q 0,-0.4665 -0.10142,-0.9127 -0.10142,-0.4666 -0.3651,-0.8114 -0.26369,-0.3651 -0.73021,-0.5679 -0.44624,-0.2231 -1.17645,-0.2231 -0.93305,0 -1.64298,0.1419 -0.68964,0.1218 -1.03446,0.2637 l -0.22312,-1.5618 q 0.3651,-0.1623 1.21702,-0.3043 0.85191,-0.1622 1.8458,-0.1622 z"
         style=""
         id="path6289" />
      <path
         d="m 147.19299,1027.035 q 1.15616,0 1.70382,-0.3042 0.56794,-0.3043 0.56794,-0.9736 0,-0.6897 -0.54766,-1.0953 -0.54765,-0.4057 -1.80524,-0.9128 -0.60851,-0.2434 -1.17645,-0.4868 -0.54766,-0.2637 -0.95333,-0.6085 -0.40567,-0.3448 -0.64907,-0.8316 -0.24341,-0.4869 -0.24341,-1.1968 0,-1.3996 1.03447,-2.2109 1.03446,-0.8316 2.81942,-0.8316 0.44624,0 0.89248,0.061 0.44624,0.041 0.83163,0.1217 0.38539,0.061 0.66936,0.142 0.30425,0.081 0.46652,0.142 l -0.34482,1.6227 q -0.30426,-0.1623 -0.95333,-0.3246 -0.64908,-0.1825 -1.56184,-0.1825 -0.79106,0 -1.37929,0.3245 -0.58822,0.3043 -0.58822,0.9736 0,0.3449 0.1217,0.6086 0.14199,0.2636 0.40567,0.4868 0.28397,0.2028 0.68965,0.3854 0.40567,0.1825 0.97361,0.3853 0.75049,0.284 1.33872,0.568 0.58822,0.2637 0.9939,0.6288 0.42595,0.3651 0.64907,0.8925 0.22312,0.507 0.22312,1.2575 0,1.4605 -1.09531,2.211 -1.07504,0.7504 -3.08311,0.7504 -1.39957,0 -2.19064,-0.2434 -0.79106,-0.2231 -1.07503,-0.3448 l 0.34482,-1.6227 q 0.32454,0.1217 1.03447,0.3651 0.70993,0.2434 1.88638,0.2434 z"
         style=""
         id="path6291" />
      <path
         d="m 161.0936,1023.1406 q 0,-1.8458 -0.91276,-2.8397 -0.91276,-0.9939 -2.43404,-0.9939 -0.85191,0 -1.33871,0.061 -0.46653,0.061 -0.7505,0.142 l 0,6.653 q 0.34482,0.284 0.9939,0.5477 0.64907,0.2637 1.41985,0.2637 0.81135,0 1.37929,-0.284 0.58822,-0.3042 0.95333,-0.8113 0.3651,-0.5274 0.52737,-1.217 0.16227,-0.71 0.16227,-1.5213 z m 1.96751,0 q 0,1.1967 -0.32454,2.2109 -0.30425,1.0142 -0.91276,1.7444 -0.60851,0.7302 -1.50099,1.1359 -0.87219,0.4056 -2.00807,0.4056 -0.91277,0 -1.62269,-0.2434 -0.68965,-0.2434 -1.03447,-0.4665 l 0,4.219 -1.88638,0 0,-13.9754 q 0.66936,-0.1623 1.66326,-0.3448 1.01418,-0.2029 2.33262,-0.2029 1.21701,0 2.19063,0.3854 0.97361,0.3854 1.66326,1.0953 0.68964,0.71 1.05474,1.7444 0.38539,1.0142 0.38539,2.2921 z"
         style=""
         id="path6293" />
      <path
         d="m 169.3053,1027.035 q 0.66936,0 1.17645,-0.02 0.52737,-0.041 0.8722,-0.1217 l 0,-3.144 q -0.20284,-0.1014 -0.66936,-0.1623 -0.44624,-0.081 -1.09532,-0.081 -0.42596,0 -0.91276,0.061 -0.46653,0.061 -0.8722,0.2637 -0.38539,0.1826 -0.64907,0.5274 -0.26369,0.3245 -0.26369,0.8722 0,1.0142 0.64908,1.4199 0.64907,0.3853 1.76467,0.3853 z m -0.16227,-9.4521 q 1.13588,0 1.90666,0.3042 0.79106,0.284 1.25759,0.8317 0.4868,0.5273 0.68964,1.2778 0.20284,0.7302 0.20284,1.6227 l 0,6.5922 q -0.24341,0.041 -0.68965,0.1217 -0.42595,0.061 -0.97361,0.1217 -0.54766,0.061 -1.19674,0.1014 -0.62879,0.061 -1.25758,0.061 -0.89248,0 -1.64297,-0.1826 -0.7505,-0.1825 -1.29815,-0.5679 -0.54766,-0.4057 -0.85192,-1.0548 -0.30425,-0.6491 -0.30425,-1.5618 0,-0.8722 0.34482,-1.501 0.36511,-0.6288 0.97361,-1.0142 0.60851,-0.3854 1.41986,-0.5679 0.81134,-0.1826 1.70382,-0.1826 0.28397,0 0.58823,0.041 0.30425,0.02 0.56794,0.081 0.28397,0.041 0.48681,0.081 0.20283,0.04 0.28397,0.061 l 0,-0.5274 q 0,-0.4665 -0.10142,-0.9127 -0.10142,-0.4666 -0.36511,-0.8114 -0.26368,-0.3651 -0.73021,-0.5679 -0.44624,-0.2231 -1.17645,-0.2231 -0.93304,0 -1.64297,0.1419 -0.68964,0.1218 -1.03447,0.2637 l -0.22312,-1.5618 q 0.36511,-0.1623 1.21702,-0.3043 0.85191,-0.1622 1.84581,-0.1622 z"
         style=""
         id="path6295" />
      <path
         d="m 182.92543,1027.3393 q -0.2434,0.1623 -0.95333,0.426 -0.68964,0.2434 -1.62269,0.2434 -0.95333,0 -1.80524,-0.3043 -0.83163,-0.3043 -1.46042,-0.933 -0.62879,-0.6491 -0.9939,-1.6025 -0.3651,-0.9533 -0.3651,-2.2717 0,-1.1562 0.34482,-2.1095 0.34482,-0.9736 0.9939,-1.6633 0.66936,-0.7099 1.62269,-1.0953 0.95333,-0.4057 2.15006,-0.4057 1.31844,0 2.29205,0.2029 0.9939,0.1825 1.66326,0.3448 l 0,9.4116 q 0,2.434 -1.25759,3.5293 -1.25758,1.0954 -3.81332,1.0954 -0.9939,0 -1.88637,-0.1623 -0.8722,-0.1623 -1.52128,-0.3854 l 0.34483,-1.643 q 0.56794,0.2232 1.37928,0.3854 0.83163,0.1826 1.72411,0.1826 1.68354,0 2.41375,-0.6694 0.75049,-0.6693 0.75049,-2.1298 l 0,-0.4462 z m -0.0203,-7.8295 q -0.28397,-0.081 -0.77078,-0.142 -0.46652,-0.081 -1.27787,-0.081 -1.52127,0 -2.35289,0.9939 -0.81135,0.9939 -0.81135,2.6369 0,0.9127 0.22312,1.5618 0.2434,0.6491 0.62879,1.075 0.40567,0.426 0.91277,0.6288 0.52737,0.2029 1.07503,0.2029 0.75049,0 1.37928,-0.2029 0.6288,-0.2231 0.9939,-0.5071 l 0,-6.1662 z"
         style=""
         id="path6297" />
      <path
         d="m 188.03944,1028.394 0,-15.4155 1.88637,-0.3245 0,5.3954 q 0.52738,-0.2028 1.1156,-0.3043 0.60851,-0.1217 1.19674,-0.1217 1.25758,0 2.08921,0.3651 0.83163,0.3449 1.31843,0.9939 0.5071,0.6288 0.70993,1.5213 0.20284,0.8925 0.20284,1.9675 l 0,5.9228 -1.88638,0 0,-5.5171 q 0,-0.9736 -0.14198,-1.6633 -0.12171,-0.6896 -0.42596,-1.1156 -0.30425,-0.4259 -0.81135,-0.6085 -0.50709,-0.2028 -1.25758,-0.2028 -0.30425,0 -0.62879,0.041 -0.32454,0.04 -0.62879,0.1014 -0.28397,0.041 -0.52738,0.1014 -0.22312,0.061 -0.32454,0.1014 l 0,8.7625 -1.88637,0 z"
         style=""
         id="path6299" />
      <path
         d="m 199.01921,1023.1406 q 0,-1.3996 0.40568,-2.434 0.40567,-1.0548 1.07503,-1.7444 0.66936,-0.6897 1.54155,-1.0345 0.8722,-0.3448 1.78496,-0.3448 2.12978,0 3.26566,1.3387 1.13589,1.3184 1.13589,4.0364 0,0.1217 0,0.3246 0,0.1825 -0.0203,0.3448 l -7.22097,0 q 0.12171,1.643 0.95333,2.4949 0.83163,0.8519 2.59631,0.8519 0.9939,0 1.66325,-0.1623 0.68965,-0.1825 1.03447,-0.3448 l 0.26369,1.5821 q -0.34483,0.1826 -1.21702,0.3854 -0.85191,0.2028 -1.94723,0.2028 -1.37928,0 -2.39347,-0.4056 -0.99389,-0.426 -1.64297,-1.1562 -0.64907,-0.7302 -0.97361,-1.7241 -0.30426,-1.0142 -0.30426,-2.2109 z m 7.24126,-1.0345 q 0.0203,-1.2778 -0.64908,-2.0892 -0.64908,-0.8316 -1.80524,-0.8316 -0.64908,0 -1.15617,0.2637 -0.48681,0.2434 -0.83163,0.649 -0.34482,0.4057 -0.54765,0.9331 -0.18256,0.5274 -0.24341,1.075 l 5.23318,0 z"
         style=""
         id="path6301" />
      <path
         d="m 212.70242,1017.8466 3.99587,0 0,1.5821 -3.99587,0 0,4.8681 q 0,0.791 0.1217,1.3184 0.1217,0.5071 0.36511,0.8113 0.2434,0.284 0.60851,0.4057 0.3651,0.1217 0.85191,0.1217 0.85191,0 1.359,-0.1825 0.52737,-0.2029 0.73021,-0.284 l 0.36511,1.5618 q -0.28398,0.142 -0.9939,0.3448 -0.70993,0.2232 -1.62269,0.2232 -1.07503,0 -1.78496,-0.2637 -0.68964,-0.284 -1.1156,-0.8317 -0.42595,-0.5476 -0.60851,-1.3387 -0.16227,-0.8113 -0.16227,-1.8661 l 0,-9.4116 1.88638,-0.3245 0,3.2657 z"
         style=""
         id="path6303" />
      <path
         d="m 220.86341,1017.8466 3.99587,0 0,1.5821 -3.99587,0 0,4.8681 q 0,0.791 0.1217,1.3184 0.1217,0.5071 0.3651,0.8113 0.24341,0.284 0.60851,0.4057 0.36511,0.1217 0.85192,0.1217 0.85191,0 1.359,-0.1825 0.52737,-0.2029 0.73021,-0.284 l 0.3651,1.5618 q -0.28397,0.142 -0.99389,0.3448 -0.70993,0.2232 -1.62269,0.2232 -1.07504,0 -1.78496,-0.2637 -0.68964,-0.284 -1.1156,-0.8317 -0.42596,-0.5476 -0.60851,-1.3387 -0.16227,-0.8113 -0.16227,-1.8661 l 0,-9.4116 1.88638,-0.3245 0,3.2657 z"
         style=""
         id="path6305" />
      <path
         d="m 229.14609,1028.394 -1.88638,0 0,-10.5474 1.88638,0 0,10.5474 z m -0.95333,-12.4541 q -0.50709,0 -0.8722,-0.3245 -0.34482,-0.3449 -0.34482,-0.9128 0,-0.5679 0.34482,-0.8925 0.36511,-0.3448 0.8722,-0.3448 0.50709,0 0.85191,0.3448 0.36511,0.3246 0.36511,0.8925 0,0.5679 -0.36511,0.9128 -0.34482,0.3245 -0.85191,0.3245 z"
         style=""
         id="path6307" />
    </g>
  </g>
</svg>
